<svg width="485" height="512" viewBox="0 0 485 512" fill="none" xmlns="http://www.w3.org/2000/svg">
<path d="M25.1026 6.99991C23.3028 10.7999 21.7872 14.3999 21.7872 14.9999C21.7872 16.1999 48.1213 30.2999 49.0686 29.5999C50.1106 28.9999 56.2678 15.0999 55.7942 14.5999C55.6047 14.3999 49.3528 10.9999 41.9641 7.09991L28.4181 -8.89424e-05L25.1026 6.99991Z" fill="url(#paint0_linear_2_162)"/>
<path d="M72.4661 32.1C70.5716 36 69.1507 39.6 69.3401 40.1C69.5296 40.7 75.7816 44.2 83.1703 48L96.7162 54.9L100.126 47.5C102.116 43.4 103.442 39.9 103.252 39.6C102.968 39.4 96.7162 36 89.3275 32.1L75.7816 25L72.4661 32.1Z" fill="url(#paint1_linear_2_162)"/>
<path d="M123.145 33.9999C121.345 35.8999 121.251 37.2999 121.251 59.9999C121.251 82.6999 121.345 84.0999 123.145 85.9999C124.187 87.0999 126.176 87.9999 127.692 87.9999C130.06 87.9999 129.965 88.1999 126.461 89.8999C118.219 93.8999 113.672 101.9 113.672 112.2C113.672 119.6 115.851 125.1 120.398 129.7C125.608 134.8 129.397 136 141.143 136H151.563V154C151.563 170.7 151.658 172.1 153.458 174C154.5 175.1 156.3 176 157.531 176C159.52 176 159.615 176.3 159.331 183.2C159.047 189.3 159.426 191.3 161.32 195.2L163.594 200L161.415 204.7C158.289 211.2 158.289 220.8 161.415 227.3L163.594 232L161.415 236.7C157.152 245.4 158.762 257.8 164.825 264.5L167.667 267.6L162.552 282C159.71 290 157.247 297.8 157.057 299.3C156.773 302 157.057 302.3 163.878 304.5C167.762 305.9 171.172 306.6 171.551 306.2C171.835 305.8 173.919 300 176.097 293.3C178.276 286.6 180.929 279 181.971 276.5L183.865 272H204.705C227.724 272 229.902 271.6 235.775 265.7C242.785 258.7 244.775 246 240.228 236.7L238.049 232L240.228 227.3C243.354 220.8 243.354 211.2 240.228 204.7L238.049 200L240.228 195.3C243.354 188.8 243.354 179.2 240.228 172.6L237.954 167.9L252.258 168.2L266.562 168.5L268.74 178C276.792 212.3 282.476 230 293.843 255.5C308.905 289.3 316.104 312 321.03 342C324.629 363.7 325.198 374.3 325.293 421.5C325.387 465.8 325.293 467.6 323.493 470.9C321.03 475.3 317.62 477.9 312.978 479C308.147 480.2 176.855 480.2 172.024 479C167.383 477.9 163.972 475.3 161.51 470.9C159.71 467.6 159.615 465.8 159.71 422C159.71 375.2 160.373 362.6 163.972 342C164.92 336.2 165.772 331 165.772 330.4C165.772 328.9 151.658 325.5 150.616 326.7C149.574 327.8 147.016 343.5 145.311 359C144.364 368.1 143.985 385.2 143.985 421.2C143.985 469 144.08 471.1 145.974 476.4C148.342 483.1 154.121 489.7 160.562 493L165.299 495.5L241.27 495.8C316.104 496 317.241 496 322.451 494C328.797 491.4 335.049 485.3 338.175 478.5L340.544 473.5V417.5C340.544 368.2 340.354 360.1 338.838 350C333.06 311.7 325.671 286.4 309.757 250.8C305.589 241.5 300.095 228 297.538 220.7C293.275 208.8 285.128 179.6 285.128 176.4C285.128 175.5 287.023 176 291.096 178C298.674 181.8 307.01 184 313.262 184H318.283V175.5V167H313.831C308.431 167 298.674 163.5 292.706 159.5C285.602 154.8 279.066 146.7 274.803 137.5C270.067 127.3 272.245 128.1 240.701 124C220.43 121.4 217.304 120.8 215.314 118.9C212.188 115.7 212.283 110.2 215.599 106.9L218.062 104.5L270.161 104.2L322.261 103.9L337.512 116L352.763 128H388.57H424.377V184V240H416.799H409.221V196V152H401.642H394.064V196V240H359.963H325.861V248V256H380.803C444.459 256 439.533 256.8 439.533 246V240H452.795C464.825 240 466.246 239.8 467.951 238C469.751 236.1 469.846 234.7 469.846 184C469.846 133.3 469.751 131.9 467.951 130C466.246 128.2 464.825 128 452.795 128H439.533V122C439.533 111.4 442.091 112 397.664 112L359.489 111.9L344.427 99.9999L329.366 87.9999H321.882H314.494L316.388 85.9999C317.904 84.3999 318.283 82.6999 318.283 77.5999C318.283 58.0999 304.547 39.2999 286.17 33.5999C281.908 32.2999 275.561 31.9999 250.363 31.9999H219.767V39.8999V47.7999L249.416 48.1999C277.645 48.4999 279.16 48.5999 283.613 50.7999C290.907 54.2999 296.022 59.2999 299.243 66.1999C300.853 69.4999 302.179 72.7999 302.179 73.3999C302.179 73.9999 294.79 77.5999 285.791 81.2999L269.498 88.0999H242.027C210.957 87.9999 209.441 88.3999 202.811 95.8999L199.4 99.7999L183.297 87.5999L167.193 75.3999L166.909 61.6999L166.625 47.9999H185.665H204.61V39.9999V31.9999H164.825C126.271 31.9999 124.945 32.0999 123.145 33.9999ZM151.563 59.9999V71.9999H143.985H136.407V59.9999V47.9999H143.985H151.563V59.9999ZM176.666 105.4C180.171 107 181.592 110.2 180.55 114.6C179.413 119.1 175.434 120 155.352 120C135.27 120 131.292 119.1 130.155 114.6C129.208 110.3 130.534 107 133.849 105.5C138.207 103.5 172.119 103.4 176.666 105.4ZM197.979 121.5C197.979 122.2 199.495 125.2 201.295 128L204.705 133.3L204.421 146.4L204.137 159.5L197.79 159.8C191.443 160.1 191.349 160 191.349 157.6C191.349 152.2 194.285 126.3 195.327 122.8C196.274 119.3 197.979 118.5 197.979 121.5ZM176.855 139.2C176.571 141 176.003 145.6 175.719 149.5C174.771 159.9 174.771 160 170.414 160H166.72V148V136H172.024H177.329L176.855 139.2ZM238.428 141C260.594 143.9 259.268 143.5 261.447 148L263.341 152H241.554H219.767V145.5C219.767 137.8 217.872 138.3 238.428 141ZM454.69 184V224H447.111H439.533V184V144H447.111H454.69V184ZM222.135 177.4C225.64 179 227.061 182.2 226.019 186.6C224.882 191.1 220.903 192 200.821 192C180.739 192 176.761 191.1 175.624 186.6C174.677 182.3 176.003 179 179.318 177.5C183.676 175.5 217.588 175.4 222.135 177.4ZM222.135 209.4C225.64 211 227.061 214.2 226.019 218.6C224.882 223.1 220.903 224 200.821 224C180.739 224 176.761 223.1 175.624 218.6C174.677 214.3 176.003 211 179.318 209.5C183.676 207.5 217.588 207.4 222.135 209.4ZM222.135 241.4C225.64 243 227.061 246.2 226.019 250.6C224.882 255.1 220.903 256 200.821 256C180.739 256 176.761 255.1 175.624 250.6C174.677 246.3 176.003 243 179.318 241.5C183.676 239.5 217.588 239.4 222.135 241.4Z" fill="url(#paint2_linear_2_162)"/>
<path d="M15.1563 80V88H30.3126H45.4689V80V72H30.3126H15.1563V80Z" fill="url(#paint3_linear_2_162)"/>
<path d="M68.2034 80V88H83.3597H98.5161V80V72H83.3597H68.2034V80Z" fill="url(#paint4_linear_2_162)"/>
<path d="M82.8861 111.2C75.5921 115 69.4349 118.4 69.2454 118.6C68.7718 119.1 74.929 133 75.971 133.6C76.9183 134.3 103.252 120.2 103.252 119C103.252 117.9 96.811 104 96.3373 104.1C96.2426 104.1 90.1801 107.3 82.8861 111.2Z" fill="url(#paint5_linear_2_162)"/>
<path d="M35.3332 136.3C27.8497 140.2 21.7872 144.1 21.7872 144.8C21.7872 145.8 26.9972 157.7 27.9445 158.8C28.5128 159.5 55.8889 145 55.8889 144C55.8889 143 49.4475 128.9 48.9738 129.1C48.8791 129.1 42.7219 132.3 35.3332 136.3Z" fill="url(#paint6_linear_2_162)"/>
<path d="M219.767 321.9C206.126 326.5 194.285 336.6 188.223 348.8C182.349 360.6 181.876 363.8 181.876 389.2C181.876 410.7 181.971 412.1 183.77 414C185.57 415.9 186.896 416 222.419 416C263.152 416 263.909 415.9 275.845 409.3C287.591 402.8 297.537 389.6 301.611 375.1C302.842 370.8 303.126 364.8 303.126 346.8C303.126 325.3 303.032 323.9 301.232 322C299.432 320.1 298.106 320 262.204 320.1C229.334 320.1 224.408 320.3 219.767 321.9ZM287.97 346.7C287.875 368.5 285.128 378.1 276.224 387.6C269.972 394.1 263.341 397.6 254.342 399C250.648 399.5 236.344 400 222.419 400H197.032V389.2C197.127 367.5 199.874 357.9 208.778 348.4C214.841 342.1 221.851 338.3 229.808 337.1C232.934 336.6 247.237 336.2 261.731 336.1L287.97 336V346.7Z" fill="url(#paint7_linear_2_162)"/>
<defs>
<linearGradient id="paint0_linear_2_162" x1="38.8037" y1="29.6251" x2="38.8037" y2="-8.96454e-05" gradientUnits="userSpaceOnUse">
<stop stop-color="#05828A"/>
<stop offset="1" stop-color="#39BFB7"/>
</linearGradient>
<linearGradient id="paint1_linear_2_162" x1="86.2968" y1="54.9" x2="86.2968" y2="25" gradientUnits="userSpaceOnUse">
<stop stop-color="#05828A"/>
<stop offset="1" stop-color="#39BFB7"/>
</linearGradient>
<linearGradient id="paint2_linear_2_162" x1="291.759" y1="495.885" x2="291.759" y2="31.9999" gradientUnits="userSpaceOnUse">
<stop stop-color="#05828A"/>
<stop offset="1" stop-color="#39BFB7"/>
</linearGradient>
<linearGradient id="paint3_linear_2_162" x1="30.3126" y1="88" x2="30.3126" y2="72" gradientUnits="userSpaceOnUse">
<stop stop-color="#05828A"/>
<stop offset="1" stop-color="#39BFB7"/>
</linearGradient>
<linearGradient id="paint4_linear_2_162" x1="83.3597" y1="88" x2="83.3597" y2="72" gradientUnits="userSpaceOnUse">
<stop stop-color="#05828A"/>
<stop offset="1" stop-color="#39BFB7"/>
</linearGradient>
<linearGradient id="paint5_linear_2_162" x1="86.2359" y1="133.625" x2="86.2359" y2="104.099" gradientUnits="userSpaceOnUse">
<stop stop-color="#05828A"/>
<stop offset="1" stop-color="#39BFB7"/>
</linearGradient>
<linearGradient id="paint6_linear_2_162" x1="38.8381" y1="158.824" x2="38.8381" y2="129.098" gradientUnits="userSpaceOnUse">
<stop stop-color="#05828A"/>
<stop offset="1" stop-color="#39BFB7"/>
</linearGradient>
<linearGradient id="paint7_linear_2_162" x1="242.501" y1="416" x2="242.501" y2="320.074" gradientUnits="userSpaceOnUse">
<stop stop-color="#05828A"/>
<stop offset="1" stop-color="#39BFB7"/>
</linearGradient>
</defs>
</svg>
