<svg width="682" height="389" viewBox="0 0 682 389" fill="none" xmlns="http://www.w3.org/2000/svg">
<path d="M36.3488 1.09874C22.6154 4.29874 10.0821 14.8321 3.81542 28.2987C0.748755 35.0987 0.0820881 38.0321 0.215421 47.6321C0.215421 68.9654 -12.5846 54.5654 159.149 226.565C262.749 330.299 313.815 380.565 317.949 382.832C327.682 388.032 339.015 389.899 349.149 387.765C353.682 386.832 360.215 384.565 363.549 382.832C367.682 380.565 418.749 330.299 522.349 226.565C694.082 54.5654 681.282 68.9654 681.282 47.6321C681.282 38.0321 680.749 35.0987 677.549 28.0321C666.349 3.49874 636.482 -6.90126 612.082 5.23208C608.615 6.96541 560.349 54.2987 473.815 140.699L340.749 273.632L207.682 140.699C120.749 53.8987 72.8821 6.96541 69.4154 5.23208C59.2821 0.298743 46.7488 -1.30126 36.3488 1.09874Z" fill="#FFB300"/>
</svg>
