<svg width="668" height="668" viewBox="0 0 668 668" fill="none" xmlns="http://www.w3.org/2000/svg">
<path d="M34 334C34 168.313 168.313 34 334 34C499.685 34 634 168.313 634 334C634 499.685 499.685 634 334 634C168.313 634 34 499.685 34 334Z" stroke="#0DBABA" stroke-width="66.6667"/>
<path d="M467.333 367.333C485.743 367.333 500.667 352.409 500.667 334C500.667 315.591 485.743 300.667 467.333 300.667V367.333ZM200.667 367.333H467.333V300.667H200.667V367.333Z" fill="#0DBABA"/>
<path d="M300.667 234L203.567 331.1C201.967 332.7 201.967 335.3 203.567 336.9L300.667 434" stroke="#0DBABA" stroke-width="66.6667" stroke-linecap="round" stroke-linejoin="round"/>
</svg>
