<svg width="42" height="32" viewBox="0 0 42 32" fill="none" xmlns="http://www.w3.org/2000/svg">
<path d="M41.5657 7.75208L41.5136 7.40208L41.4594 7.41458C41.0892 5.68341 40.2364 4.09243 38.9997 2.82573C37.763 1.55903 36.1929 0.668384 34.4711 0.256841C32.7493 -0.154702 30.9461 -0.0703203 29.2703 0.500224C27.5944 1.07077 26.1143 2.10416 25.0013 3.48082C23.8883 4.85748 23.1878 6.52115 22.9809 8.27933C22.774 10.0375 23.0692 11.8183 23.8322 13.4158C24.5952 15.0132 25.795 16.3619 27.2926 17.3059C28.7902 18.2499 30.5245 18.7506 32.2948 18.75C32.7594 18.75 33.2052 18.6792 33.649 18.6146C33.5052 19.0979 33.3573 19.5896 33.1198 20.0313C32.8823 20.6729 32.5115 21.2292 32.1427 21.7896C31.8344 22.3958 31.2907 22.8062 30.8907 23.325C30.4719 23.8292 29.9011 24.1646 29.449 24.5833C29.0052 25.0208 28.424 25.2396 27.9615 25.5479C27.4782 25.825 27.0573 26.1313 26.6073 26.2771L25.4844 26.7396L24.4969 27.15L25.5052 31.1896L26.749 30.8896C27.1469 30.7896 27.6323 30.6729 28.1844 30.5333C28.749 30.4292 29.3511 30.1438 30.0219 29.8833C30.6823 29.5854 31.4511 29.3875 32.1636 28.9104C32.8802 28.4563 33.7073 28.0771 34.4365 27.4688C35.1427 26.8417 35.9948 26.2979 36.624 25.5021C37.3115 24.7563 37.9907 23.9729 38.5177 23.0813C39.1282 22.2313 39.5427 21.2979 39.9802 20.375C40.3761 19.4521 40.6948 18.5083 40.9552 17.5917C41.449 15.7542 41.6698 14.0083 41.7552 12.5146C41.8261 11.0188 41.7844 9.775 41.6969 8.875C41.6676 8.49915 41.6239 8.12456 41.5657 7.75208ZM18.649 7.75208L18.5969 7.40208L18.5427 7.41458C18.1726 5.68341 17.3198 4.09243 16.083 2.82573C14.8463 1.55903 13.2762 0.668384 11.5544 0.256841C9.83259 -0.154702 8.02944 -0.0703203 6.35359 0.500224C4.67773 1.07077 3.19767 2.10416 2.08465 3.48082C0.971636 4.85748 0.271152 6.52115 0.0642523 8.27933C-0.142648 10.0375 0.152493 11.8183 0.915525 13.4158C1.67856 15.0132 2.87829 16.3619 4.37592 17.3059C5.87354 18.2499 7.60785 18.7506 9.37816 18.75C9.84274 18.75 10.2886 18.6792 10.7323 18.6146C10.5886 19.0979 10.4407 19.5896 10.2032 20.0313C9.96566 20.6729 9.59483 21.2292 9.22608 21.7896C8.91774 22.3958 8.37399 22.8062 7.97399 23.325C7.55524 23.8292 6.98441 24.1646 6.53233 24.5833C6.08858 25.0208 5.50733 25.2396 5.04483 25.5479C4.56149 25.825 4.14066 26.1313 3.69066 26.2771L2.56774 26.7396C1.94066 26.9958 1.58233 27.1458 1.58233 27.1458L2.59066 31.1854L3.83441 30.8854C4.23233 30.7854 4.71774 30.6688 5.26983 30.5292C5.83441 30.425 6.43649 30.1396 7.10733 29.8792C7.76774 29.5813 8.53649 29.3833 9.24899 28.9063C9.96566 28.4521 10.7927 28.0729 11.5219 27.4646C12.2282 26.8375 13.0802 26.2938 13.7094 25.4979C14.3969 24.7521 15.0761 23.9688 15.6032 23.0771C16.2136 22.2271 16.6282 21.2938 17.0657 20.3708C17.4615 19.4479 17.7802 18.5042 18.0407 17.5875C18.5344 15.75 18.7552 14.0042 18.8407 12.5104C18.9115 11.0146 18.8698 9.77083 18.7823 8.87083C18.7512 8.49645 18.7067 8.12329 18.649 7.75208Z" fill="#0DBABA"/>
</svg>
