<svg width="600" height="150" viewBox="0 0 600 150" fill="none" xmlns="http://www.w3.org/2000/svg">
<g clip-path="url(#clip0)">
<g filter="url(#filter0_d)">
<path d="M50.16 18.72V70.4H60.4V81.36C60.4 81.84 60.1067 82.2933 59.52 82.72C58.9867 83.1467 58.4267 83.3333 57.84 83.28C57.2 83.28 56.64 83.0667 56.16 82.64C55.68 82.2133 55.44 81.68 55.44 81.04C55.44 79.0667 54.7733 77.7333 53.44 77.04C52.16 76.4 50.6933 76.08 49.04 76.08H13.52C11.44 76.08 9.94667 76.4533 9.04 77.2C8.13333 77.9467 7.68 79.2 7.68 80.96C7.68 81.6 7.38667 82.1333 6.8 82.56C6.26667 83.04 5.73333 83.28 5.2 83.28C4.61333 83.3333 4.05333 83.1467 3.52 82.72C2.98667 82.2933 2.72 81.84 2.72 81.36V70.4H12.64C15.0933 63.8933 16.72 57.0933 17.52 50C18.32 42.8533 18.72 35.92 18.72 29.2C18.72 26.9067 18.3733 25.44 17.68 24.8C17.04 24.1067 15.8133 23.6 14 23.28C13.2533 23.28 12.64 23.0667 12.16 22.64C11.7333 22.16 11.52 21.6267 11.52 21.04C11.4667 20.56 11.6533 20.0533 12.08 19.52C12.5067 18.9867 12.96 18.72 13.44 18.72H50.16ZM21.04 70.4H42V24.4H31.52C29.44 24.4 28.08 24.64 27.44 25.12C26.8 25.5467 26.48 26.8533 26.48 29.04C26.48 32.4533 26.3733 35.9467 26.16 39.52C26 43.0933 25.7067 46.6667 25.28 50.24C24.8533 53.8133 24.2933 57.3067 23.6 60.72C22.9067 64.1333 22.0533 67.36 21.04 70.4ZM83.9406 76.88C81.0073 76.88 78.314 76.4267 75.8606 75.52C73.4073 74.6133 71.274 73.28 69.4606 71.52C67.7006 69.76 66.314 67.6 65.3006 65.04C64.3406 62.48 63.8606 59.5467 63.8606 56.24C63.8606 53.4667 64.2606 50.8 65.0606 48.24C65.8606 45.68 67.0873 43.44 68.7406 41.52C70.394 39.5467 72.474 38 74.9806 36.88C77.4873 35.7067 80.4206 35.12 83.7806 35.12C86.874 35.12 89.674 35.6267 92.1806 36.64C94.6873 37.6533 96.8206 39.0933 98.5806 40.96C100.287 42.7733 101.621 44.9867 102.581 47.6C103.541 50.16 104.021 53.0133 104.021 56.16C104.021 62.4 102.234 67.4133 98.6606 71.2C95.0873 74.9867 90.1806 76.88 83.9406 76.88ZM72.3406 56.24C72.3406 58.2667 72.5273 60.2133 72.9006 62.08C73.3273 63.9467 73.994 65.5733 74.9006 66.96C75.8073 68.4 77.0073 69.5467 78.5006 70.4C79.994 71.2533 81.834 71.68 84.0206 71.68C86.0473 71.68 87.7806 71.2533 89.2206 70.4C90.6606 69.5467 91.834 68.4 92.7406 66.96C93.6473 65.52 94.314 63.8667 94.7406 62C95.1673 60.1333 95.3806 58.1867 95.3806 56.16C95.3806 54.1867 95.1673 52.2667 94.7406 50.4C94.314 48.48 93.6473 46.7733 92.7406 45.28C91.834 43.84 90.634 42.6667 89.1406 41.76C87.6473 40.8 85.834 40.32 83.7006 40.32C81.6206 40.32 79.834 40.7733 78.3406 41.68C76.9006 42.5333 75.754 43.7067 74.9006 45.2C73.994 46.64 73.3273 48.32 72.9006 50.24C72.5273 52.16 72.3406 54.16 72.3406 56.24ZM109.086 56.48V52.32C109.086 45.9733 110.632 40.4 113.726 35.6C116.819 30.8 121.646 27.44 128.206 25.52C130.446 24.88 132.366 24.0267 133.966 22.96C135.619 21.8933 136.446 20.48 136.446 18.72H145.646C145.646 20.7467 145.112 22.48 144.046 23.92C143.032 25.3067 141.752 26.48 140.206 27.44C138.712 28.4 137.086 29.2 135.326 29.84C133.566 30.48 131.992 31.04 130.606 31.52C129.539 31.8933 128.499 32.32 127.486 32.8C126.526 33.28 125.672 33.76 124.926 34.24C124.126 34.72 123.486 35.12 123.006 35.44C122.579 35.76 122.366 35.92 122.366 35.92C122.259 35.9733 122.366 35.9733 122.686 35.92C123.006 35.8133 123.459 35.7067 124.046 35.6C124.579 35.4933 125.192 35.3867 125.886 35.28C126.632 35.1733 127.406 35.12 128.206 35.12C131.299 35.12 134.046 35.68 136.446 36.8C138.846 37.8667 140.872 39.3333 142.526 41.2C144.179 43.12 145.432 45.36 146.286 47.92C147.139 50.48 147.566 53.2533 147.566 56.24C147.566 59.2267 147.139 62 146.286 64.56C145.432 67.0667 144.179 69.2267 142.526 71.04C140.872 72.9067 138.846 74.3467 136.446 75.36C134.099 76.4267 131.406 76.96 128.366 76.96C122.126 76.96 117.352 75.0933 114.046 71.36C110.739 67.5733 109.086 62.6133 109.086 56.48ZM117.566 56.32C117.566 58.1333 117.752 59.9733 118.126 61.84C118.499 63.7067 119.112 65.3867 119.966 66.88C120.819 68.4267 121.939 69.68 123.326 70.64C124.712 71.5467 126.419 72 128.446 72C130.419 72 132.072 71.5467 133.406 70.64C134.792 69.68 135.886 68.4267 136.686 66.88C137.539 65.3867 138.126 63.7067 138.446 61.84C138.819 59.9733 139.006 58.1067 139.006 56.24C139.006 54.4267 138.819 52.56 138.446 50.64C138.072 48.72 137.459 46.9867 136.606 45.44C135.752 43.8933 134.632 42.6133 133.246 41.6C131.859 40.5867 130.152 40.08 128.126 40.08C126.046 40.08 124.312 40.6133 122.926 41.68C121.592 42.6933 120.526 44 119.726 45.6C118.926 47.2 118.366 48.96 118.046 50.88C117.726 52.7467 117.566 54.56 117.566 56.32ZM164.216 51.44V58.24C164.216 59.4133 164.35 60.7467 164.616 62.24C164.936 63.7333 165.47 65.1733 166.216 66.56C166.963 67.8933 167.95 69.04 169.176 70C170.403 70.9067 171.95 71.36 173.816 71.36C175.79 71.36 177.416 70.88 178.696 69.92C180.03 68.96 181.096 67.7333 181.896 66.24C182.643 64.6933 183.176 63.0133 183.496 61.2C183.87 59.3333 184.056 57.52 184.056 55.76C184.056 54.2133 183.87 52.5333 183.496 50.72C183.176 48.9067 182.616 47.2533 181.816 45.76C181.016 44.2133 179.95 42.9333 178.616 41.92C177.283 40.9067 175.63 40.4 173.656 40.4C171.363 40.4 169.256 41.36 167.336 43.28C165.416 45.2 164.376 47.92 164.216 51.44ZM159.896 35.92C161.176 35.92 162.19 36.2667 162.936 36.96C163.736 37.6533 164.136 38.56 164.136 39.68C164.776 38.9867 165.923 38.0533 167.576 36.88C169.23 35.7067 171.496 35.12 174.376 35.12C179.656 35.12 183.95 36.96 187.256 40.64C190.563 44.2667 192.216 49.2533 192.216 55.6C192.216 58.32 191.896 60.96 191.256 63.52C190.616 66.08 189.603 68.3467 188.216 70.32C186.83 72.3467 185.016 73.9467 182.776 75.12C180.59 76.2933 177.896 76.88 174.696 76.88C173.31 76.88 172.003 76.6933 170.776 76.32C169.603 75.9467 168.563 75.4667 167.656 74.88C166.75 74.3467 165.976 73.8133 165.336 73.28C164.75 72.6933 164.376 72.2133 164.216 71.84V89.84H156.296V46.8C156.296 46.1067 156.27 45.4933 156.216 44.96C156.216 44.3733 156.163 43.84 156.056 43.36C156.003 42.88 155.843 42.48 155.576 42.16C155.363 41.7867 155.07 41.44 154.696 41.12C154.323 40.9067 153.87 40.7467 153.336 40.64C152.856 40.48 152.376 40.4 151.896 40.4C151.096 40.4 150.51 40.16 150.136 39.68C149.763 39.2 149.576 38.64 149.576 38C149.576 37.4667 149.816 36.9867 150.296 36.56C150.83 36.1333 151.363 35.92 151.896 35.92H159.896ZM223.142 76.08V71.76C221.702 73.36 219.889 74.6133 217.702 75.52C215.515 76.48 212.662 76.96 209.142 76.96C205.942 77.0133 203.329 75.92 201.302 73.68C199.275 71.44 198.262 68.8 198.262 65.76C198.262 63.0933 198.955 60.8533 200.342 59.04C201.729 57.2267 203.489 55.76 205.622 54.64C207.755 53.52 210.049 52.72 212.502 52.24C214.955 51.7067 217.249 51.4133 219.382 51.36C219.702 51.36 220.075 51.36 220.502 51.36C220.929 51.36 221.329 51.36 221.702 51.36C222.075 51.36 222.395 51.36 222.662 51.36C222.929 51.3067 223.089 51.28 223.142 51.28V49.2C223.142 48.24 223.009 47.2267 222.742 46.16C222.475 45.0933 222.049 44.1067 221.462 43.2C220.822 42.3467 219.969 41.6267 218.902 41.04C217.835 40.4533 216.502 40.16 214.902 40.16C212.502 40.16 210.635 40.8267 209.302 42.16C207.969 43.44 207.302 45.2 207.302 47.44H198.742C198.742 46.1067 199.035 44.72 199.622 43.28C200.262 41.7867 201.275 40.4533 202.662 39.28C203.995 38.0533 205.702 37.0667 207.782 36.32C209.862 35.52 212.342 35.12 215.222 35.12C220.182 35.12 224.049 36.4267 226.822 39.04C229.595 41.6533 230.982 45.12 230.982 49.44V76.08H223.142ZM223.142 61.6V56.32C222.075 56.32 220.769 56.3733 219.222 56.48C217.675 56.5867 216.155 56.8 214.662 57.12C212.475 57.6533 210.609 58.5067 209.062 59.68C207.515 60.8533 206.742 62.6133 206.742 64.96C206.742 65.4933 206.795 66.1067 206.902 66.8C207.062 67.4933 207.355 68.1333 207.782 68.72C208.209 69.36 208.795 69.8933 209.542 70.32C210.289 70.6933 211.275 70.88 212.502 70.88C213.835 70.88 215.115 70.6667 216.342 70.24C217.622 69.76 218.769 69.12 219.782 68.32C220.795 67.4667 221.595 66.48 222.182 65.36C222.822 64.24 223.142 62.9867 223.142 61.6ZM246.064 76.08H237.744L251.984 59.28H251.584C249.984 59.3333 248.411 59.0933 246.864 58.56C245.318 57.9733 243.958 57.1733 242.784 56.16C241.611 55.0933 240.651 53.8667 239.904 52.48C239.211 51.04 238.864 49.44 238.864 47.68C238.864 45.92 239.238 44.32 239.984 42.88C240.784 41.3867 241.824 40.1333 243.104 39.12C244.331 38.1067 245.744 37.3333 247.344 36.8C248.944 36.2133 250.544 35.92 252.144 35.92H271.904V76.08H264.064V41.2H255.504C253.051 41.2 251.078 41.7867 249.584 42.96C248.091 44.1333 247.344 45.68 247.344 47.6C247.344 49.8933 248.118 51.6 249.664 52.72C251.211 53.84 253.078 54.4 255.264 54.4H259.184C259.984 54.4 260.544 54.5867 260.864 54.96C261.238 55.3333 261.478 55.76 261.584 56.24C261.638 56.72 261.584 57.2267 261.424 57.76C261.264 58.24 261.078 58.5867 260.864 58.8L246.064 76.08ZM339.244 73.84V89.6H331.804V73.84C331.164 74.4267 330.151 75.0933 328.764 75.84C327.378 76.5867 325.351 76.96 322.684 76.96C319.804 76.96 317.324 76.3467 315.244 75.12C313.164 73.9467 311.458 72.4 310.124 70.48C308.738 68.5067 307.724 66.2933 307.084 63.84C306.498 61.3333 306.204 58.8 306.204 56.24C306.204 53.84 306.471 51.3867 307.004 48.88C307.538 46.3733 308.418 44.1067 309.644 42.08C310.924 40.0533 312.551 38.4 314.524 37.12C316.498 35.84 318.924 35.2 321.804 35.2C323.351 35.2 324.711 35.4133 325.884 35.84C327.058 36.2133 328.071 36.64 328.924 37.12C329.724 37.6533 330.364 38.1867 330.844 38.72C331.324 39.2 331.644 39.5467 331.804 39.76V28C331.804 27.4667 331.778 26.96 331.724 26.48C331.724 25.9467 331.671 25.44 331.564 24.96C331.511 24.5333 331.351 24.16 331.084 23.84C330.871 23.4667 330.578 23.12 330.204 22.8C329.831 22.5867 329.378 22.4267 328.844 22.32C328.364 22.16 327.884 22.08 327.404 22.08C326.604 22.08 325.991 21.84 325.564 21.36C325.191 20.88 325.004 20.32 325.004 19.68C325.004 19.1467 325.244 18.6667 325.724 18.24C326.258 17.8133 326.791 17.6 327.324 17.6H335.004C336.284 17.6 337.298 18.0533 338.044 18.96C338.844 19.8667 339.244 20.72 339.244 21.52V39.68C339.298 39.52 339.564 39.2 340.044 38.72C340.524 38.24 341.164 37.7333 341.964 37.2C342.818 36.6667 343.831 36.2133 345.004 35.84C346.178 35.4133 347.538 35.2 349.084 35.2C351.911 35.2 354.311 35.84 356.284 37.12C358.311 38.4 359.964 40.0533 361.244 42.08C362.471 44.1067 363.378 46.3733 363.964 48.88C364.551 51.3867 364.844 53.84 364.844 56.24C364.844 58.8 364.524 61.3333 363.884 63.84C363.244 66.2933 362.258 68.5067 360.924 70.48C359.538 72.4 357.804 73.9467 355.724 75.12C353.698 76.3467 351.244 76.96 348.364 76.96C345.644 76.96 343.591 76.5867 342.204 75.84C340.818 75.0933 339.831 74.4267 339.244 73.84ZM339.244 52.16V58.8C339.244 60.4533 339.351 62.0533 339.564 63.6C339.778 65.1467 340.204 66.5333 340.844 67.76C341.484 68.9867 342.364 69.9733 343.484 70.72C344.604 71.4133 346.044 71.76 347.804 71.76C350.844 71.76 353.031 70.3467 354.364 67.52C355.751 64.64 356.444 60.96 356.444 56.48C356.444 54.6667 356.311 52.8267 356.044 50.96C355.778 49.0933 355.298 47.4133 354.604 45.92C353.964 44.4267 353.058 43.2 351.884 42.24C350.711 41.28 349.244 40.8 347.484 40.8C346.098 40.8 344.871 41.2 343.804 42C342.791 42.7467 341.938 43.68 341.244 44.8C340.551 45.92 340.044 47.1467 339.724 48.48C339.404 49.8133 339.244 51.04 339.244 52.16ZM331.804 58.8V52.16C331.804 50.9333 331.618 49.6533 331.244 48.32C330.871 46.9867 330.311 45.76 329.564 44.64C328.871 43.52 328.018 42.6133 327.004 41.92C325.991 41.1733 324.844 40.8 323.564 40.8C321.751 40.8 320.258 41.28 319.084 42.24C317.911 43.2 317.004 44.4267 316.364 45.92C315.671 47.4133 315.191 49.0933 314.924 50.96C314.711 52.8267 314.604 54.6667 314.604 56.48C314.604 60.96 315.271 64.64 316.604 67.52C317.991 70.3467 320.204 71.76 323.244 71.76C325.164 71.76 326.684 71.36 327.804 70.56C328.924 69.76 329.778 68.72 330.364 67.44C330.951 66.16 331.324 64.7733 331.484 63.28C331.698 61.7333 331.804 60.24 331.804 58.8ZM390.587 76.16C387.707 76.1067 385.014 75.5467 382.507 74.48C380 73.4133 377.787 71.9467 375.867 70.08C374 68.16 372.534 65.84 371.467 63.12C370.4 60.4 369.867 57.3067 369.867 53.84C369.867 50.6933 370.347 47.92 371.307 45.52C372.32 43.0667 373.707 41.04 375.467 39.44C377.28 37.7867 379.387 36.5333 381.787 35.68C384.24 34.8267 386.907 34.4 389.787 34.4C391.92 34.4 394.027 34.8 396.107 35.6C398.24 36.3467 400.16 37.4667 401.867 38.96C403.52 40.4533 404.854 42.2933 405.867 44.48C406.934 46.6133 407.467 49.04 407.467 51.76V56.72H378.267C378.64 60.72 380 63.9733 382.347 66.48C384.747 68.9867 388.16 70.4533 392.587 70.88C393.334 70.9867 394.774 70.96 396.907 70.8C399.094 70.64 401.307 70.08 403.547 69.12C404.187 68.8533 404.747 68.88 405.227 69.2C405.76 69.4667 406.134 69.8667 406.347 70.4C406.56 70.9333 406.587 71.52 406.427 72.16C406.267 72.7467 405.84 73.2 405.147 73.52C403.12 74.48 400.987 75.2 398.747 75.68C396.507 76.16 393.787 76.32 390.587 76.16ZM389.547 39.28C386.934 39.28 384.48 40.24 382.187 42.16C379.947 44.0267 378.64 47.0133 378.267 51.12H399.307C399.254 48.88 398.934 47.0133 398.347 45.52C397.814 43.9733 397.094 42.7467 396.187 41.84C395.28 40.9333 394.24 40.2933 393.067 39.92C391.947 39.4933 390.774 39.28 389.547 39.28ZM419.658 76.08H411.338L425.578 59.28H425.178C423.578 59.3333 422.005 59.0933 420.458 58.56C418.911 57.9733 417.551 57.1733 416.378 56.16C415.205 55.0933 414.245 53.8667 413.498 52.48C412.805 51.04 412.458 49.44 412.458 47.68C412.458 45.92 412.831 44.32 413.578 42.88C414.378 41.3867 415.418 40.1333 416.698 39.12C417.925 38.1067 419.338 37.3333 420.938 36.8C422.538 36.2133 424.138 35.92 425.738 35.92H445.498V76.08H437.658V41.2H429.098C426.645 41.2 424.671 41.7867 423.178 42.96C421.685 44.1333 420.938 45.68 420.938 47.6C420.938 49.8933 421.711 51.6 423.258 52.72C424.805 53.84 426.671 54.4 428.858 54.4H432.778C433.578 54.4 434.138 54.5867 434.458 54.96C434.831 55.3333 435.071 55.76 435.178 56.24C435.231 56.72 435.178 57.2267 435.018 57.76C434.858 58.24 434.671 58.5867 434.458 58.8L419.658 76.08Z" fill="#2B98EF"/>
</g>
<g filter="url(#filter1_d)">
<path d="M23.01 136.43L11.735 124.55V136.43H6.345V116.3C6.345 115.823 6.32667 115.402 6.29 115.035C6.29 114.632 6.25333 114.265 6.18 113.935C6.14333 113.605 6.03333 113.33 5.85 113.11C5.70333 112.853 5.50167 112.615 5.245 112.395C4.98833 112.248 4.67667 112.138 4.31 112.065C3.98 111.955 3.65 111.9 3.32 111.9C2.77 111.9 2.33 111.735 2 111.405C1.63333 111.075 1.45 110.69 1.45 110.25C1.45 109.883 1.63333 109.553 2 109.26C2.33 108.967 2.67833 108.82 3.045 108.82H8.82C9.7 108.82 10.3967 109.15 10.91 109.81C11.46 110.433 11.735 111.02 11.735 111.57V119.435C12.725 119.142 13.5317 118.445 14.155 117.345C14.815 116.245 15.4933 115.09 16.19 113.88C16.85 112.633 17.6383 111.515 18.555 110.525C19.4717 109.498 20.7 108.93 22.24 108.82C24.33 108.71 26.035 109.315 27.355 110.635C28.675 111.918 29.335 113.587 29.335 115.64H24.11C24.11 114.98 24 114.467 23.78 114.1C23.56 113.733 23.175 113.55 22.625 113.55C22.185 113.55 21.7633 113.953 21.36 114.76C20.9567 115.53 20.4983 116.41 19.985 117.4C19.4717 118.39 18.885 119.343 18.225 120.26C17.565 121.177 16.7583 121.763 15.805 122.02L29.665 136.43H23.01ZM56.7993 108.82V136.43H51.4093V112.45H44.8093C43.7827 112.45 43.1227 112.615 42.8293 112.945C42.536 113.238 42.3893 113.733 42.3893 114.43V129.17C42.3893 129.793 42.316 130.545 42.1693 131.425C42.0227 132.268 41.6743 133.112 41.1243 133.955C40.5743 134.762 39.7493 135.44 38.6493 135.99C37.586 136.577 36.1193 136.87 34.2493 136.87C32.416 136.87 30.8027 136.375 29.4093 135.385C28.0527 134.432 27.2277 132.91 26.9343 130.82H32.5443C32.5443 131.517 32.6543 132.177 32.8743 132.8C33.0943 133.387 33.681 133.68 34.6343 133.68C35.5143 133.68 36.156 133.24 36.5593 132.36C36.9627 131.443 37.1643 130.178 37.1643 128.565V115.035C37.1643 114.045 36.926 113.238 36.4493 112.615C35.9727 111.992 35.1293 111.68 33.9193 111.68C33.626 111.68 33.296 111.552 32.9293 111.295C32.5627 111.038 32.3793 110.69 32.3793 110.25C32.3793 109.883 32.5443 109.553 32.8743 109.26C33.241 108.967 33.5527 108.82 33.8093 108.82H56.7993ZM83.0438 116.465L69.9538 136.43H64.7288V116.3C64.7288 115.823 64.7105 115.402 64.6738 115.035C64.6738 114.632 64.6371 114.265 64.5638 113.935C64.5271 113.605 64.4171 113.33 64.2338 113.11C64.0871 112.853 63.8855 112.615 63.6288 112.395C63.3721 112.248 63.0605 112.138 62.6938 112.065C62.3638 111.955 62.0338 111.9 61.7038 111.9C61.1538 111.9 60.7138 111.735 60.3838 111.405C60.0171 111.075 59.8338 110.69 59.8338 110.25C59.8338 109.883 60.0171 109.553 60.3838 109.26C60.7138 108.967 61.0621 108.82 61.4288 108.82H67.2038C68.0838 108.82 68.7805 109.15 69.2938 109.81C69.8438 110.433 70.1188 111.02 70.1188 111.57V129.06L83.2638 108.82H88.4338V136.43H83.0438V116.465ZM114.68 123.615H101.755V136.43H96.3645V116.3C96.3645 115.823 96.3462 115.402 96.3095 115.035C96.3095 114.632 96.2729 114.265 96.1995 113.935C96.1629 113.605 96.0529 113.33 95.8695 113.11C95.7229 112.853 95.5212 112.615 95.2645 112.395C95.0079 112.248 94.6962 112.138 94.3295 112.065C93.9995 111.955 93.6695 111.9 93.3395 111.9C92.7895 111.9 92.3679 111.735 92.0745 111.405C91.8179 111.075 91.6895 110.69 91.6895 110.25C91.6895 109.883 91.8545 109.553 92.1845 109.26C92.5512 108.967 92.9179 108.82 93.2845 108.82H98.8395C99.7195 108.82 100.416 109.15 100.93 109.81C101.48 110.433 101.755 111.02 101.755 111.57V119.82H114.68V108.82H120.07V136.43H114.68V123.615ZM146.315 116.465L133.225 136.43H128V116.3C128 115.823 127.982 115.402 127.945 115.035C127.945 114.632 127.909 114.265 127.835 113.935C127.799 113.605 127.689 113.33 127.505 113.11C127.359 112.853 127.157 112.615 126.9 112.395C126.644 112.248 126.332 112.138 125.965 112.065C125.635 111.955 125.305 111.9 124.975 111.9C124.425 111.9 123.985 111.735 123.655 111.405C123.289 111.075 123.105 110.69 123.105 110.25C123.105 109.883 123.289 109.553 123.655 109.26C123.985 108.967 124.334 108.82 124.7 108.82H130.475C131.355 108.82 132.052 109.15 132.565 109.81C133.115 110.433 133.39 111.02 133.39 111.57V129.06L146.535 108.82H151.705V136.43H146.315V116.465ZM177.951 123.615H165.026V136.43H159.636V116.3C159.636 115.823 159.618 115.402 159.581 115.035C159.581 114.632 159.544 114.265 159.471 113.935C159.434 113.605 159.324 113.33 159.141 113.11C158.994 112.853 158.793 112.615 158.536 112.395C158.279 112.248 157.968 112.138 157.601 112.065C157.271 111.955 156.941 111.9 156.611 111.9C156.061 111.9 155.639 111.735 155.346 111.405C155.089 111.075 154.961 110.69 154.961 110.25C154.961 109.883 155.126 109.553 155.456 109.26C155.823 108.967 156.189 108.82 156.556 108.82H162.111C162.991 108.82 163.688 109.15 164.201 109.81C164.751 110.433 165.026 111.02 165.026 111.57V119.82H177.951V108.82H183.341V136.43H177.951V123.615ZM196.772 116.08V136.43H191.437V116.795C191.437 115.255 191.198 114.118 190.722 113.385C190.282 112.615 189.42 112.138 188.137 111.955C187.623 111.955 187.238 111.808 186.982 111.515C186.762 111.185 186.633 110.818 186.597 110.415C186.597 110.048 186.743 109.7 187.037 109.37C187.33 109.003 187.678 108.82 188.082 108.82H212.392L212.667 116.355C212.667 116.795 212.502 117.143 212.172 117.4C211.878 117.62 211.548 117.748 211.182 117.785C210.778 117.822 210.393 117.748 210.027 117.565C209.697 117.382 209.477 117.033 209.367 116.52C209.147 115.567 208.89 114.833 208.597 114.32C208.303 113.77 207.973 113.367 207.607 113.11C207.203 112.853 206.763 112.688 206.287 112.615C205.847 112.542 205.333 112.505 204.747 112.505H199.577C198.917 112.505 198.458 112.542 198.202 112.615C197.945 112.652 197.67 112.78 197.377 113C197.157 113.183 196.992 113.495 196.882 113.935C196.808 114.375 196.772 115.09 196.772 116.08ZM228.759 136.98C226.742 136.98 224.891 136.668 223.204 136.045C221.517 135.422 220.051 134.505 218.804 133.295C217.594 132.085 216.641 130.6 215.944 128.84C215.284 127.08 214.954 125.063 214.954 122.79C214.954 120.883 215.229 119.05 215.779 117.29C216.329 115.53 217.172 113.99 218.309 112.67C219.446 111.313 220.876 110.25 222.599 109.48C224.322 108.673 226.339 108.27 228.649 108.27C230.776 108.27 232.701 108.618 234.424 109.315C236.147 110.012 237.614 111.002 238.824 112.285C239.997 113.532 240.914 115.053 241.574 116.85C242.234 118.61 242.564 120.572 242.564 122.735C242.564 127.025 241.336 130.472 238.879 133.075C236.422 135.678 233.049 136.98 228.759 136.98ZM220.784 122.79C220.784 124.183 220.912 125.522 221.169 126.805C221.462 128.088 221.921 129.207 222.544 130.16C223.167 131.15 223.992 131.938 225.019 132.525C226.046 133.112 227.311 133.405 228.814 133.405C230.207 133.405 231.399 133.112 232.389 132.525C233.379 131.938 234.186 131.15 234.809 130.16C235.432 129.17 235.891 128.033 236.184 126.75C236.477 125.467 236.624 124.128 236.624 122.735C236.624 121.378 236.477 120.058 236.184 118.775C235.891 117.455 235.432 116.282 234.809 115.255C234.186 114.265 233.361 113.458 232.334 112.835C231.307 112.175 230.061 111.845 228.594 111.845C227.164 111.845 225.936 112.157 224.909 112.78C223.919 113.367 223.131 114.173 222.544 115.2C221.921 116.19 221.462 117.345 221.169 118.665C220.912 119.985 220.784 121.36 220.784 122.79ZM245.496 108.82H260.621C261.575 108.82 262.62 108.93 263.756 109.15C264.93 109.333 266.011 109.7 267.001 110.25C267.991 110.763 268.816 111.497 269.476 112.45C270.173 113.367 270.521 114.558 270.521 116.025C270.521 117.785 270.063 119.105 269.146 119.985C268.266 120.865 267.423 121.415 266.616 121.635C267.093 121.745 267.625 121.965 268.211 122.295C268.835 122.625 269.421 123.083 269.971 123.67C270.485 124.257 270.925 124.972 271.291 125.815C271.658 126.622 271.841 127.575 271.841 128.675C271.841 130.252 271.456 131.553 270.686 132.58C269.916 133.607 268.963 134.395 267.826 134.945C266.653 135.532 265.388 135.935 264.031 136.155C262.711 136.375 261.465 136.467 260.291 136.43H248.796V114.98C248.76 114.43 248.668 113.953 248.521 113.55C248.375 113.11 248.1 112.725 247.696 112.395C247.44 112.248 247.128 112.138 246.761 112.065C246.431 111.955 246.101 111.9 245.771 111.9C245.221 111.9 244.8 111.735 244.506 111.405C244.213 111.075 244.066 110.69 244.066 110.25C244.066 109.883 244.213 109.553 244.506 109.26C244.8 108.967 245.13 108.82 245.496 108.82ZM259.741 123.725H254.131V131.92C254.131 132.25 254.168 132.47 254.241 132.58C254.315 132.653 254.626 132.69 255.176 132.69H260.291C260.951 132.653 261.63 132.562 262.326 132.415C263.023 132.268 263.646 132.048 264.196 131.755C264.746 131.462 265.205 131.077 265.571 130.6C265.938 130.087 266.121 129.445 266.121 128.675C266.121 127.685 265.938 126.878 265.571 126.255C265.205 125.632 264.728 125.118 264.141 124.715C263.518 124.348 262.821 124.092 262.051 123.945C261.318 123.798 260.548 123.725 259.741 123.725ZM254.131 113.77V120.26H259.741C260.951 120.26 262.088 120.003 263.151 119.49C264.215 118.94 264.746 117.877 264.746 116.3C264.746 114.98 264.306 114.027 263.426 113.44C262.583 112.817 261.501 112.505 260.181 112.505C259.998 112.505 259.631 112.523 259.081 112.56C258.531 112.56 257.945 112.56 257.321 112.56C256.698 112.56 256.13 112.56 255.616 112.56C255.14 112.56 254.883 112.56 254.846 112.56C254.663 112.633 254.516 112.688 254.406 112.725C254.333 112.725 254.278 112.762 254.241 112.835C254.168 112.945 254.131 113.073 254.131 113.22C254.131 113.33 254.131 113.513 254.131 113.77ZM293.039 136.43V133.46C292.049 134.56 290.802 135.422 289.299 136.045C287.796 136.705 285.834 137.035 283.414 137.035C281.214 137.072 279.417 136.32 278.024 134.78C276.631 133.24 275.934 131.425 275.934 129.335C275.934 127.502 276.411 125.962 277.364 124.715C278.317 123.468 279.527 122.46 280.994 121.69C282.461 120.92 284.037 120.37 285.724 120.04C287.411 119.673 288.987 119.472 290.454 119.435C290.674 119.435 290.931 119.435 291.224 119.435C291.517 119.435 291.792 119.435 292.049 119.435C292.306 119.435 292.526 119.435 292.709 119.435C292.892 119.398 293.002 119.38 293.039 119.38V117.95C293.039 117.29 292.947 116.593 292.764 115.86C292.581 115.127 292.287 114.448 291.884 113.825C291.444 113.238 290.857 112.743 290.124 112.34C289.391 111.937 288.474 111.735 287.374 111.735C285.724 111.735 284.441 112.193 283.524 113.11C282.607 113.99 282.149 115.2 282.149 116.74H276.264C276.264 115.823 276.466 114.87 276.869 113.88C277.309 112.853 278.006 111.937 278.959 111.13C279.876 110.287 281.049 109.608 282.479 109.095C283.909 108.545 285.614 108.27 287.594 108.27C291.004 108.27 293.662 109.168 295.569 110.965C297.476 112.762 298.429 115.145 298.429 118.115V136.43H293.039ZM293.039 126.475V122.845C292.306 122.845 291.407 122.882 290.344 122.955C289.281 123.028 288.236 123.175 287.209 123.395C285.706 123.762 284.422 124.348 283.359 125.155C282.296 125.962 281.764 127.172 281.764 128.785C281.764 129.152 281.801 129.573 281.874 130.05C281.984 130.527 282.186 130.967 282.479 131.37C282.772 131.81 283.176 132.177 283.689 132.47C284.202 132.727 284.881 132.855 285.724 132.855C286.641 132.855 287.521 132.708 288.364 132.415C289.244 132.085 290.032 131.645 290.729 131.095C291.426 130.508 291.976 129.83 292.379 129.06C292.819 128.29 293.039 127.428 293.039 126.475ZM308.798 136.43H303.078L312.868 124.88H312.593C311.493 124.917 310.411 124.752 309.348 124.385C308.285 123.982 307.35 123.432 306.543 122.735C305.736 122.002 305.076 121.158 304.563 120.205C304.086 119.215 303.848 118.115 303.848 116.905C303.848 115.695 304.105 114.595 304.618 113.605C305.168 112.578 305.883 111.717 306.763 111.02C307.606 110.323 308.578 109.792 309.678 109.425C310.778 109.022 311.878 108.82 312.978 108.82H326.563V136.43H321.173V112.45H315.288C313.601 112.45 312.245 112.853 311.218 113.66C310.191 114.467 309.678 115.53 309.678 116.85C309.678 118.427 310.21 119.6 311.273 120.37C312.336 121.14 313.62 121.525 315.123 121.525H317.818C318.368 121.525 318.753 121.653 318.973 121.91C319.23 122.167 319.395 122.46 319.468 122.79C319.505 123.12 319.468 123.468 319.358 123.835C319.248 124.165 319.12 124.403 318.973 124.55L308.798 136.43ZM369.284 136.43L358.009 124.55V136.43H352.619V116.3C352.619 115.823 352.601 115.402 352.564 115.035C352.564 114.632 352.528 114.265 352.454 113.935C352.418 113.605 352.308 113.33 352.124 113.11C351.978 112.853 351.776 112.615 351.519 112.395C351.263 112.248 350.951 112.138 350.584 112.065C350.254 111.955 349.924 111.9 349.594 111.9C349.044 111.9 348.604 111.735 348.274 111.405C347.908 111.075 347.724 110.69 347.724 110.25C347.724 109.883 347.908 109.553 348.274 109.26C348.604 108.967 348.953 108.82 349.319 108.82H355.094C355.974 108.82 356.671 109.15 357.184 109.81C357.734 110.433 358.009 111.02 358.009 111.57V119.435C358.999 119.142 359.806 118.445 360.429 117.345C361.089 116.245 361.768 115.09 362.464 113.88C363.124 112.633 363.913 111.515 364.829 110.525C365.746 109.498 366.974 108.93 368.514 108.82C370.604 108.71 372.309 109.315 373.629 110.635C374.949 111.918 375.609 113.587 375.609 115.64H370.384C370.384 114.98 370.274 114.467 370.054 114.1C369.834 113.733 369.449 113.55 368.899 113.55C368.459 113.55 368.038 113.953 367.634 114.76C367.231 115.53 366.773 116.41 366.259 117.4C365.746 118.39 365.159 119.343 364.499 120.26C363.839 121.177 363.033 121.763 362.079 122.02L375.939 136.43H369.284ZM390.644 136.98C388.627 136.98 386.775 136.668 385.089 136.045C383.402 135.422 381.935 134.505 380.689 133.295C379.479 132.085 378.525 130.6 377.829 128.84C377.169 127.08 376.839 125.063 376.839 122.79C376.839 120.883 377.114 119.05 377.664 117.29C378.214 115.53 379.057 113.99 380.194 112.67C381.33 111.313 382.76 110.25 384.484 109.48C386.207 108.673 388.224 108.27 390.534 108.27C392.66 108.27 394.585 108.618 396.309 109.315C398.032 110.012 399.499 111.002 400.709 112.285C401.882 113.532 402.799 115.053 403.459 116.85C404.119 118.61 404.449 120.572 404.449 122.735C404.449 127.025 403.22 130.472 400.764 133.075C398.307 135.678 394.934 136.98 390.644 136.98ZM382.669 122.79C382.669 124.183 382.797 125.522 383.054 126.805C383.347 128.088 383.805 129.207 384.429 130.16C385.052 131.15 385.877 131.938 386.904 132.525C387.93 133.112 389.195 133.405 390.699 133.405C392.092 133.405 393.284 133.112 394.274 132.525C395.264 131.938 396.07 131.15 396.694 130.16C397.317 129.17 397.775 128.033 398.069 126.75C398.362 125.467 398.509 124.128 398.509 122.735C398.509 121.378 398.362 120.058 398.069 118.775C397.775 117.455 397.317 116.282 396.694 115.255C396.07 114.265 395.245 113.458 394.219 112.835C393.192 112.175 391.945 111.845 390.479 111.845C389.049 111.845 387.82 112.157 386.794 112.78C385.804 113.367 385.015 114.173 384.429 115.2C383.805 116.19 383.347 117.345 383.054 118.665C382.797 119.985 382.669 121.36 382.669 122.79ZM425.531 129.28L432.186 108.82H439.886V136.43H434.496V114.705L427.951 134.505C427.731 135.092 427.401 135.55 426.961 135.88C426.521 136.247 425.953 136.43 425.256 136.43H423.166L416.071 114.705V136.43H410.681V116.3C410.681 115.823 410.663 115.402 410.626 115.035C410.626 114.632 410.589 114.265 410.516 113.935C410.479 113.605 410.369 113.33 410.186 113.11C410.039 112.853 409.838 112.615 409.581 112.395C409.324 112.212 408.994 112.065 408.591 111.955C408.224 111.845 407.876 111.79 407.546 111.79C406.996 111.79 406.593 111.643 406.336 111.35C406.116 111.057 406.006 110.69 406.006 110.25C406.006 109.883 406.153 109.553 406.446 109.26C406.739 108.967 407.088 108.82 407.491 108.82H418.876L425.531 129.28ZM443.583 108.82H470.643V136.43H465.253V112.505H454.418C453.392 112.505 452.75 112.707 452.493 113.11C452.273 113.513 452.163 114.32 452.163 115.53V136.43H446.938V116.63C446.938 114.907 446.7 113.715 446.223 113.055C445.747 112.358 444.903 111.9 443.693 111.68C443.18 111.68 442.813 111.552 442.593 111.295C442.373 111.002 442.245 110.653 442.208 110.25C442.208 109.883 442.337 109.553 442.593 109.26C442.887 108.967 443.217 108.82 443.583 108.82ZM493.972 136.43V133.46C492.982 134.56 491.735 135.422 490.232 136.045C488.728 136.705 486.767 137.035 484.347 137.035C482.147 137.072 480.35 136.32 478.957 134.78C477.563 133.24 476.867 131.425 476.867 129.335C476.867 127.502 477.343 125.962 478.297 124.715C479.25 123.468 480.46 122.46 481.927 121.69C483.393 120.92 484.97 120.37 486.657 120.04C488.343 119.673 489.92 119.472 491.387 119.435C491.607 119.435 491.863 119.435 492.157 119.435C492.45 119.435 492.725 119.435 492.982 119.435C493.238 119.435 493.458 119.435 493.642 119.435C493.825 119.398 493.935 119.38 493.972 119.38V117.95C493.972 117.29 493.88 116.593 493.697 115.86C493.513 115.127 493.22 114.448 492.817 113.825C492.377 113.238 491.79 112.743 491.057 112.34C490.323 111.937 489.407 111.735 488.307 111.735C486.657 111.735 485.373 112.193 484.457 113.11C483.54 113.99 483.082 115.2 483.082 116.74H477.197C477.197 115.823 477.398 114.87 477.802 113.88C478.242 112.853 478.938 111.937 479.892 111.13C480.808 110.287 481.982 109.608 483.412 109.095C484.842 108.545 486.547 108.27 488.527 108.27C491.937 108.27 494.595 109.168 496.502 110.965C498.408 112.762 499.362 115.145 499.362 118.115V136.43H493.972ZM493.972 126.475V122.845C493.238 122.845 492.34 122.882 491.277 122.955C490.213 123.028 489.168 123.175 488.142 123.395C486.638 123.762 485.355 124.348 484.292 125.155C483.228 125.962 482.697 127.172 482.697 128.785C482.697 129.152 482.733 129.573 482.807 130.05C482.917 130.527 483.118 130.967 483.412 131.37C483.705 131.81 484.108 132.177 484.622 132.47C485.135 132.727 485.813 132.855 486.657 132.855C487.573 132.855 488.453 132.708 489.297 132.415C490.177 132.085 490.965 131.645 491.662 131.095C492.358 130.508 492.908 129.83 493.312 129.06C493.752 128.29 493.972 127.428 493.972 126.475ZM525.461 123.615H512.536V136.43H507.146V116.3C507.146 115.823 507.127 115.402 507.091 115.035C507.091 114.632 507.054 114.265 506.981 113.935C506.944 113.605 506.834 113.33 506.651 113.11C506.504 112.853 506.302 112.615 506.046 112.395C505.789 112.248 505.477 112.138 505.111 112.065C504.781 111.955 504.451 111.9 504.121 111.9C503.571 111.9 503.149 111.735 502.856 111.405C502.599 111.075 502.471 110.69 502.471 110.25C502.471 109.883 502.636 109.553 502.966 109.26C503.332 108.967 503.699 108.82 504.066 108.82H509.621C510.501 108.82 511.197 109.15 511.711 109.81C512.261 110.433 512.536 111.02 512.536 111.57V119.82H525.461V108.82H530.851V136.43H525.461V123.615ZM557.097 116.465L544.007 136.43H538.782V116.3C538.782 115.823 538.763 115.402 538.727 115.035C538.727 114.632 538.69 114.265 538.617 113.935C538.58 113.605 538.47 113.33 538.287 113.11C538.14 112.853 537.938 112.615 537.682 112.395C537.425 112.248 537.113 112.138 536.747 112.065C536.417 111.955 536.087 111.9 535.757 111.9C535.207 111.9 534.767 111.735 534.437 111.405C534.07 111.075 533.887 110.69 533.887 110.25C533.887 109.883 534.07 109.553 534.437 109.26C534.767 108.967 535.115 108.82 535.482 108.82H541.257C542.137 108.82 542.833 109.15 543.347 109.81C543.897 110.433 544.172 111.02 544.172 111.57V129.06L557.317 108.82H562.487V136.43H557.097V116.465ZM573.002 136.43H567.282L577.072 124.88H576.797C575.697 124.917 574.616 124.752 573.552 124.385C572.489 123.982 571.554 123.432 570.747 122.735C569.941 122.002 569.281 121.158 568.767 120.205C568.291 119.215 568.052 118.115 568.052 116.905C568.052 115.695 568.309 114.595 568.822 113.605C569.372 112.578 570.087 111.717 570.967 111.02C571.811 110.323 572.782 109.792 573.882 109.425C574.982 109.022 576.082 108.82 577.182 108.82H590.767V136.43H585.377V112.45H579.492C577.806 112.45 576.449 112.853 575.422 113.66C574.396 114.467 573.882 115.53 573.882 116.85C573.882 118.427 574.414 119.6 575.477 120.37C576.541 121.14 577.824 121.525 579.327 121.525H582.022C582.572 121.525 582.957 121.653 583.177 121.91C583.434 122.167 583.599 122.46 583.672 122.79C583.709 123.12 583.672 123.468 583.562 123.835C583.452 124.165 583.324 124.403 583.177 124.55L573.002 136.43Z" fill="#F3E53D"/>
</g>
</g>
<defs>
<filter id="filter0_d" x="-1.28" y="17.6" width="450.778" height="80.24" filterUnits="userSpaceOnUse" color-interpolation-filters="sRGB">
<feFlood flood-opacity="0" result="BackgroundImageFix"/>
<feColorMatrix in="SourceAlpha" type="matrix" values="0 0 0 0 0 0 0 0 0 0 0 0 0 0 0 0 0 0 127 0"/>
<feOffset dy="4"/>
<feGaussianBlur stdDeviation="2"/>
<feColorMatrix type="matrix" values="0 0 0 0 0 0 0 0 0 0 0 0 0 0 0 0 0 0 0.3 0"/>
<feBlend mode="normal" in2="BackgroundImageFix" result="effect1_dropShadow"/>
<feBlend mode="normal" in="SourceGraphic" in2="effect1_dropShadow" result="shape"/>
</filter>
<filter id="filter1_d" x="-2.54999" y="108.27" width="597.317" height="36.7663" filterUnits="userSpaceOnUse" color-interpolation-filters="sRGB">
<feFlood flood-opacity="0" result="BackgroundImageFix"/>
<feColorMatrix in="SourceAlpha" type="matrix" values="0 0 0 0 0 0 0 0 0 0 0 0 0 0 0 0 0 0 127 0"/>
<feOffset dy="4"/>
<feGaussianBlur stdDeviation="2"/>
<feColorMatrix type="matrix" values="0 0 0 0 0 0 0 0 0 0 0 0 0 0 0 0 0 0 0.3 0"/>
<feBlend mode="normal" in2="BackgroundImageFix" result="effect1_dropShadow"/>
<feBlend mode="normal" in="SourceGraphic" in2="effect1_dropShadow" result="shape"/>
</filter>
<clipPath id="clip0">
<rect width="600" height="150" fill="white"/>
</clipPath>
</defs>
</svg>
