<svg width="485" height="487" viewBox="0 0 485 487" fill="none" xmlns="http://www.w3.org/2000/svg">
<path d="M351.649 1.96305C332.097 6.13917 314.728 22.9386 309.413 42.7752C307.61 49.5139 307.325 63.0863 308.938 69.92C313.589 90.0413 330.009 106.841 350.225 111.966C357.344 113.769 371.39 113.769 378.224 111.966C393.695 107.885 407.267 96.875 414.196 82.9229C425.68 59.5746 421.979 35.467 403.945 17.4337C389.803 3.29181 371.106 -2.21308 351.649 1.96305ZM377.56 19.0472C391.227 23.8877 401.572 36.4161 403.85 51.0325C406.982 70.8691 395.213 89.3769 375.472 95.831C367.594 98.3936 355.825 97.5394 347.757 93.7429C336.937 88.7126 329.25 80.0756 325.548 68.876C322.985 60.9034 323.84 48.2801 327.541 40.3075C332.761 29.2028 343.297 20.6607 354.971 17.9083C361.52 16.4846 371.58 16.9591 377.56 19.0472Z" fill="url(#paint0_linear_102_25)"/>
<path d="M358.577 33.6637C348.232 36.1314 340.259 45.8124 340.259 56.0629C340.259 66.9778 354.116 68.3065 355.92 57.4866C356.679 52.9308 359.147 50.1783 363.228 49.3241C370.157 47.9005 373.289 43.7243 371.485 38.4093C370.441 35.467 366.36 32.6196 363.323 32.8095C362.374 32.9044 360.286 33.1891 358.577 33.6637Z" fill="url(#paint1_linear_102_25)"/>
<path d="M257.591 107.315C247.53 110.353 238.134 120.128 235.761 129.904C232.155 144.995 238.988 159.991 252.75 166.73C258.445 169.578 259.964 169.862 267.177 169.862C273.916 169.862 276.099 169.483 280.465 167.395C293.373 161.32 301.156 146.514 298.688 132.942C296.22 120.128 287.488 110.353 275.434 107.126C269.265 105.512 263.191 105.512 257.591 107.315ZM273.251 123.261C274.96 123.925 277.712 126.203 279.326 128.101C290.241 141.389 274.96 160.181 259.584 152.304C254.269 149.646 251.706 145.47 251.327 139.111C250.852 132.087 253.605 127.057 259.584 124.02C264.425 121.647 268.696 121.362 273.251 123.261Z" fill="url(#paint2_linear_102_25)"/>
<path d="M66.2485 181.726C35.8767 184.858 15.4706 200.804 6.07436 228.613C0.0949119 246.646 0 247.5 0 332.636C0 415.399 0.189824 418.532 4.84051 434.951C11.1996 456.971 23.3483 471.397 42.8053 480.034C52.771 484.4 61.0284 485.824 78.3024 485.824C104.878 485.919 118.925 482.977 190.298 462.191C214.881 455.073 233.009 451.276 242.5 451.276C254.269 451.276 269.075 454.598 309.887 466.462C353.167 479.085 371.865 483.356 392.935 485.539C437.259 490 467.062 473.77 478.831 438.653C484.905 420.714 485 418.911 485 332.636C485 248.07 485 247.215 479.685 230.131C469.245 196.248 441.72 178.974 401.478 181.062C379.838 182.201 356.584 187.136 315.108 199.285C265.753 213.806 253.51 216.369 239.178 215.61C227.409 214.945 214.406 212.098 184.604 203.461C171.791 199.759 156.225 195.299 149.866 193.59C114.559 183.814 85.9902 179.733 66.2485 181.726ZM108.2 200.614C124.619 203.746 135.25 206.498 172.36 217.223C217.348 230.131 227.314 232.219 242.025 232.314C258.445 232.409 267.082 230.511 314.443 216.749C367.784 201.183 381.831 198.336 406.698 198.336C423.402 198.336 424.636 198.526 431.66 200.993C453.679 208.681 464.689 224.911 468.39 254.808C469.624 264.964 469.624 328.555 468.39 339.28C464.784 370.981 451.401 389.109 427.483 394.709C405.179 400.024 379.648 396.512 322.226 380.092C280.18 368.133 273.631 366.33 261.198 363.957C238.893 359.781 224.467 361.964 170.367 378.004C142.178 386.356 121.013 391.766 105.827 394.424C90.0714 397.271 67.6722 397.461 57.8963 394.898C42.5205 390.912 31.3209 381.99 24.772 368.513C16.9892 352.758 15.1859 336.053 15.9452 288.028C16.4198 253.669 17.1791 246.361 21.3552 233.928C27.5245 215.61 40.8121 203.461 59.32 199.285C68.3366 197.292 94.5323 197.956 108.2 200.614ZM261.482 381.136C272.872 383.414 283.027 386.072 312.925 394.804C339.215 402.396 360.95 407.712 376.895 410.559C394.739 413.786 421.029 413.786 431.754 410.654C443.808 407.142 455.008 400.878 462.696 393.285L469.34 386.641V395.468C469.245 449.947 445.612 473.865 396.352 469.404C378.319 467.791 359.621 463.52 319.853 452.225C270.879 438.178 261.198 435.995 246.296 435.426C228.263 434.667 218.203 436.85 156.13 455.073C100.132 471.587 65.4892 473.96 44.7984 462.95C33.1243 456.686 23.6331 443.304 19.4569 427.074C17.6536 420.05 15.6605 401.163 15.6605 391.102V386.261L20.0264 391.292C37.8699 411.698 67.0078 417.867 110.193 410.559C125.094 407.996 144.836 402.966 178.434 393.095C229.592 378.099 238.893 376.77 261.482 381.136Z" fill="url(#paint3_linear_102_25)"/>
<path d="M59.3199 227.948C53.3404 230.131 44.9882 238.673 42.9001 244.748C39.6731 254.334 42.0459 267.337 48.0254 272.367C51.8218 275.499 55.0488 275.404 58.4657 271.988C61.7876 268.666 61.8825 266.483 59.225 261.263C54.0997 251.107 61.6927 240.572 72.3228 242.85C73.8414 243.229 76.7837 244.938 78.8717 246.741C81.4344 249.019 83.5224 250.063 85.7054 250.063C89.6917 250.063 93.4882 246.456 93.4882 242.66C93.4882 237.44 85.2308 229.467 77.4481 227.284C72.5126 225.955 64.2553 226.24 59.3199 227.948Z" fill="url(#paint4_linear_102_25)"/>
<path d="M328.585 240.002C320.707 242.185 313.874 249.114 311.691 257.086C309.413 265.439 312.83 277.113 318.429 279.96C325.738 283.757 332.571 275.499 328.395 268.096C326.307 264.489 326.687 260.693 329.344 258.13C332.571 254.808 337.127 254.998 341.683 258.605C345.954 262.022 349.75 262.212 352.977 259.269C360.286 252.72 351.269 241.141 337.412 239.338C335.039 239.053 331.148 239.338 328.585 240.002Z" fill="url(#paint5_linear_102_25)"/>
<path d="M170.177 241.426C168.279 241.806 163.913 243.514 160.496 245.222C142.463 254.049 134.68 276.543 143.222 295.146C146.449 302.17 149.486 305.112 153.662 305.112C156.13 305.112 157.459 304.447 159.357 302.17C162.489 298.468 162.489 297.709 158.882 290.306C150.91 273.791 160.496 257.276 177.96 257.276C185.078 257.276 188.02 258.51 195.044 264.774C198.081 267.432 200.738 269.045 202.257 269.045C205.294 269.045 210.23 264.3 210.23 261.262C210.23 258.13 207.287 253.67 202.542 249.873C192.861 241.995 181.946 239.148 170.177 241.426Z" fill="url(#paint6_linear_102_25)"/>
<path d="M406.793 251.012C395.973 256.042 390.468 264.015 389.803 275.689C389.424 281.669 389.803 283.757 391.512 287.743C394.169 294.102 397.302 296.949 401.478 296.949C408.027 296.949 411.064 290.875 407.742 284.326C400.529 270.184 415.335 258.7 426.914 269.425C432.039 274.17 438.019 273.886 440.581 268.666C442.48 264.489 441.72 261.737 437.544 257.371C432.134 251.866 427.294 249.778 418.562 249.398C412.393 249.114 410.21 249.398 406.793 251.012Z" fill="url(#paint7_linear_102_25)"/>
<path d="M232.534 299.797C229.972 301.031 226.65 303.214 225.226 304.732C216.779 313.749 216.684 330.643 224.941 337.192C228.548 340.039 231.68 339.85 235.002 336.528C238.039 333.491 238.419 330.643 236.331 326.942C231.395 318.21 240.412 309.668 247.91 315.932C253.889 320.867 256.927 321.152 261.293 317.166C268.506 310.522 256.167 297.519 242.5 297.519C238.988 297.519 235.761 298.278 232.534 299.797Z" fill="url(#paint8_linear_102_25)"/>
<path d="M350.889 321.531C346.523 322.86 339.785 329.124 337.507 333.965C333.52 342.222 335.419 354.656 341.398 359.686C345.1 362.818 348.327 362.723 351.744 359.306C354.781 356.269 355.16 353.422 353.072 349.72C350.794 345.734 351.269 340.704 354.116 338.426C357.628 335.673 361.235 335.958 365.411 339.28C369.967 342.887 374.522 343.076 377.749 339.755C381.071 336.528 380.882 332.541 377.085 328.27C371.011 321.437 360.001 318.589 350.889 321.531Z" fill="url(#paint9_linear_102_25)"/>
<path d="M95.1018 322.386C83.9022 324.758 76.4041 334.155 76.2143 345.734C76.0245 358.167 83.9022 366.71 91.3053 362.154C95.0069 359.876 96.0509 355.7 94.0577 351.713C88.8376 341.653 97.8542 334.155 106.776 341.178C111.332 344.785 115.413 344.975 118.64 341.653C127.182 333.206 110.098 319.064 95.1018 322.386Z" fill="url(#paint10_linear_102_25)"/>
<defs>
<linearGradient id="paint0_linear_102_25" x1="364.318" y1="113.318" x2="364.318" y2="0.601288" gradientUnits="userSpaceOnUse">
<stop stop-color="#05828A"/>
<stop offset="1" stop-color="#39BFB7"/>
</linearGradient>
<linearGradient id="paint1_linear_102_25" x1="356.123" y1="64.9579" x2="356.123" y2="32.8005" gradientUnits="userSpaceOnUse">
<stop stop-color="#05828A"/>
<stop offset="1" stop-color="#39BFB7"/>
</linearGradient>
<linearGradient id="paint2_linear_102_25" x1="266.975" y1="169.862" x2="266.975" y2="105.938" gradientUnits="userSpaceOnUse">
<stop stop-color="#05828A"/>
<stop offset="1" stop-color="#39BFB7"/>
</linearGradient>
<linearGradient id="paint3_linear_102_25" x1="242.5" y1="486.263" x2="242.5" y2="180.893" gradientUnits="userSpaceOnUse">
<stop stop-color="#05828A"/>
<stop offset="1" stop-color="#39BFB7"/>
</linearGradient>
<linearGradient id="paint4_linear_102_25" x1="67.4709" y1="274.636" x2="67.4709" y2="226.45" gradientUnits="userSpaceOnUse">
<stop stop-color="#05828A"/>
<stop offset="1" stop-color="#39BFB7"/>
</linearGradient>
<linearGradient id="paint5_linear_102_25" x1="333.277" y1="280.915" x2="333.277" y2="239.228" gradientUnits="userSpaceOnUse">
<stop stop-color="#05828A"/>
<stop offset="1" stop-color="#39BFB7"/>
</linearGradient>
<linearGradient id="paint6_linear_102_25" x1="174.991" y1="305.112" x2="174.991" y2="240.666" gradientUnits="userSpaceOnUse">
<stop stop-color="#05828A"/>
<stop offset="1" stop-color="#39BFB7"/>
</linearGradient>
<linearGradient id="paint7_linear_102_25" x1="415.618" y1="296.949" x2="415.618" y2="249.301" gradientUnits="userSpaceOnUse">
<stop stop-color="#05828A"/>
<stop offset="1" stop-color="#39BFB7"/>
</linearGradient>
<linearGradient id="paint8_linear_102_25" x1="241.12" y1="339.184" x2="241.12" y2="297.519" gradientUnits="userSpaceOnUse">
<stop stop-color="#05828A"/>
<stop offset="1" stop-color="#39BFB7"/>
</linearGradient>
<linearGradient id="paint9_linear_102_25" x1="357.751" y1="361.955" x2="357.751" y2="320.379" gradientUnits="userSpaceOnUse">
<stop stop-color="#05828A"/>
<stop offset="1" stop-color="#39BFB7"/>
</linearGradient>
<linearGradient id="paint10_linear_102_25" x1="98.568" y1="363.396" x2="98.568" y2="321.89" gradientUnits="userSpaceOnUse">
<stop stop-color="#05828A"/>
<stop offset="1" stop-color="#39BFB7"/>
</linearGradient>
</defs>
</svg>
