<svg width="485" height="512" viewBox="0 0 485 512" fill="none" xmlns="http://www.w3.org/2000/svg">
<g clip-path="url(#clip0_2_172)">
<path d="M424.303 2.00004C412.267 6.00004 410.94 7.40004 364.596 61C340.618 88.8 320.715 111.4 320.431 111.2C302.898 103.2 284.417 103.3 268.495 111.5C260.723 115.6 247.55 127.9 245.086 133.5C244.233 135.4 243.38 137 243.285 137C243.19 137 231.817 140.1 218.075 144C190.211 151.7 189.548 152.1 185.378 161.5C181.966 169.3 180.734 176.6 180.829 188.5C180.924 206.4 185.378 224.5 194.381 243.3C201.11 257.6 208.408 268 220.255 280.5C234.66 295.6 250.393 306.3 269.063 313.7C283.848 319.6 305.457 322.8 317.777 321C325.264 319.8 336.543 314.6 340.049 310.7C341.66 308.9 343.651 302.3 347.916 285.4C351.043 272.8 353.981 260.8 354.55 258.8C355.213 255.9 356.35 254.5 359.004 253.1C363.364 250.8 372.841 240.3 377.106 233.3C386.394 217.8 388.194 196.2 381.56 178.9L379.475 173.4L426.862 127.9C477.566 79.3 479.652 77 483.348 64.2C485.717 56.2 485.907 42.7 483.727 34.9C479.367 19.2 467.047 6.20004 452.167 1.60004C445.059 -0.599956 431.411 -0.399956 424.303 2.00004ZM448.85 19.7C452.072 20.8 455.2 23.2 459.275 27.4C466.573 35.1 468.658 40.8 467.994 51.4C467.236 64.4 467.52 64 416.532 112.9C391.512 136.9 370.472 157 369.714 157.4C368.197 158.4 335.216 124.2 335.879 122.3C336.164 121.6 355.118 99.3 377.959 72.8C418.712 25.6 422.787 21.3 430.085 19C434.539 17.6 443.922 17.9 448.85 19.7ZM308.3 126C315.692 128.9 319.673 132.5 342.324 156.7C358.151 173.5 362.511 178.8 364.406 183.3C371.704 200.1 368.955 217.1 356.729 230.8L351.706 236.5L306.404 188.8L261.102 141L265.178 136.7C276.835 124.2 293.326 120.1 308.3 126ZM334.458 267.9C325.738 303.1 327.16 299.3 321.758 301.2C315.029 303.6 291.904 303.4 289.535 300.8C289.25 300.6 290.862 293.6 292.947 285.4C295.126 277.2 296.832 268.9 296.832 267C296.832 260.2 288.492 256.5 283.185 261C281.289 262.5 280.057 266 276.74 279C274.466 287.8 272.191 295 271.717 295C269.632 295 251.815 284.5 245.275 279.3L237.978 273.5L252.573 257.9C265.462 244.2 267.263 242 267.263 239.1C267.263 235 262.808 230 259.207 230C255.132 230 253.236 231.6 239.21 246.2L225.846 260.2L222.529 255.8C217.127 248.8 213.621 242.9 209.166 233.4L204.901 224.5L220.16 220.2C232.196 216.8 235.987 215.3 237.693 213.4C241.769 208.6 239.304 199.9 233.428 198.7C232.007 198.4 224.52 200 215.706 202.5C207.366 204.9 200.352 206.7 200.163 206.5C199.12 205.4 197.983 195.6 197.983 187.5C197.983 177.7 200.068 168.3 202.437 167.3C203.195 167 214 163.9 226.32 160.5L248.782 154.2L293.894 201.7L339.102 249.3L334.458 267.9Z" fill="url(#paint0_linear_2_172)"/>
<path d="M60.9396 9.00012C58.0964 10.2001 55.6322 15.5001 56.3904 18.9001C56.6747 20.5001 60.2762 25.1001 64.9201 30.0001C72.4072 37.9001 73.2602 38.5001 76.8616 38.5001C79.9892 38.5001 81.2212 37.9001 83.0219 35.7001C87.2868 30.4001 85.7704 25.8001 76.5773 16.4001C68.4267 8.00012 66.0574 6.90012 60.9396 9.00012Z" fill="url(#paint1_linear_2_172)"/>
<path d="M109.464 8.99995C108.421 9.39995 104.251 13.4 100.271 17.8C93.9209 24.7 92.8784 26.3 92.8784 29.3C92.8784 34.3 93.6366 35.8 96.8589 37.6C101.882 40.4 105.01 38.9 113.539 29.6C120.268 22.3 121.311 20.8 121.311 17.7C121.311 12.8 120.552 11.2 117.425 9.49995C114.487 7.79995 112.307 7.69995 109.464 8.99995Z" fill="url(#paint2_linear_2_172)"/>
<path d="M245.086 9.69997C238.831 12 231.154 19.6 228.405 26.2C225.562 33.1 225.467 43.8 228.216 50.3C230.964 56.8 237.03 63.4 242.906 66.1C248.687 68.7 258.923 69.2 264.704 67.1C270.201 65.1 276.93 58.9 280.057 52.9C282.616 48 282.901 46.6 282.901 38.5C282.901 28.6 281.479 24.5 275.698 17.6C269.063 9.59997 255.132 5.99997 245.086 9.69997ZM259.207 27.4C262.998 29.1 266.315 34.2 266.315 38.5C266.315 42.9 262.998 47.9 259.017 49.7C248.403 54.3 238.736 40.3 246.128 31C250.109 26 253.71 25 259.207 27.4Z" fill="url(#paint3_linear_2_172)"/>
<path d="M74.3027 46.7C73.2602 46.9 68.9006 50.8 64.6357 55.3C55.2531 65.2 54.1158 68.6 58.2859 73.8C60.3709 76.4 61.5082 77 64.7305 77C68.3319 77 69.1849 76.4 76.9564 68.2C84.3488 60.3 85.2965 59 85.2965 55.7C85.2965 49.6 80.1787 45.4 74.3027 46.7Z" fill="url(#paint4_linear_2_172)"/>
<path d="M94.8687 49.6C93.7314 51.2 92.8784 53.7 92.8784 55.8C92.8784 59 93.8262 60.4 101.219 68.2C108.706 76.1 109.938 77 113.16 77C118.183 77 121.311 73.5 121.311 67.9C121.311 63.9 120.837 63.1 113.444 55.3C105.862 47.3 105.389 47 101.219 47C97.6171 47 96.4798 47.5 94.8687 49.6Z" fill="url(#paint5_linear_2_172)"/>
<path d="M171.92 54C168.887 55.3 9.66685 179.6 5.49679 183.9C-5.97088 195.7 2.08492 213.9 18.7652 214H23.6934V354.2C23.6934 434.8 24.0725 496.2 24.6412 498.4C25.6837 503.2 28.053 506.8 32.2231 509.8L35.3506 512H177.891C337.68 512 324.696 512.6 329.624 504.7L332.183 500.6V420.9C332.183 344.2 332.088 341.1 330.382 339.1C326.781 335 317.872 335.8 316.166 340.5C315.882 341.4 315.598 376.3 315.598 418.1V494H303.751H291.904V453.2C291.904 408.7 291.525 405.1 286.312 394.2C274.087 368.7 243.664 359.2 218.644 373.2C212.294 376.8 202.911 386.9 199.594 393.8C194.382 404.6 194.287 406 194.287 451.7V494H117.994H41.7005V354V214H100.366C135.527 214 160.073 213.6 161.495 213C166.802 210.9 168.034 202.5 163.58 198.1C161.495 196 161.305 196 90.13 195.8L18.8599 195.5L98.5649 133.3L178.27 71.1L200.731 88.7C232.955 114.1 232.86 114 237.03 114C239.778 114 241.105 113.4 243.001 110.9C245.844 107.3 246.128 104.5 243.759 100.8C241.958 97.8 188.316 55.6 184.335 54C181.303 52.8 174.669 52.8 171.92 54ZM254.374 387C261.576 389.9 267.547 395.8 271.243 403.8L274.371 410.5L274.655 452.2L274.94 494H243.095H211.346V453C211.346 414.3 211.441 411.8 213.242 406.6C216.464 397.7 224.235 389.7 233.049 386.4C238.357 384.4 248.403 384.7 254.374 387Z" fill="url(#paint6_linear_2_172)"/>
<path d="M245.654 428.5L242.622 431.2V443.6C242.622 455.5 242.716 456.2 244.991 458.5C246.602 460.3 248.308 461 250.867 461C257.975 460.9 259.681 457.5 259.681 443.1C259.681 433.1 259.491 431.9 257.596 429.5C256.269 428 253.994 426.7 252.004 426.4C249.351 425.9 248.118 426.3 245.654 428.5Z" fill="url(#paint7_linear_2_172)"/>
<path d="M434.065 204.7C433.307 205 431.696 206.2 430.559 207.3C428.474 209.2 428.379 210.2 428.379 221.7C428.379 233.5 428.474 234.2 430.748 236.5C433.686 239.7 439.846 239.9 442.595 237C445.249 234.2 445.628 231.5 445.249 219.6C445.059 210.7 444.68 208.7 443.069 207C441.079 204.9 436.435 203.7 434.065 204.7Z" fill="url(#paint8_linear_2_172)"/>
<path d="M69.3745 239.5C67.6686 240.3 65.8679 242.1 65.394 243.5C64.8254 245.1 64.4463 263.7 64.4463 291V335.9L66.7209 338.7L68.9954 341.5L111.549 341.8C134.863 341.9 154.956 341.8 156.188 341.5C157.325 341.2 159.126 340.1 160.168 339C161.969 337.1 162.064 335.5 162.064 290.2V243.3L159.599 240.9L157.135 238.5L114.866 238.3C79.7049 238.1 71.9334 238.3 69.3745 239.5ZM105.199 268.5V281H93.3524H81.5056V268.5V256H93.3524H105.199V268.5ZM145.004 268.5V281H133.631H122.258V268.5V256H133.631H145.004V268.5ZM105.199 311.5V324H93.3524H81.5056V311.5V299H93.3524H105.199V311.5ZM145.004 311.5V324H133.631H122.258V311.5V299H133.631H145.004V311.5Z" fill="url(#paint9_linear_2_172)"/>
<path d="M402.316 238.7C396.25 240.3 393.881 249.4 398.335 253.8C400.326 255.8 401.558 256 412.552 256C423.261 256 424.777 255.8 426.483 254C430.843 249.4 429.516 241.8 424.019 239.4C420.986 238.1 406.676 237.6 402.316 238.7Z" fill="url(#paint10_linear_2_172)"/>
<path d="M450.461 238.7C444.869 239.8 442.595 249.1 446.86 253.5C449.039 255.9 449.703 256 460.791 256C474.155 256 476.24 255.2 477.282 249.4C478.704 241.2 473.965 237.9 460.886 238.1C456.337 238.2 451.598 238.5 450.461 238.7Z" fill="url(#paint11_linear_2_172)"/>
<path d="M430.369 258.6C428.568 261 428.379 262.6 428.379 273C428.379 283.2 428.663 285.1 430.274 287.3C432.738 290.6 436.15 291.4 440.226 289.6C444.585 287.6 445.438 285 445.438 272.9C445.438 258.8 443.827 256 435.961 256C433.117 256 431.885 256.6 430.369 258.6Z" fill="url(#paint12_linear_2_172)"/>
<path d="M384.309 299.3C378.148 301.5 374.926 303.6 371.23 307.9C365.259 314.9 364.406 317.4 364.406 328.5C364.406 339.6 365.259 342.1 371.23 349.1C376.822 355.7 382.887 358.4 391.891 358.4C397.672 358.5 400.515 358 403.832 356.4C409.803 353.4 414.826 348.5 417.764 342.6C419.944 338.2 420.323 336.3 420.323 328.5C420.323 318.6 418.901 314.5 413.12 307.6C406.96 300.2 393.123 296.2 384.309 299.3ZM396.629 317.4C400.515 319.1 403.738 324.2 403.738 328.6C403.738 335.4 395.966 342.2 389.9 340.6C388.479 340.2 385.92 338.4 384.119 336.5C381.56 333.8 380.992 332.5 380.992 328.7C380.992 323.5 383.551 319.5 388.005 317.4C391.796 315.7 392.649 315.7 396.629 317.4Z" fill="url(#paint13_linear_2_172)"/>
<path d="M69.3745 367.5C67.6686 368.3 65.8679 370.1 65.394 371.5C64.8254 373.1 64.4463 391.7 64.4463 419V463.9L66.7209 466.7L68.9954 469.5L111.549 469.8C134.863 469.9 154.956 469.8 156.188 469.5C157.325 469.2 159.126 468.1 160.168 467C161.969 465.1 162.064 463.5 162.064 418.2V371.3L159.599 368.9L157.135 366.5L114.866 366.3C79.7049 366.1 71.9334 366.3 69.3745 367.5ZM105.199 396.5V409H93.3524H81.5056V396.5V384H93.3524H105.199V396.5ZM145.004 396.5V409H133.631H122.258V396.5V384H133.631H145.004V396.5ZM105.199 439.5V452H93.3524H81.5056V439.5V427H93.3524H105.199V439.5ZM145.004 439.5V452H133.631H122.258V439.5V427H133.631H145.004V439.5Z" fill="url(#paint14_linear_2_172)"/>
</g>
<defs>
<linearGradient id="paint0_linear_2_172" x1="333.037" y1="321.5" x2="311.245" y2="22.6302" gradientUnits="userSpaceOnUse">
<stop stop-color="#05828A"/>
<stop offset="0.908954" stop-color="#39BFB7"/>
</linearGradient>
<linearGradient id="paint1_linear_2_172" x1="70.7729" y1="38.5001" x2="68.7266" y2="10.2117" gradientUnits="userSpaceOnUse">
<stop stop-color="#05828A"/>
<stop offset="0.908954" stop-color="#39BFB7"/>
</linearGradient>
<linearGradient id="paint2_linear_2_172" x1="107.095" y1="38.8657" x2="104.959" y2="10.2797" gradientUnits="userSpaceOnUse">
<stop stop-color="#05828A"/>
<stop offset="0.908954" stop-color="#39BFB7"/>
</linearGradient>
<linearGradient id="paint3_linear_2_172" x1="254.556" y1="68.4071" x2="250.457" y2="12.4685" gradientUnits="userSpaceOnUse">
<stop stop-color="#05828A"/>
<stop offset="0.908954" stop-color="#39BFB7"/>
</linearGradient>
<linearGradient id="paint4_linear_2_172" x1="70.6396" y1="77" x2="68.5968" y2="48.6027" gradientUnits="userSpaceOnUse">
<stop stop-color="#05828A"/>
<stop offset="0.908954" stop-color="#39BFB7"/>
</linearGradient>
<linearGradient id="paint5_linear_2_172" x1="107.095" y1="77" x2="105.062" y2="49.1056" gradientUnits="userSpaceOnUse">
<stop stop-color="#05828A"/>
<stop offset="0.908954" stop-color="#39BFB7"/>
</linearGradient>
<linearGradient id="paint6_linear_2_172" x1="166.156" y1="512.01" x2="125.585" y2="86.9159" gradientUnits="userSpaceOnUse">
<stop stop-color="#05828A"/>
<stop offset="0.908954" stop-color="#39BFB7"/>
</linearGradient>
<linearGradient id="paint7_linear_2_172" x1="251.151" y1="461" x2="246.66" y2="429.111" gradientUnits="userSpaceOnUse">
<stop stop-color="#05828A"/>
<stop offset="0.908954" stop-color="#39BFB7"/>
</linearGradient>
<linearGradient id="paint8_linear_2_172" x1="436.876" y1="239.045" x2="432.391" y2="207.239" gradientUnits="userSpaceOnUse">
<stop stop-color="#05828A"/>
<stop offset="0.908954" stop-color="#39BFB7"/>
</linearGradient>
<linearGradient id="paint9_linear_2_172" x1="113.255" y1="341.838" x2="106.195" y2="245.51" gradientUnits="userSpaceOnUse">
<stop stop-color="#05828A"/>
<stop offset="0.908954" stop-color="#39BFB7"/>
</linearGradient>
<linearGradient id="paint10_linear_2_172" x1="412.557" y1="256" x2="411.932" y2="239.287" gradientUnits="userSpaceOnUse">
<stop stop-color="#05828A"/>
<stop offset="0.908954" stop-color="#39BFB7"/>
</linearGradient>
<linearGradient id="paint11_linear_2_172" x1="461.085" y1="256" x2="460.457" y2="239.284" gradientUnits="userSpaceOnUse">
<stop stop-color="#05828A"/>
<stop offset="0.908954" stop-color="#39BFB7"/>
</linearGradient>
<linearGradient id="paint12_linear_2_172" x1="436.908" y1="290.539" x2="432.481" y2="258.873" gradientUnits="userSpaceOnUse">
<stop stop-color="#05828A"/>
<stop offset="0.908954" stop-color="#39BFB7"/>
</linearGradient>
<linearGradient id="paint13_linear_2_172" x1="392.365" y1="358.412" x2="388.208" y2="302.478" gradientUnits="userSpaceOnUse">
<stop stop-color="#05828A"/>
<stop offset="0.908954" stop-color="#39BFB7"/>
</linearGradient>
<linearGradient id="paint14_linear_2_172" x1="113.255" y1="469.838" x2="106.195" y2="373.51" gradientUnits="userSpaceOnUse">
<stop stop-color="#05828A"/>
<stop offset="0.908954" stop-color="#39BFB7"/>
</linearGradient>
<clipPath id="clip0_2_172">
<rect width="485" height="512" fill="white"/>
</clipPath>
</defs>
</svg>
