<svg width="512" height="512" viewBox="0 0 512 512" fill="none" xmlns="http://www.w3.org/2000/svg">
<g clip-path="url(#clip0_2_69)">
<path opacity="0.937" fill-rule="evenodd" clip-rule="evenodd" d="M329.5 -0.5C336.5 -0.5 343.5 -0.5 350.5 -0.5C376.036 6.54083 390.869 23.2075 395 49.5C395.5 84.8318 395.667 120.165 395.5 155.5C398.808 154.974 400.974 156.307 402 159.5C402.167 173.845 402.667 188.178 403.5 202.5C414.275 208.103 421.108 216.77 424 228.5C424.973 246.591 424.639 264.591 423 282.5C418.335 285.456 414.002 285.122 410 281.5C408.709 264.566 408.042 247.566 408 230.5C403.253 219.207 394.753 214.207 382.5 215.5C373.738 215.752 365.071 216.752 356.5 218.5C356.667 253.168 356.5 287.835 356 322.5C353.373 333.795 346.54 341.295 335.5 345C306.835 345.5 278.169 345.667 249.5 345.5C244.734 371.833 239.9 398.167 235 424.5C232.786 456.592 246.286 479.092 275.5 492C282.6 494.608 289.933 495.942 297.5 496C321.167 496.667 344.833 496.667 368.5 496C339.098 472.457 329.264 442.29 339 405.5C350.993 373.011 374.16 354.344 408.5 349.5C408.333 334.83 408.5 320.163 409 305.5C411.391 299.532 415.558 297.698 421.5 300C422.701 300.903 423.535 302.069 424 303.5C424.5 318.83 424.667 334.163 424.5 349.5C457.085 353.53 479.918 370.53 493 400.5C506.189 443.608 494.022 477.441 456.5 502C447.843 506.495 438.843 509.661 429.5 511.5C381.167 511.5 332.833 511.5 284.5 511.5C238.843 499.566 217.01 469.9 219 422.5C225.538 386.81 232.205 351.143 239 315.5C253.944 262.056 287.444 225.723 339.5 206.5C340.333 190.844 340.833 175.177 341 159.5C342.683 156.733 345.183 155.066 348.5 154.5C349.667 120.838 349.833 87.1716 349 53.5C346.73 45.7834 341.897 43.6168 334.5 47C332.044 49.4075 330.211 52.2409 329 55.5C273.629 179.741 218.129 303.908 162.5 428C169.237 429.736 173.737 433.903 176 440.5C176.5 447.492 176.666 454.492 176.5 461.5C207.085 456.511 225.918 468.844 233 498.5C234.158 503.307 233.324 507.64 230.5 511.5C208.5 511.5 186.5 511.5 164.5 511.5C159.232 506.663 159.232 501.829 164.5 497C181.51 496.833 198.51 496.333 215.5 495.5C212.7 486.867 207.034 481.034 198.5 478C151.833 477.333 105.167 477.333 58.5 478C47.1018 480.066 38.4351 486.066 32.5 496C69.1667 496.333 105.833 496.667 142.5 497C145.366 498.393 146.699 500.726 146.5 504C146.57 507.366 145.237 509.866 142.5 511.5C100.5 511.5 58.5 511.5 16.5 511.5C14.1154 509.398 12.7821 506.731 12.5 503.5C18.3688 480.39 33.0354 466.556 56.5 462C67.8284 461.5 79.1618 461.333 90.5 461.5C90.3337 454.825 90.5004 448.158 91 441.5C94.4605 431.231 101.627 426.898 112.5 428.5C152.766 336.63 193.6 244.963 235 153.5C239.333 149.5 243.667 149.5 248 153.5C249.422 156.03 249.755 158.697 249 161.5C209.295 250.408 169.462 339.241 129.5 428C134.751 428.804 139.918 428.637 145 427.5C203 298.167 261 168.833 319 39.5C329.634 28.3162 341.801 26.4829 355.5 34C361.151 38.4672 364.317 44.3005 365 51.5C365.5 85.8317 365.667 120.165 365.5 154.5C370.167 154.5 374.833 154.5 379.5 154.5C379.968 118.126 379.468 81.7929 378 45.5C369.533 21.3463 352.699 11.8463 327.5 17C314.293 21.8745 305.46 31.0411 301 44.5C287.667 74.5 274.333 104.5 261 134.5C257.58 138.753 253.413 139.587 248.5 137C245.342 133.528 244.842 129.694 247 125.5C262.409 91.0169 278.076 56.6835 294 22.5C303.122 10.5259 314.956 2.85919 329.5 -0.5ZM356.5 170.5C366.5 170.5 376.5 170.5 386.5 170.5C386.5 180.167 386.5 189.833 386.5 199.5C376.674 199.132 367.008 200.132 357.5 202.5C356.501 191.854 356.168 181.187 356.5 170.5ZM339.5 223.5C340.664 255.664 340.831 287.997 340 320.5C338.558 324.275 336.058 327.108 332.5 329C305.827 329.833 279.16 329.667 252.5 328.5C263.75 278.601 292.75 243.601 339.5 223.5ZM412.5 364.5C443.217 364.769 465.051 378.769 478 406.5C488.93 445.801 476.097 474.301 439.5 492C401.403 502.088 373.57 489.588 356 454.5C346.143 424.081 353.31 398.581 377.5 378C388.171 370.615 399.838 366.115 412.5 364.5ZM411.5 412.5C424.679 411.174 432.679 417.007 435.5 430C431.991 445.751 422.657 451.084 407.5 446C396.395 436.702 395.728 426.702 405.5 416C407.727 415.059 409.727 413.892 411.5 412.5ZM108.5 443.5C125.17 443.333 141.837 443.5 158.5 444C160.425 449.536 161.092 455.369 160.5 461.5C142.5 461.5 124.5 461.5 106.5 461.5C105.947 455.208 106.614 449.208 108.5 443.5Z" fill="url(#paint0_linear_2_69)"/>
</g>
<defs>
<linearGradient id="paint0_linear_2_69" x1="254.5" y1="617.5" x2="256.5" y2="-79.5" gradientUnits="userSpaceOnUse">
<stop stop-color="#05828A"/>
<stop offset="1" stop-color="#39BFB7"/>
</linearGradient>
<clipPath id="clip0_2_69">
<rect width="512" height="512" fill="white"/>
</clipPath>
</defs>
</svg>
