<svg width="512" height="512" viewBox="0 0 512 512" fill="none" xmlns="http://www.w3.org/2000/svg">
<g clip-path="url(#clip0_2_105)">
<path opacity="0.947" fill-rule="evenodd" clip-rule="evenodd" d="M97.5 -0.5C117.5 -0.5 137.5 -0.5 157.5 -0.5C160.049 1.55577 161.549 4.22244 162 7.5C162.333 26.8333 162.667 46.1667 163 65.5C174.794 79.2853 185.794 93.6187 196 108.5C196.5 131.831 196.667 155.164 196.5 178.5C201.833 178.5 207.167 178.5 212.5 178.5C212.333 163.163 212.5 147.83 213 132.5C220.636 123.863 228.636 115.53 237 107.5C237.5 100.174 237.666 92.8409 237.5 85.5C215.629 90.1323 207.796 81.799 214 60.5C222.642 27.0228 243.809 6.68951 277.5 -0.5C311.5 -0.5 345.5 -0.5 379.5 -0.5C380.458 0.961599 381.624 2.29493 383 3.5C383.667 17.8333 383.667 32.1667 383 46.5C381.363 48.8102 379.196 50.3102 376.5 51C365.5 51.3333 354.5 51.6667 343.5 52C340.14 54.3661 337.14 57.0327 334.5 60C342.031 75.5617 349.697 91.0617 357.5 106.5C352.553 109.557 347.386 112.224 342 114.5C334.17 100.843 326.837 86.8432 320 72.5C318.927 71.7203 317.76 71.887 316.5 73C313.573 75.3824 310.739 77.8824 308 80.5C307.333 89.5 307.333 98.5 308 107.5C322.029 121.195 335.696 135.195 349 149.5C349.5 159.161 349.666 168.828 349.5 178.5C362.171 178.333 374.838 178.5 387.5 179C389.726 180.227 391.226 182.061 392 184.5C392.964 198.594 392.631 212.594 391 226.5C389.681 228.487 387.848 229.654 385.5 230C378.842 230.5 372.175 230.666 365.5 230.5C360.165 273.183 354.998 315.85 350 358.5C356.707 360.403 363.207 362.903 369.5 366C383.205 370.061 396.205 368.394 408.5 361C424.34 357.166 440.34 356.5 456.5 359C476.858 365.211 489.358 378.711 494 399.5C494.167 411.333 494.333 423.167 494.5 435C494.629 448.22 494.129 461.386 493 474.5C486.38 493.957 473.213 506.291 453.5 511.5C442.167 511.5 430.833 511.5 419.5 511.5C411.436 509.199 403.436 506.365 395.5 503C387.5 501 379.5 501 371.5 503C363.564 506.365 355.564 509.199 347.5 511.5C336.167 511.5 324.833 511.5 313.5 511.5C302.56 508.858 293.227 503.358 285.5 495C217.167 494.667 148.833 494.333 80.5 494C79.3333 492.833 78.1667 491.667 77 490.5C65.177 404.584 53.8437 318.584 43 232.5C36.4427 230.724 29.6093 229.891 22.5 230C20.0607 229.226 18.2273 227.726 17 225.5C16.034 210.74 16.3674 196.073 18 181.5C18.9025 180.299 20.0692 179.465 21.5 179C33.8288 178.5 46.1622 178.333 58.5 178.5C58.3334 155.164 58.5 131.831 59 108.5C69.2057 93.6187 80.2057 79.2853 92 65.5C92.3333 46.1667 92.6667 26.8333 93 7.5C93.4506 4.22244 94.9506 1.55577 97.5 -0.5ZM110.5 17.5C121.833 17.5 133.167 17.5 144.5 17.5C144.5 31.1667 144.5 44.8333 144.5 58.5C133.167 58.5 121.833 58.5 110.5 58.5C110.5 44.8333 110.5 31.1667 110.5 17.5ZM279.5 17.5C296.833 17.5 314.167 17.5 331.5 17.5C331.666 24.5079 331.5 31.5079 331 38.5C318.878 47.6203 307.044 57.1203 295.5 67C274.169 67.5 252.836 67.6666 231.5 67.5C236.97 40.6968 252.97 24.0302 279.5 17.5ZM349.5 17.5C354.833 17.5 360.167 17.5 365.5 17.5C365.5 22.8333 365.5 28.1667 365.5 33.5C360.167 33.5 354.833 33.5 349.5 33.5C349.5 28.1667 349.5 22.8333 349.5 17.5ZM106.5 76.5C120.504 76.3334 134.504 76.5001 148.5 77C155.023 84.6886 161.356 92.5219 167.5 100.5C140.833 101.833 114.167 101.833 87.5 100.5C93.857 92.4811 100.19 84.4811 106.5 76.5ZM255.5 85.5C266.833 85.5 278.167 85.5 289.5 85.5C289.5 90.8333 289.5 96.1667 289.5 101.5C278.167 101.5 266.833 101.5 255.5 101.5C255.5 96.1667 255.5 90.8333 255.5 85.5ZM76.5 119.5C110.5 119.5 144.5 119.5 178.5 119.5C178.5 139.167 178.5 158.833 178.5 178.5C144.5 178.5 110.5 178.5 76.5 178.5C76.5 158.833 76.5 139.167 76.5 119.5ZM250.5 119.5C265.17 119.333 279.837 119.5 294.5 120C306.667 132.167 318.833 144.333 331 156.5C331.5 163.826 331.666 171.159 331.5 178.5C297.833 178.5 264.167 178.5 230.5 178.5C230.333 165.496 230.5 152.496 231 139.5C237.703 132.965 244.203 126.298 250.5 119.5ZM34.5 196.5C56.8333 196.5 79.1667 196.5 101.5 196.5C101.5 201.833 101.5 207.167 101.5 212.5C79.1667 212.5 56.8333 212.5 34.5 212.5C34.5 207.167 34.5 201.833 34.5 196.5ZM119.5 196.5C158.833 196.5 198.167 196.5 237.5 196.5C237.333 216.503 237.5 236.503 238 256.5C238.471 258.246 239.138 259.913 240 261.5C257.598 271.05 275.432 280.216 293.5 289C301.074 294.555 301.408 300.555 294.5 307C293 307.5 291.5 308 290 308.5C276.773 302.47 263.606 296.303 250.5 290C245.883 288.703 242.05 289.87 239 293.5C237.696 325.119 237.029 356.786 237 388.5C234.18 395.489 229.013 399.155 221.5 399.5C221.5 374.167 221.5 348.833 221.5 323.5C215.5 323.5 209.5 323.5 203.5 323.5C203.5 349.167 203.5 374.833 203.5 400.5C198.167 400.5 192.833 400.5 187.5 400.5C187.5 374.833 187.5 349.167 187.5 323.5C181.5 323.5 175.5 323.5 169.5 323.5C169.5 349.167 169.5 374.833 169.5 400.5C164.167 400.5 158.833 400.5 153.5 400.5C153.5 374.833 153.5 349.167 153.5 323.5C147.5 323.5 141.5 323.5 135.5 323.5C135.5 348.833 135.5 374.167 135.5 399.5C127.59 399.095 122.424 395.095 120 387.5C119.5 323.834 119.333 260.168 119.5 196.5ZM255.5 196.5C295.167 196.5 334.833 196.5 374.5 196.5C374.5 201.833 374.5 207.167 374.5 212.5C334.833 212.5 295.167 212.5 255.5 212.5C255.5 207.167 255.5 201.833 255.5 196.5ZM61.5 230.5C74.8333 230.5 88.1667 230.5 101.5 230.5C101.333 283.501 101.5 336.501 102 389.5C104.981 403.813 113.481 412.98 127.5 417C144.467 418.114 161.467 418.614 178.5 418.5C195.533 418.614 212.533 418.114 229.5 417C242.991 413.509 251.491 405.009 255 391.5C255.333 365.167 255.667 338.833 256 312.5C266.578 319.126 277.912 323.793 290 326.5C306.744 324.59 315.91 315.256 317.5 298.5C317.591 287.907 313.257 279.741 304.5 274C288.5 266 272.5 258 256.5 250C255.522 243.59 255.189 237.09 255.5 230.5C286.167 230.5 316.833 230.5 347.5 230.5C342.085 272.822 336.751 315.155 331.5 357.5C300.685 355.973 281.185 369.973 273 399.5C272.333 422.833 272.333 446.167 273 469.5C273.662 471.813 274.162 474.146 274.5 476.5C213.833 476.5 153.167 476.5 92.5 476.5C82.0024 394.519 71.669 312.519 61.5 230.5ZM318.5 375.5C326.84 375.334 335.173 375.5 343.5 376C351.37 378.068 359.037 380.734 366.5 384C377.833 387.333 389.167 387.333 400.5 384C407.963 380.734 415.63 378.068 423.5 376C433.228 375.109 442.894 375.443 452.5 377C470.46 384.08 478.293 397.247 476 416.5C472.058 430.109 463.225 438.609 449.5 442C433.361 444.508 418.028 442.175 403.5 435C390.167 430.333 376.833 430.333 363.5 435C347.566 442.607 330.9 444.607 313.5 441C293.245 431.985 286.412 416.818 293 395.5C298.747 385.245 307.247 378.578 318.5 375.5ZM290.5 448.5C302.12 457.926 315.453 461.926 330.5 460.5C337.552 460.561 344.552 460.061 351.5 459C358.975 456.73 366.309 454.064 373.5 451C376.861 450.663 380.194 450.163 383.5 449.5C386.806 450.163 390.139 450.663 393.5 451C402.221 454.862 411.221 457.862 420.5 460C431.167 460.667 441.833 460.667 452.5 460C461.353 458.157 469.186 454.323 476 448.5C479.99 470.704 471.49 485.538 450.5 493C433.706 495.544 417.706 493.211 402.5 486C392.638 483.582 382.638 482.915 372.5 484C363.405 486.714 354.405 489.714 345.5 493C335.833 493.667 326.167 493.667 316.5 493C303.333 489.167 294.833 480.667 291 467.5C290.5 461.175 290.334 454.842 290.5 448.5Z" fill="url(#paint0_linear_2_105)"/>
<path opacity="0.899" fill-rule="evenodd" clip-rule="evenodd" d="M348.5 391.5C354.5 391.5 360.5 391.5 366.5 391.5C366.5 397.5 366.5 403.5 366.5 409.5C360.5 409.5 354.5 409.5 348.5 409.5C348.5 403.5 348.5 397.5 348.5 391.5Z" fill="url(#paint1_linear_2_105)"/>
<path opacity="0.901" fill-rule="evenodd" clip-rule="evenodd" d="M434.5 391.5C440.5 391.5 446.5 391.5 452.5 391.5C452.5 397.5 452.5 403.5 452.5 409.5C446.5 409.5 440.5 409.5 434.5 409.5C434.5 403.5 434.5 397.5 434.5 391.5Z" fill="url(#paint2_linear_2_105)"/>
<path opacity="0.901" fill-rule="evenodd" clip-rule="evenodd" d="M314.5 400.5C320.5 400.5 326.5 400.5 332.5 400.5C332.5 406.5 332.5 412.5 332.5 418.5C326.5 418.5 320.5 418.5 314.5 418.5C314.5 412.5 314.5 406.5 314.5 400.5Z" fill="url(#paint3_linear_2_105)"/>
<path opacity="0.899" fill-rule="evenodd" clip-rule="evenodd" d="M400.5 400.5C406.5 400.5 412.5 400.5 418.5 400.5C418.5 406.5 418.5 412.5 418.5 418.5C412.5 418.5 406.5 418.5 400.5 418.5C400.5 412.5 400.5 406.5 400.5 400.5Z" fill="url(#paint4_linear_2_105)"/>
</g>
<defs>
<linearGradient id="paint0_linear_2_105" x1="262.5" y1="439" x2="258" y2="-29" gradientUnits="userSpaceOnUse">
<stop stop-color="#05828A"/>
<stop offset="1" stop-color="#39BFB7"/>
</linearGradient>
<linearGradient id="paint1_linear_2_105" x1="357.5" y1="391.5" x2="357.5" y2="409.5" gradientUnits="userSpaceOnUse">
<stop stop-color="#05828A"/>
<stop offset="1" stop-color="#39BFB7"/>
</linearGradient>
<linearGradient id="paint2_linear_2_105" x1="443.5" y1="391.5" x2="443.5" y2="409.5" gradientUnits="userSpaceOnUse">
<stop stop-color="#05828A"/>
<stop offset="1" stop-color="#39BFB7"/>
</linearGradient>
<linearGradient id="paint3_linear_2_105" x1="323.5" y1="400.5" x2="323.5" y2="418.5" gradientUnits="userSpaceOnUse">
<stop stop-color="#05828A"/>
<stop offset="1" stop-color="#39BFB7"/>
</linearGradient>
<linearGradient id="paint4_linear_2_105" x1="409.5" y1="400.5" x2="409.5" y2="418.5" gradientUnits="userSpaceOnUse">
<stop stop-color="#05828A"/>
<stop offset="1" stop-color="#39BFB7"/>
</linearGradient>
<clipPath id="clip0_2_105">
<rect width="512" height="512" fill="white"/>
</clipPath>
</defs>
</svg>
