<svg width="485" height="485" viewBox="0 0 485 485" fill="none" xmlns="http://www.w3.org/2000/svg">
<path d="M55.6044 8.71484C54.7519 9.37793 51.4365 16.293 48.3105 24.0605C45.1845 31.8281 41.7744 39.2168 40.6376 40.3535C39.5009 41.585 32.0175 45.1846 24.0605 48.4053C15.3456 51.8154 8.99897 54.9414 8.52533 55.9834C7.19916 58.3516 7.38861 63.751 8.80951 65.6455C9.37787 66.498 16.2929 69.8135 24.0605 72.9395C31.8281 76.0654 39.2167 79.4756 40.3535 80.6123C41.5849 81.749 45.1845 89.2324 48.4052 97.1895C51.8154 105.904 54.9413 112.251 55.9833 112.725C58.1621 113.956 63.0878 113.956 65.2665 112.725C66.3085 112.251 69.4345 105.904 72.8447 97.1895C76.0654 89.2324 79.665 81.749 80.8964 80.6123C82.0331 79.4756 89.4218 76.0654 97.1894 72.9395C104.957 69.8135 111.872 66.498 112.535 65.6455C114.051 63.5615 114.051 57.6885 112.535 55.6045C111.872 54.752 104.957 51.4365 97.1894 48.3105C89.4218 45.1846 82.0331 41.7744 80.8964 40.6377C79.665 39.501 76.0654 32.0176 72.8447 24.0605C69.4345 15.3457 66.3085 8.99902 65.2665 8.52539C62.8984 7.19922 57.499 7.38867 55.6044 8.71484ZM62.4247 41.3955C65.3613 49.6367 71.6132 55.7939 79.8544 58.7305C81.749 59.4883 83.3593 60.3408 83.3593 60.625C83.3593 60.9092 81.749 61.7617 79.8544 62.4248C71.6132 65.3613 65.456 71.6133 62.5195 79.7598C61.7617 81.749 60.9091 83.3594 60.6249 83.3594C60.3408 83.3594 59.4882 81.749 58.7304 79.7598C55.7939 71.6133 49.6367 65.3613 41.4902 62.4248C39.5009 61.7617 37.8906 60.9092 37.8906 60.625C37.8906 60.3408 39.5009 59.4883 41.4902 58.7305C49.6367 55.7939 55.8886 49.6367 58.8251 41.3955C59.4882 39.501 60.3408 37.8906 60.6249 37.8906C60.9091 37.8906 61.7617 39.501 62.4247 41.3955Z" fill="url(#paint0_linear_3_199)"/>
<path d="M338.174 12.4092C334.29 15.0615 325.954 19.7031 319.702 22.7344C300.283 32.207 285.127 36.4697 241.079 44.9951C189.169 55.0361 169.845 61.4776 147.3 76.1602C142.848 79.0967 123.807 93.1162 104.862 107.325C57.4989 143.037 38.9325 155.352 18.661 164.066C13.8299 166.056 9.37779 168.424 8.7147 169.276C7.19908 171.36 7.2938 179.886 8.90415 187.559C13.3563 208.209 23.7762 227.817 51.1522 266.655C86.0116 316.197 102.589 344.426 113.672 373.033C117.84 383.643 119.545 386.2 122.671 386.484C129.207 387.147 132.617 384.685 132.617 379.475C132.617 372.086 116.324 337.132 101.168 312.029C96.4315 304.072 86.5799 289.2 79.4754 278.78C37.7958 218.818 29.6493 204.894 25.1024 185.475L23.871 179.886L34.3856 174.581C55.1307 164.256 73.1288 152.036 113.672 121.25C148.531 94.7266 159.235 87.1485 169.655 81.9385C183.864 74.6445 207.262 67.919 238.237 62.0459C295.641 51.1524 317.523 44.4268 340.542 30.3125L346.604 26.6182L349.067 30.7861C358.919 47.458 369.433 83.9277 385.537 156.299C399.367 218.629 405.903 240.511 417.744 264.761C425.322 280.296 431.385 289.484 447.583 310.23C454.024 318.565 459.424 325.954 459.424 326.712C459.424 327.375 454.498 332.774 448.53 338.647C438.868 348.12 437.637 349.636 437.637 352.572C437.637 356.93 439.91 359.771 443.889 360.529C446.541 361.003 447.867 360.624 450.898 358.54C455.919 355.035 470.601 339.689 474.39 334.006C479.506 326.144 479.032 324.344 467.76 309.661C440.573 274.139 436.973 268.645 429.49 251.878C419.828 229.996 414.429 210.956 400.598 149.384C385.442 81.5596 376.633 50.584 366.686 29.8389C355.319 6.06251 351.246 3.5049 338.174 12.4092Z" fill="url(#paint1_linear_3_199)"/>
<path d="M426.933 8.71484C426.08 9.37793 423.238 15.251 420.586 21.6924C418.028 28.1338 415.186 34.1963 414.334 35.1436C413.481 36.0908 407.324 39.0273 400.599 41.6797C393.494 44.5215 387.905 47.3633 387.432 48.4053C386.105 50.7734 386.295 56.1728 387.716 58.0674C388.284 58.9199 394.157 61.7617 400.599 64.4141C407.04 66.9717 413.102 69.8135 414.05 70.666C414.997 71.5186 417.934 77.6758 420.586 84.4014C423.428 91.5059 426.269 97.0947 427.311 97.5684C429.68 98.8945 435.079 98.7051 436.974 97.2842C437.826 96.7158 440.668 90.8428 443.32 84.4014C445.878 77.96 448.72 71.8975 449.572 70.9502C450.425 70.0029 456.298 67.1611 462.55 64.6982C468.896 62.2353 474.769 59.4883 475.717 58.541C477.611 56.6465 477.99 51.1523 476.475 48.4053C476.001 47.3633 470.412 44.5215 463.308 41.6797C456.582 39.0273 450.425 36.0908 449.572 35.1436C448.72 34.1963 445.878 28.1338 443.32 21.6924C440.668 15.251 437.826 9.37793 436.974 8.71484C436.121 8.14648 433.848 7.57812 431.953 7.57812C430.059 7.57812 427.785 8.14648 426.933 8.71484ZM436.216 44.8057C437.826 46.8896 440.857 49.542 443.036 50.584C447.583 52.8574 447.962 53.6152 445.025 54.373C441.615 55.2256 436.121 60.2461 434.037 64.4141L432.143 68.2978L429.585 63.9404C427.122 59.6777 420.586 53.9941 418.028 53.9941C415.66 53.9941 416.797 52.5732 420.681 50.8682C424.47 49.0684 431.006 41.6797 431.101 38.9326C431.101 37.7012 431.29 37.7012 432.237 39.2168C432.9 40.1641 434.7 42.7217 436.216 44.8057Z" fill="url(#paint2_linear_3_199)"/>
<path d="M256.235 92.5479C248.847 96.4317 244.11 103.347 242.974 112.251C242.216 117.556 244.3 131.102 247.331 141.616C248.752 146.447 268.076 205.936 272.339 218.534C274.233 224.218 263.34 206.314 237.29 161.035C214.745 121.818 209.725 113.956 204.23 109.125C198.452 104.105 190.685 103.915 182.917 108.651C172.686 114.998 170.034 124.944 174.676 139.722C177.612 149.005 187.843 169.466 201.104 192.484C210.103 208.02 223.839 234.448 226.775 242.026L228.291 245.815L223.365 240.606C220.713 237.764 211.43 226.87 202.715 216.45C176.854 185.475 166.813 177.328 156.204 178.275C150.994 178.844 146.068 182.159 142.374 187.464C138.017 193.905 138.585 204.609 143.89 215.503C145.5 218.629 159.519 238.237 175.244 259.077C211.903 307.672 234.827 341.679 229.807 339.784C227.817 339.026 213.893 329.554 196.558 317.334C176.002 302.841 162.645 296.494 152.604 296.494C143.037 296.494 132.238 304.925 129.396 314.587C127.407 321.028 127.502 323.586 129.775 328.512C132.143 333.627 134.512 335.9 150.615 348.12C165.108 359.203 176.476 368.96 196.652 387.811C213.987 403.914 224.881 412.724 240.132 423.049C258.698 435.553 271.77 441.426 298.389 449.383C306.44 451.846 314.303 454.309 315.724 454.877C318.565 456.014 321.407 460.75 325.007 470.317C326.049 473.159 327.754 476.001 328.701 476.475C331.259 477.896 336.469 477.611 338.837 476.001C343.1 473.064 342.342 467.76 335.332 453.267C330.596 443.415 328.227 441.899 306.914 435.174C285.127 428.259 278.78 425.891 268.644 420.87C250.078 411.587 231.038 397.283 204.704 372.844C187.748 357.119 176.76 347.741 156.962 332.206C146.826 324.06 144.932 322.26 144.932 319.986C144.932 316.008 150.426 312.219 155.067 312.882C162.361 314.113 172.686 320.271 203.094 341.868C219.955 353.804 226.965 357.403 234.543 357.877C241.458 358.351 245.531 356.646 247.805 352.193C250.362 347.268 249.036 340.258 243.542 329.08C235.585 313.071 221.092 292.421 177.991 235.396C157.151 207.925 153.173 200.441 156.678 195.61C157.909 193.905 158.004 193.905 160.656 195.61C165.298 198.547 176.097 210.104 190.779 227.817C219.197 262.014 227.06 268.929 237.574 269.023C246.668 269.023 250.268 264.192 248.278 254.53C245.721 242.121 233.501 216.071 214.556 182.822C196.842 151.657 188.506 134.228 188.506 127.881C188.506 125.134 192.579 120.776 194.284 121.724C195.989 122.86 204.609 136.975 223.555 170.034C255.856 226.302 259.93 232.554 268.55 240.511C276.128 247.426 282.19 247.994 287.495 242.5C289.768 240.132 290.337 238.616 290.621 233.975C291.284 225.26 289.768 219.576 276.601 179.507C258.414 124.187 256.614 116.135 261.066 110.167C263.719 106.567 265.14 106.852 268.266 111.304C271.865 116.514 277.075 130.06 288.537 163.877C299.62 196.652 304.451 208.967 309.756 217.966C314.776 226.397 318.186 229.238 323.396 229.238C328.322 229.238 331.259 227.249 333.532 222.229C336.09 216.64 335.9 199.873 332.869 171.929C331.543 159.425 330.311 141.332 330.027 131.67C329.364 109.599 330.596 107.041 336.184 118.219C340.542 126.934 344.331 139.911 357.119 190.495C370.381 242.784 368.392 237.101 391.505 292.326C407.798 331.164 409.408 337.132 412.534 370.665C414.618 393.021 415.092 395.01 420.87 401.925C434.795 418.691 462.739 451.562 464.35 452.982C465.486 454.024 467.76 454.688 469.938 454.688C474.864 454.688 477.422 452.13 477.422 447.109C477.422 443.605 476.001 441.71 454.498 416.323C441.805 401.356 431.195 388.284 430.816 387.337C430.437 386.295 429.206 376.443 428.164 365.455C426.08 344.047 423.712 330.312 420.112 319.702C418.881 316.008 413.387 302.178 407.798 288.916C382.979 229.522 385.726 237.669 373.791 189.927C356.267 119.829 352.383 108.651 343.005 100.126C338.553 96.0528 335.995 95.295 329.554 95.8633C321.786 96.6211 316.481 102.021 314.587 110.925C312.787 119.071 313.45 138.964 316.387 168.708C317.997 184.527 319.134 198.073 319.039 198.736C318.66 200.631 312.692 184.906 305.398 162.74C289.484 114.335 281.243 97.0948 271.486 92.4532C267.413 90.5586 259.93 90.5586 256.235 92.5479Z" fill="url(#paint3_linear_3_199)"/>
<path d="M63.1826 349.73C62.33 350.394 58.6357 358.351 54.9414 367.444C51.0576 377.201 47.2685 385.063 45.8476 386.579C44.1425 388.379 37.6064 391.505 26.3339 396.052C16.1035 400.125 9.09369 403.535 8.52533 404.577C7.19916 406.945 7.38861 412.345 8.80951 414.239C9.37787 415.092 17.3349 418.786 26.4287 422.48C36.1855 426.364 44.0478 430.153 45.5634 431.574C47.3632 433.279 50.4892 439.815 55.0361 451.088C59.1093 461.318 62.5195 468.328 63.5615 468.896C65.7402 470.128 70.666 470.128 72.8447 468.896C73.8867 468.328 77.2968 461.318 81.3701 451.088C85.9169 439.815 89.0429 433.279 90.8427 431.574C92.3583 430.153 100.221 426.364 109.977 422.48C119.071 418.786 127.028 415.092 127.691 414.239C128.26 413.387 128.828 411.113 128.828 409.219C128.828 407.324 128.26 405.051 127.691 404.198C127.028 403.346 119.071 399.651 109.977 395.957C100.221 392.073 92.3583 388.284 90.8427 386.863C89.0429 385.158 85.9169 378.622 81.3701 367.35C77.2968 357.119 73.8867 350.109 72.8447 349.541C70.4765 348.215 65.0771 348.404 63.1826 349.73ZM70.9501 384.779C73.9814 392.736 77.8652 398.136 82.6962 401.451C84.8749 402.967 89.3271 405.24 92.6425 406.472C95.8632 407.703 98.5156 408.935 98.5156 409.219C98.5156 409.503 95.8632 410.734 92.6425 411.966C80.8964 416.513 75.497 421.912 70.9501 433.563C69.7187 436.879 68.4873 439.531 68.2031 439.531C67.9189 439.531 66.6874 436.879 65.456 433.563C60.9091 421.912 55.5097 416.513 43.8583 411.966C40.5429 410.734 37.8906 409.503 37.8906 409.219C37.8906 408.935 40.5429 407.703 43.8583 406.472C55.6044 401.925 60.8144 396.62 65.5507 384.4C66.7822 381.369 67.9189 378.906 68.2031 378.906C68.4873 378.906 69.7187 381.559 70.9501 384.779Z" fill="url(#paint4_linear_3_199)"/>
<path d="M133.564 426.27C131.291 428.543 131.102 432.806 133.091 444.646C133.849 449.288 134.701 456.961 135.08 461.697C135.838 472.307 137.259 476.19 140.764 477.043C145.026 478.18 161.793 476.759 175.244 474.106C200.157 469.275 244.679 457.056 249.131 453.835C252.067 451.751 252.825 446.162 250.646 442.847C247.994 438.868 245.058 439.058 225.828 444.741C203.852 451.277 181.401 456.771 165.866 459.329C159.425 460.466 153.647 461.318 152.889 461.318C151.563 461.318 151.468 460.939 149.194 443.794C147.489 430.438 146.353 426.554 143.984 425.322C140.953 423.712 135.648 424.186 133.564 426.27Z" fill="url(#paint5_linear_3_199)"/>
<defs>
<linearGradient id="paint0_linear_3_199" x1="60.6507" y1="113.648" x2="60.6507" y2="7.62044" gradientUnits="userSpaceOnUse">
<stop offset="0.0785794" stop-color="#05828A"/>
<stop offset="1" stop-color="#39BFB7"/>
</linearGradient>
<linearGradient id="paint1_linear_3_199" x1="242.575" y1="386.59" x2="242.575" y2="7.68527" gradientUnits="userSpaceOnUse">
<stop offset="0.0785794" stop-color="#05828A"/>
<stop offset="1" stop-color="#39BFB7"/>
</linearGradient>
<linearGradient id="paint2_linear_3_199" x1="431.973" y1="98.4641" x2="431.973" y2="7.57812" gradientUnits="userSpaceOnUse">
<stop offset="0.0785794" stop-color="#05828A"/>
<stop offset="1" stop-color="#39BFB7"/>
</linearGradient>
<linearGradient id="paint3_linear_3_199" x1="302.702" y1="477.392" x2="302.702" y2="91.0439" gradientUnits="userSpaceOnUse">
<stop offset="0.0785794" stop-color="#05828A"/>
<stop offset="1" stop-color="#39BFB7"/>
</linearGradient>
<linearGradient id="paint4_linear_3_199" x1="68.2289" y1="469.82" x2="68.2289" y2="348.636" gradientUnits="userSpaceOnUse">
<stop offset="0.0785794" stop-color="#05828A"/>
<stop offset="1" stop-color="#39BFB7"/>
</linearGradient>
<linearGradient id="paint5_linear_3_199" x1="191.81" y1="477.438" x2="191.81" y2="424.36" gradientUnits="userSpaceOnUse">
<stop offset="0.0785794" stop-color="#05828A"/>
<stop offset="1" stop-color="#39BFB7"/>
</linearGradient>
</defs>
</svg>
