<svg width="485" height="486" viewBox="0 0 485 486" fill="none" xmlns="http://www.w3.org/2000/svg">
<path d="M0 184.91V369.153H7.57812H15.1562V192.488V15.823H181.875H348.594V8.24487V0.666748H174.297H0V184.91Z" fill="url(#paint0_linear_102_15)"/>
<path d="M362.329 3.03491C360.719 4.55054 359.961 6.35034 359.961 8.52905C359.961 22.3591 347.552 34.7683 333.722 34.7683C329.554 34.7683 325.859 38.3679 325.859 42.3464C325.859 46.325 329.554 49.9246 333.722 49.9246C347.552 49.9246 359.961 62.3337 359.961 76.1638C359.961 80.3318 363.561 84.0261 367.539 84.0261C371.518 84.0261 375.117 80.3318 375.117 76.1638C375.117 62.3337 387.526 49.9246 401.356 49.9246C405.524 49.9246 409.219 46.325 409.219 42.3464C409.219 38.3679 405.524 34.7683 401.356 34.7683C399.651 34.7683 395.957 34.1052 393.115 33.2527C383.264 30.3162 375.117 19.1384 375.117 8.52905C375.117 4.36108 371.518 0.666748 367.539 0.666748C365.739 0.666748 363.75 1.51929 362.329 3.03491ZM372.37 37.6101L377.106 42.3464L372.275 47.0828L367.539 51.9138L362.803 47.1775L357.972 42.3464L362.519 37.7048C364.981 35.1472 367.16 32.9685 367.35 32.9685C367.539 32.8738 369.718 34.9578 372.37 37.6101Z" fill="url(#paint1_linear_102_15)"/>
<path d="M388.379 8.24487V15.823H429.111H469.844V174.964V334.104H477.422H485V167.385V0.666748H436.689H388.379V8.24487Z" fill="url(#paint2_linear_102_15)"/>
<path d="M30.3125 178.753V326.526H37.8906H45.4688V296.214V265.901H59.2041H72.9395V268.175C72.9395 269.406 71.9922 273.385 70.9502 276.889C69.3398 282.005 69.0557 285.131 69.3398 291.477C70.0977 307.77 77.0127 316.485 97.2842 326.81C106.946 331.736 112.914 335.62 123.808 344.335C140.669 357.691 145.121 359.87 156.299 360.344C164.161 360.722 164.824 360.533 182.349 354.565L200.347 348.503L208.493 353.618C212.945 356.365 217.303 358.923 218.155 359.302C219.671 359.87 219.766 363.375 219.766 400.034V440.198H128.828H37.8906V447.776V455.354H182.822H327.754V447.776V440.198H296.494H265.234V407.991C265.234 390.277 265.519 375.784 265.897 375.784C266.371 375.784 273.665 378.152 282.285 380.994L297.915 386.204L324.817 413.106L351.814 440.103L347.741 444.461C341.679 451.092 342.152 452.228 357.403 467.385C368.676 478.657 370.381 479.983 373.317 479.983C376.254 479.983 380.138 476.384 429.301 427.126C480.643 375.879 482.158 374.268 482.158 370.763C482.158 367.448 481.306 366.217 472.401 357.123C461.413 345.756 456.298 341.682 453.077 341.682C451.846 341.682 449.099 343.293 446.73 345.471L442.657 349.166L417.649 323.874C391.505 297.54 382.032 286.836 367.255 267.133C366.497 266.185 373.791 265.901 402.967 265.901H439.531V296.214V326.526H447.109H454.688V178.753V30.9792H443.32H431.953V38.5574V46.1355H435.742H439.531V133.284V220.432H399.746H359.961V218.254C359.961 217.117 360.624 211.054 361.287 204.708C363.75 182.921 361.477 177.237 343.005 158.765C330.217 145.977 330.027 145.883 316.766 139.157C308.146 134.8 302.367 131.295 300.567 129.211C299.052 127.411 293.937 119.738 289.295 111.97C280.485 97.3826 276.412 92.5515 269.402 88.0994L265.234 85.447V65.7439V46.1355H283.706H302.178V38.5574V30.9792H166.245H30.3125V178.753ZM219.766 54.0925V62.0496H215.124C204.136 62.1443 197.221 65.7439 185.19 77.49C176.191 86.2996 170.508 89.615 164.635 89.7097C162.74 89.7097 153.931 88.6677 144.932 87.3416C120.587 83.8367 120.587 83.8367 95.6738 92.0779C72.0869 99.9402 66.7822 102.877 61.0039 110.739C52.4785 122.296 51.4365 133.663 57.1201 150.903L60.625 161.418V190.878V220.432H53.0469H45.4688V133.284V46.1355H132.617H219.766V54.0925ZM250.078 60.9128C250.078 69.0593 249.794 75.5007 249.32 75.3113C248.941 75.1218 245.531 73.1326 241.742 70.8591L234.922 66.7859V56.4607V46.1355H242.5H250.078V60.9128ZM224.786 78.7214C228.291 80.1423 263.908 102.403 266.466 104.677C267.413 105.529 272.339 113.107 277.265 121.443C282.569 130.253 288.253 138.399 290.811 140.957C293.842 143.893 299.525 147.493 308.43 152.04C321.218 158.481 321.976 159.05 332.68 169.943C344.521 181.879 346.794 185.478 346.889 192.962C346.889 197.698 342.815 236.725 342.247 237.483C342.058 237.673 316.197 212.191 284.843 180.837C245.342 141.336 226.775 123.432 224.312 122.39C219.481 120.401 210.767 120.591 205.936 122.769C203.852 123.717 200.441 126.464 198.357 128.832L194.663 133.094L186.896 125.611C180.454 119.454 178.275 117.938 173.729 116.612C164.824 114.054 155.067 116.896 149.573 123.811L146.637 127.411L141.806 124.474C137.543 121.727 136.312 121.443 129.775 121.443C123.334 121.443 122.008 121.727 117.84 124.285C108.462 130.158 104.578 141.904 108.936 151.945C110.072 154.597 111.777 157.534 112.725 158.386C114.43 159.902 114.335 160.092 110.546 163.028C102.684 169.091 99.3682 181.689 103.631 190.12C104.578 191.92 125.986 214.18 151.278 239.472L197.221 285.51H191.537C176.949 285.699 165.487 297.256 165.582 311.844C165.582 321.506 169.371 328.136 178.275 334.104C181.78 336.378 183.485 338.083 182.728 338.367C172.781 342.061 160.846 345.471 157.909 345.471C150.805 345.471 147.11 343.482 131.954 331.547C120.303 322.263 114.524 318.38 105.241 313.738C92.7373 307.486 88.1904 303.792 85.8223 297.919C83.9277 293.372 83.9277 285.32 85.8223 280.015C89.7061 268.838 88.2852 258.607 80.8018 243.925L76.2549 235.115L75.6865 195.33L75.2129 155.545L71.708 145.409C67.7295 133.758 67.6348 133.473 69.7188 126.748C70.666 123.338 72.4658 120.496 75.2129 117.654C79.002 113.96 80.707 113.202 99.5576 106.855C111.588 102.877 121.439 100.13 123.713 100.13C125.892 100.13 135.27 101.266 144.553 102.593C172.402 106.666 178.844 104.961 194.947 89.3308C200.062 84.3103 205.746 79.6687 207.546 78.9109C211.619 77.1111 220.808 77.0164 224.786 78.7214ZM206.978 167.385C241.079 201.392 244.3 204.329 247.236 204.329C251.594 204.329 254.814 201.203 254.814 196.845C254.814 193.719 253.109 191.825 231.701 170.227C218.724 157.25 208.493 146.167 208.398 145.125C207.83 139.252 210.388 136.126 215.692 136.126C219.103 136.126 220.997 137.926 265.519 182.258C326.238 242.883 339.121 256.523 359.298 281.72C376.064 302.75 394.726 323.211 419.07 347.366L431.953 360.154L397.188 394.919L362.329 429.778L333.438 400.981L304.546 372.184L264.287 358.828L224.028 345.471L204.609 333.062C193.905 326.337 184.243 319.706 183.106 318.38C179.317 314.212 180.549 305.497 185.38 302.371C190.685 298.866 193.432 299.813 217.397 314.117C231.796 322.642 240.795 327.473 242.5 327.473C246.005 327.473 249.036 324.821 249.699 321.032C250.362 317.906 249.794 317.243 183.959 251.408C140.574 207.928 117.366 184.057 116.987 182.352C115.756 177.521 120.871 172.406 125.702 173.448C127.597 173.922 139.248 184.91 164.824 210.486C199.589 245.251 201.483 246.956 204.799 246.956C207.451 246.956 208.777 246.387 210.198 244.493C214.461 239.094 215.408 240.23 168.519 193.435C144.553 169.469 124.281 148.724 123.523 147.303C122.766 145.883 122.197 143.893 122.197 142.757C122.197 139.725 126.365 136.126 129.965 136.126C132.807 136.126 136.975 140.104 177.612 180.647C226.681 229.621 225.639 228.863 231.133 223.464C234.354 220.243 234.638 218.633 232.648 214.938C231.891 213.517 215.219 196.372 195.705 176.858C161.698 142.946 160.088 141.146 160.088 137.831C160.088 135.178 160.656 133.852 162.551 132.431C167.855 128.263 167.287 127.79 206.978 167.385ZM62.5195 239.567C63.1826 241.841 64.5088 245.251 65.4561 247.145L67.2559 250.745H56.3623H45.4688V243.167V235.589H53.3311H61.2881L62.5195 239.567ZM439.531 243.167V250.745H397.757H356.077L356.646 246.198C356.93 243.735 357.403 240.325 357.688 238.62L358.161 235.589H398.799H439.531V243.167ZM459.234 365.648L464.16 370.574L418.691 416.043L373.223 461.511L367.823 456.017L362.329 450.618L407.514 405.623C432.332 380.899 452.982 360.628 453.456 360.628C453.93 360.628 456.487 362.901 459.234 365.648ZM243.731 368.111L250.078 370.29V405.244V440.198H242.5H234.922V402.686C234.922 373.037 235.206 365.269 236.153 365.553C236.722 365.838 240.132 366.974 243.731 368.111Z" fill="url(#paint3_linear_102_15)"/>
<path d="M36.4697 351.629C34.8594 353.144 34.1016 354.944 34.1016 357.123C34.1016 370.953 21.6924 383.362 7.8623 383.362C3.69434 383.362 0 386.962 0 390.94C0 394.919 3.69434 398.518 7.8623 398.518C21.6924 398.518 34.1016 410.927 34.1016 424.758C34.1016 428.926 37.7012 432.62 41.6797 432.62C45.6582 432.62 49.2578 428.926 49.2578 424.758C49.2578 410.927 61.667 398.518 75.4971 398.518C79.665 398.518 83.3594 394.919 83.3594 390.94C83.3594 386.962 79.665 383.362 75.4971 383.362C61.667 383.362 49.2578 370.953 49.2578 357.123C49.2578 352.955 45.6582 349.26 41.6797 349.26C39.8799 349.26 37.8906 350.113 36.4697 351.629ZM46.5107 386.204L51.2471 390.94L46.416 395.677L41.6797 400.508L36.9434 395.771L32.1123 390.94L36.6592 386.299C39.1221 383.741 41.3008 381.562 41.4902 381.562C41.6797 381.468 43.8584 383.552 46.5107 386.204Z" fill="url(#paint4_linear_102_15)"/>
<path d="M469.844 436.409V470.51H439.531H409.219V478.089V485.667H447.109H485V443.987V402.307H477.422H469.844V436.409Z" fill="url(#paint5_linear_102_15)"/>
<path d="M0 447.302V485.667H166.719H333.438V478.089V470.51H174.297H15.1562V439.724V408.938H7.57812H0V447.302Z" fill="url(#paint6_linear_102_15)"/>
<path d="M439.531 434.514V440.198H431.953H424.375V447.776V455.354H439.531H454.688V442.093V428.831H447.109H439.531V434.514Z" fill="url(#paint7_linear_102_15)"/>
<defs>
<linearGradient id="paint0_linear_102_15" x1="174.297" y1="369.153" x2="174.297" y2="0.666748" gradientUnits="userSpaceOnUse">
<stop stop-color="#05828A"/>
<stop offset="1" stop-color="#39BFB7"/>
</linearGradient>
<linearGradient id="paint1_linear_102_15" x1="367.539" y1="84.0261" x2="367.539" y2="0.666748" gradientUnits="userSpaceOnUse">
<stop stop-color="#05828A"/>
<stop offset="1" stop-color="#39BFB7"/>
</linearGradient>
<linearGradient id="paint2_linear_102_15" x1="436.689" y1="334.104" x2="436.689" y2="0.666748" gradientUnits="userSpaceOnUse">
<stop stop-color="#05828A"/>
<stop offset="1" stop-color="#39BFB7"/>
</linearGradient>
<linearGradient id="paint3_linear_102_15" x1="256.235" y1="479.983" x2="256.235" y2="30.9792" gradientUnits="userSpaceOnUse">
<stop stop-color="#05828A"/>
<stop offset="1" stop-color="#39BFB7"/>
</linearGradient>
<linearGradient id="paint4_linear_102_15" x1="41.6797" y1="432.62" x2="41.6797" y2="349.26" gradientUnits="userSpaceOnUse">
<stop stop-color="#05828A"/>
<stop offset="1" stop-color="#39BFB7"/>
</linearGradient>
<linearGradient id="paint5_linear_102_15" x1="447.109" y1="485.667" x2="447.109" y2="402.307" gradientUnits="userSpaceOnUse">
<stop stop-color="#05828A"/>
<stop offset="1" stop-color="#39BFB7"/>
</linearGradient>
<linearGradient id="paint6_linear_102_15" x1="166.719" y1="485.667" x2="166.719" y2="408.938" gradientUnits="userSpaceOnUse">
<stop stop-color="#05828A"/>
<stop offset="1" stop-color="#39BFB7"/>
</linearGradient>
<linearGradient id="paint7_linear_102_15" x1="439.531" y1="455.354" x2="439.531" y2="428.831" gradientUnits="userSpaceOnUse">
<stop stop-color="#05828A"/>
<stop offset="1" stop-color="#39BFB7"/>
</linearGradient>
</defs>
</svg>
