<svg width="485" height="476" viewBox="0 0 485 476" fill="none" xmlns="http://www.w3.org/2000/svg">
<path d="M201.046 2.11405C183.547 5.89215 169.23 20.6069 165.85 38.3043C165.253 41.4859 164.855 62.862 164.855 90.7006V137.828H158.989H153.123L150.439 130.868C148.948 127.09 148.053 123.61 148.351 123.113C148.649 122.616 150.24 121.621 151.93 120.925C156.901 118.838 157.299 112.972 152.527 110.884C150.538 109.889 148.351 110.387 138.806 113.966C132.642 116.253 126.975 118.738 126.18 119.434C124.191 121.323 124.489 125.996 126.677 127.587C127.87 128.482 129.659 128.78 131.548 128.382C133.239 127.985 135.128 127.587 135.824 127.587C136.619 127.487 138.011 129.476 139.105 132.061L140.894 136.734L80.0469 137.032C20.492 137.33 19.1001 137.33 14.626 139.418C-3.17082 147.67 -5.1593 171.333 11.0468 182.27C13.6318 183.96 17.7082 185.75 20.0943 186.048L24.469 186.744L24.9661 205.237C25.3638 221.145 25.7615 225.32 28.0482 233.771C34.6102 258.627 52.1088 283.483 73.3855 297.9C86.7083 306.947 106.891 314.504 122.401 316.393L128.069 316.989V383.504V450.018H111.863C97.3466 450.018 95.3582 450.217 93.9662 451.808C91.7789 454.194 91.8783 457.276 94.0656 459.265C95.7558 460.855 103.511 460.955 184.939 460.955C269.847 460.955 274.023 460.855 275.514 459.165C277.701 456.779 277.602 453.697 275.415 451.708C273.824 450.217 270.841 450.018 255.033 450.018H236.44L236.639 383.603L236.938 317.287L240.915 316.989C245.488 316.591 248.371 314.404 248.371 311.421C248.272 306.152 250.758 306.351 192.495 306.649C157.299 306.947 134.73 306.649 127.77 305.854C103.113 303.368 82.5325 293.823 65.8293 277.12C52.5065 263.897 43.5584 248.387 38.8854 230.391C36.897 222.636 36.3004 217.565 35.9027 203.646L35.3062 186.545H182.155H329.103L328.805 205.336C328.507 226.315 328.805 227.607 334.274 227.11C339.145 226.613 339.941 223.63 340.537 203.944L341.134 186.744L345.011 186.247C350.877 185.452 357.738 180.779 361.217 175.211C363.902 170.836 364.2 169.444 364.2 162.186C364.2 154.928 363.902 153.536 361.217 149.162C359.328 146.179 356.346 143.196 353.363 141.307L348.491 138.325L286.451 138.026C239.224 137.828 224.51 137.529 224.51 136.634C224.51 135.938 225.206 133.552 226.1 131.266C227.592 127.388 227.89 127.09 230.177 127.985C236.142 130.172 241.213 127.388 240.02 122.516C239.224 119.434 238.131 118.838 224.808 113.866C217.252 111.083 213.871 110.287 212.678 110.983C207.11 113.866 207.608 119.136 213.474 121.721L217.351 123.411L214.667 130.371L211.982 137.33L205.321 137.629L198.659 137.927V90.1041V42.3807L201.94 38.9009C205.917 34.5262 210.789 33.4325 215.76 35.8187C219.837 37.8072 222.223 41.8836 223.118 48.8432C223.615 52.9196 224.41 54.5104 227.89 57.8908C234.651 64.751 243.301 65.0493 250.459 58.5868C255.729 53.8144 257.021 49.3403 255.629 40.3922C252.647 21.104 238.628 6.091 219.837 2.11405C211.684 0.324422 209 0.324422 201.046 2.11405ZM225.007 15.6357C235.546 20.6069 243.201 31.5435 244.196 42.9772C244.593 48.7438 244.494 49.2409 242.207 50.7323C238.429 53.2179 234.651 51.2294 233.955 46.4571C232.265 35.7193 227.791 28.859 220.036 25.3792C211.087 21.3028 197.864 24.4844 192.098 32.0406C186.927 38.8014 186.729 40.9888 186.729 90.8001V136.833H181.161H175.693L175.991 88.3145C176.289 40.7899 176.389 39.7957 178.576 34.3274C182.354 24.7827 190.606 17.0276 200.151 13.8461C206.315 11.8576 218.942 12.7524 225.007 15.6357ZM346.503 150.454C355.948 154.928 356.147 168.251 346.9 173.421L343.023 175.609H182.851C8.85946 175.609 18.4041 175.907 13.9301 170.14C9.15773 164.075 10.7485 155.624 17.6088 151.051L20.9892 148.764H181.956C330.396 148.764 343.321 148.864 346.503 150.454ZM225.504 383.901V450.018H182.752H139.999V383.901V317.785H182.752H225.504V383.901Z" fill="url(#paint0_linear_102_38)"/>
<path d="M427.334 185.949C420.872 187.341 416.696 189.428 412.122 193.405C410.333 194.996 399.694 208.617 388.559 223.63L368.177 250.972L349.784 251.668C317.371 252.861 311.605 253.457 307.33 256.341C303.154 259.125 252.945 325.639 251.155 330.809C249.564 335.383 250.559 344.629 253.144 348.805C254.635 351.191 270.941 363.917 305.242 389.469C332.583 409.95 356.445 427.449 358.135 428.344C366.189 432.718 375.435 431.327 382.096 424.864C386.869 420.092 431.709 360.04 434.493 354.671C435.487 352.782 436.282 349.202 436.282 346.916C436.282 344.53 433.399 331.306 429.82 317.387L423.258 292.034L444.236 263.897C461.735 240.333 465.513 234.766 467.104 229.397C469.49 221.94 469.589 217.764 467.601 210.506C462.928 192.908 444.932 181.872 427.334 185.949ZM444.733 198.575C449.705 200.962 453.781 205.137 455.968 210.407C457.957 215.279 457.758 224.227 455.571 228.601C453.085 233.274 417.193 281.893 416.099 281.992C414.409 281.992 379.71 255.645 380.008 254.551C381.102 251.568 418.485 202.552 421.17 200.663C425.644 197.382 428.229 196.587 434.592 196.587C438.37 196.488 441.751 197.184 444.733 198.575ZM390.945 277.916C410.233 292.332 412.421 294.221 413.315 297.602C413.813 299.689 416.696 311.123 419.679 323.054L425.147 344.629L420.474 341.348C409.537 333.494 320.354 266.78 318.962 265.488C317.769 264.295 318.465 264.096 323.933 263.996C327.513 263.897 336.461 263.499 343.818 263.201C351.176 262.803 360.024 262.406 363.405 262.306L369.668 262.107L390.945 277.916ZM365.691 314.802C395.519 336.874 420.076 355.068 420.275 355.168C420.872 355.665 375.435 416.214 373.347 417.705C370.265 419.893 364.797 419.495 361.019 416.91C359.229 415.717 357.738 414.524 357.738 414.226C357.738 413.927 364.3 404.979 372.154 394.341C380.108 383.703 386.57 374.257 386.57 373.263C386.57 371.275 383.19 367.496 381.5 367.496C378.815 367.496 375.733 370.777 362.709 388.375C354.954 398.716 348.491 407.266 348.392 407.266C348.292 407.266 345.807 405.576 343.023 403.488L337.952 399.61L342.824 392.85C348.093 385.79 348.889 382.609 346.204 379.924C343.122 376.842 339.742 378.433 334.373 385.592C331.689 389.27 329.004 392.253 328.606 392.253C327.413 392.352 319.062 385.989 318.962 384.995C318.962 384.498 325.226 375.749 332.882 365.508C342.128 353.08 346.801 345.922 346.801 344.331C346.801 341.149 344.415 338.664 341.233 338.664C339.245 338.664 336.163 342.243 324.033 358.449L309.219 378.234L304.148 374.655C301.364 372.667 299.078 370.777 299.078 370.479C299.078 370.181 301.364 366.9 304.049 363.122C306.833 359.344 309.02 355.566 309.02 354.77C309.02 352.285 305.938 349.6 302.955 349.6C300.768 349.6 299.276 350.893 295.101 356.56C292.217 360.338 289.732 363.52 289.433 363.52C288.24 363.52 279.69 356.262 279.988 355.367C280.088 354.87 286.451 346.021 294.106 335.681C301.762 325.44 308.026 316.194 308.026 315.2C308.026 312.615 305.043 309.831 302.359 309.831C299.376 309.831 298.879 310.427 283.667 331.008C276.608 340.652 270.245 348.507 269.648 348.606C267.66 348.606 262.39 343.038 261.694 340.155C261.296 338.664 261.396 336.377 261.893 335.084C262.39 333.792 273.028 318.978 285.556 302.274C305.838 275.032 308.423 272.05 309.915 273.342C310.81 274.038 335.864 292.73 365.691 314.802Z" fill="url(#paint1_linear_102_38)"/>
<path d="M246.383 194.499C245.19 195.692 244.394 197.88 244.394 199.669C244.295 207.722 236.54 216.671 228.586 217.864C222.024 218.858 220.135 219.852 219.141 222.636C217.749 226.514 220.831 229.297 227.592 230.391C236.242 231.783 244.295 240.234 244.394 247.989C244.394 251.27 247.974 256.142 250.36 256.142C252.448 256.142 256.325 251.27 256.325 248.685C256.325 245.305 258.91 239.339 261.595 236.456C264.478 233.374 270.543 230.292 273.724 230.292C276.508 230.292 280.286 228.701 281.38 226.911C283.766 223.332 280.088 218.361 275.017 218.361C270.941 218.361 264.478 215.378 261.595 212.296C258.711 209.214 256.325 203.348 256.325 199.47C256.325 196.09 253.343 192.511 250.36 192.511C249.266 192.511 247.477 193.405 246.383 194.499ZM254.039 220.349L258.016 224.227L254.138 228.005L250.36 231.684L246.582 228.005L242.704 224.227L246.284 220.449C248.272 218.361 249.962 216.571 249.962 216.472C250.062 216.472 251.851 218.162 254.039 220.349Z" fill="url(#paint2_linear_102_38)"/>
<path d="M151.135 214.98C149.942 215.776 148.948 217.466 148.948 218.659C148.948 223.431 146.661 228.601 142.982 232.28C139.9 235.362 137.912 236.456 132.94 237.45C128.765 238.345 126.378 239.339 125.384 240.831C123.396 243.913 125.185 247.989 128.765 248.685C140.298 251.071 145.965 255.346 147.854 263.102C150.041 272.149 150.34 272.547 153.521 272.845C157.299 273.243 159.884 270.956 159.884 267.277C159.984 259.224 167.739 250.674 175.891 249.58C181.658 248.784 183.746 247.194 183.746 243.316C183.746 240.135 182.155 238.246 179.371 238.246C175.394 238.246 169.827 236.158 166.744 233.573C163.165 230.491 159.984 224.227 159.884 220.051C159.884 217.267 156.802 213.39 154.615 213.39C153.919 213.39 152.328 214.086 151.135 214.98ZM157.597 246.796L154.416 250.077L151.234 246.995L147.953 243.813L151.135 240.532L154.316 237.251L157.597 240.433L160.779 243.515L157.597 246.796Z" fill="url(#paint3_linear_102_38)"/>
<path d="M455.67 333.295C446.523 338.266 442.049 347.413 444.236 356.759C445.728 362.625 449.804 367.795 455.471 370.678C461.138 373.561 470.285 372.865 475.853 369.286C480.725 366.005 485 357.952 485 352.086C485 346.22 480.725 338.166 475.754 334.885C470.782 331.505 460.343 330.71 455.67 333.295ZM468.496 343.734C470.782 344.828 474.063 349.898 474.063 352.583C474.063 356.958 468.695 361.531 463.525 361.531C459.647 361.531 455.173 356.46 455.173 352.086C455.173 349.401 455.968 347.711 458.056 345.524C461.138 342.442 464.419 341.945 468.496 343.734Z" fill="url(#paint4_linear_102_38)"/>
<path d="M432.504 381.615C429.024 385.094 432.703 391.358 438.171 391.358C453.88 391.358 465.712 410.448 459.05 425.162C454.676 435.005 447.716 439.28 435.785 439.778C427.135 440.076 425.346 441.17 425.346 445.942C425.246 452.007 419.082 460.657 413.117 462.844C404.268 466.224 395.717 462.844 389.951 453.697C387.167 449.422 383.488 448.825 379.313 452.007C375.137 455.288 370.066 456.978 364.2 456.978C354.954 456.978 349.088 453.498 342.625 444.252C339.742 439.976 339.444 439.877 335.467 440.474C333.279 440.871 327.712 441.368 323.237 441.667C315.98 442.164 314.488 441.965 309.815 439.778C306.833 438.485 302.856 435.9 300.768 434.21C296.393 430.233 291.422 420.489 290.527 413.729C289.831 408.061 287.843 405.278 284.661 405.278C279.392 405.278 278 411.044 280.684 421.682C283.766 433.414 292.516 444.252 303.353 449.422C310.611 453.001 321.249 454.592 328.308 453.399L333.776 452.404L338.946 457.574C346.403 465.131 353.959 468.312 364.2 468.312C369.967 468.312 373.645 467.716 377.622 466.125L382.991 463.938L386.57 467.417C400.887 481.337 427.135 475.471 434.095 456.68C436.084 451.51 436.084 451.51 441.254 450.913C452.687 449.422 464.022 441.07 469.291 430.332C472.671 423.273 472.97 410.646 469.987 402.792C466.905 394.639 457.957 385.592 449.903 382.609C443.64 380.223 434.393 379.726 432.504 381.615Z" fill="url(#paint5_linear_102_38)"/>
<defs>
<linearGradient id="paint0_linear_102_38" x1="182.1" y1="460.955" x2="182.1" y2="0.77182" gradientUnits="userSpaceOnUse">
<stop stop-color="#05828A"/>
<stop offset="1" stop-color="#39BFB7"/>
</linearGradient>
<linearGradient id="paint1_linear_102_38" x1="359.695" y1="430.872" x2="359.695" y2="185.102" gradientUnits="userSpaceOnUse">
<stop stop-color="#05828A"/>
<stop offset="1" stop-color="#39BFB7"/>
</linearGradient>
<linearGradient id="paint2_linear_102_38" x1="250.469" y1="256.142" x2="250.469" y2="192.511" gradientUnits="userSpaceOnUse">
<stop stop-color="#05828A"/>
<stop offset="1" stop-color="#39BFB7"/>
</linearGradient>
<linearGradient id="paint3_linear_102_38" x1="154.152" y1="272.89" x2="154.152" y2="213.39" gradientUnits="userSpaceOnUse">
<stop stop-color="#05828A"/>
<stop offset="1" stop-color="#39BFB7"/>
</linearGradient>
<linearGradient id="paint4_linear_102_38" x1="464.344" y1="372.468" x2="464.344" y2="331.764" gradientUnits="userSpaceOnUse">
<stop stop-color="#05828A"/>
<stop offset="1" stop-color="#39BFB7"/>
</linearGradient>
<linearGradient id="paint5_linear_102_38" x1="375.695" y1="475.092" x2="375.695" y2="380.46" gradientUnits="userSpaceOnUse">
<stop stop-color="#05828A"/>
<stop offset="1" stop-color="#39BFB7"/>
</linearGradient>
</defs>
</svg>
