<svg xmlns="http://www.w3.org/2000/svg" xmlns:xlink="http://www.w3.org/1999/xlink" preserveAspectRatio="xMidYMid" width="52" height="53" viewBox="0 0 52 53" id="svg-1">
  <defs id="defs-2">
    
  </defs>
  <path d="M47.846,14.000 C47.846,14.000 49.839,14.000 49.839,14.000 C49.839,14.000 49.839,16.000 49.839,16.000 C49.839,16.000 47.846,16.000 47.846,16.000 C47.846,16.000 47.846,14.000 47.846,14.000 ZM47.846,9.000 C47.846,5.141 44.716,2.000 40.870,2.000 C40.870,2.000 36.883,2.000 36.883,2.000 C36.883,2.000 36.883,-0.000 36.883,-0.000 C36.883,-0.000 40.870,-0.000 40.870,-0.000 C45.816,-0.000 49.839,4.037 49.839,9.000 C49.839,9.000 49.839,12.000 49.839,12.000 C49.839,12.000 47.846,12.000 47.846,12.000 C47.846,12.000 47.846,9.000 47.846,9.000 ZM45.853,9.000 C45.853,9.000 45.853,40.000 45.853,40.000 C45.853,43.431 49.519,46.165 49.556,46.192 C49.556,46.192 52.016,47.999 52.016,47.999 C52.016,47.999 48.969,48.000 48.969,48.000 C48.969,48.000 16.788,47.986 16.788,47.986 C14.432,47.593 9.975,45.416 9.975,40.000 C9.975,40.000 9.975,14.000 9.975,14.000 C9.975,14.000 0.010,14.000 0.010,14.000 C0.010,14.000 0.010,10.000 0.010,10.000 C0.010,7.014 2.166,4.000 6.986,4.000 C6.986,4.000 13.065,4.000 13.065,4.000 C13.524,1.721 15.521,-0.000 17.908,-0.000 C17.908,-0.000 22.931,-0.000 22.931,-0.000 C25.130,-0.000 26.918,1.794 26.918,4.000 C26.918,4.000 39.873,4.000 39.873,4.000 C43.562,4.000 45.853,5.916 45.853,9.000 ZM9.975,10.000 C9.975,8.407 8.783,6.000 6.986,6.000 C3.865,6.000 2.003,7.495 2.003,10.000 C2.003,10.000 2.003,12.000 2.003,12.000 C2.003,12.000 9.975,12.000 9.975,12.000 C9.975,12.000 9.975,10.000 9.975,10.000 ZM22.931,2.000 C22.931,2.000 17.908,2.000 17.908,2.000 C16.628,2.000 15.547,2.838 15.140,4.000 C15.140,4.000 16.952,4.000 16.952,4.000 C18.050,4.000 18.945,4.897 18.945,6.000 C18.945,6.000 18.945,14.589 18.945,14.589 C19.869,14.212 20.877,14.000 21.935,14.000 C22.992,14.000 24.000,14.212 24.924,14.589 C24.924,14.589 24.924,4.000 24.924,4.000 C24.924,2.897 24.030,2.000 22.931,2.000 ZM26.918,15.765 C28.738,17.232 29.907,19.480 29.907,22.000 C29.907,26.411 26.331,30.000 21.935,30.000 C20.865,30.000 19.826,29.791 18.847,29.378 C18.847,29.378 19.620,27.534 19.620,27.534 C20.353,27.844 21.132,28.000 21.935,28.000 C25.232,28.000 27.914,25.308 27.914,22.000 C27.914,18.691 25.232,16.000 21.935,16.000 C18.637,16.000 15.955,18.691 15.955,22.000 C15.955,22.000 13.962,22.000 13.962,22.000 C13.962,19.480 15.132,17.232 16.952,15.765 C16.952,15.765 16.952,6.000 16.952,6.000 C16.952,6.000 10.587,6.000 10.587,6.000 C11.476,7.196 11.969,8.725 11.969,10.000 C11.969,10.000 11.969,40.000 11.969,40.000 C11.969,44.819 16.387,45.871 17.042,46.000 C17.042,46.000 46.451,46.000 46.451,46.000 C45.221,44.605 43.860,42.498 43.860,40.000 C43.860,40.000 43.860,9.000 43.860,9.000 C43.860,6.520 41.692,6.000 39.873,6.000 C39.873,6.000 26.918,6.000 26.918,6.000 C26.918,6.000 26.918,15.765 26.918,15.765 ZM41.866,12.000 C41.866,12.000 29.907,12.000 29.907,12.000 C29.907,12.000 29.907,10.000 29.907,10.000 C29.907,10.000 41.866,10.000 41.866,10.000 C41.866,10.000 41.866,12.000 41.866,12.000 ZM34.890,34.000 C34.890,34.000 14.958,34.000 14.958,34.000 C14.958,34.000 14.958,32.000 14.958,32.000 C14.958,32.000 34.890,32.000 34.890,32.000 C34.890,32.000 34.890,34.000 34.890,34.000 ZM21.935,18.000 C24.133,18.000 25.921,19.794 25.921,22.000 C25.921,24.206 24.133,26.000 21.935,26.000 C19.736,26.000 17.948,24.206 17.948,22.000 C17.948,19.794 19.736,18.000 21.935,18.000 ZM21.935,24.000 C23.033,24.000 23.928,23.102 23.928,22.000 C23.928,20.897 23.033,20.000 21.935,20.000 C20.836,20.000 19.941,20.897 19.941,22.000 C19.941,23.102 20.836,24.000 21.935,24.000 ZM14.401,24.624 C14.401,24.624 16.283,23.968 16.283,23.968 C16.531,24.683 16.909,25.339 17.404,25.917 C17.404,25.917 15.894,27.222 15.894,27.222 C15.234,26.453 14.732,25.579 14.401,24.624 ZM24.924,40.000 C24.924,40.000 14.958,40.000 14.958,40.000 C14.958,40.000 14.958,38.000 14.958,38.000 C14.958,38.000 24.924,38.000 24.924,38.000 C24.924,38.000 24.924,40.000 24.924,40.000 ZM28.911,40.000 C28.911,40.000 26.918,40.000 26.918,40.000 C26.918,40.000 26.918,38.000 26.918,38.000 C26.918,38.000 28.911,38.000 28.911,38.000 C28.911,38.000 28.911,40.000 28.911,40.000 ZM41.866,40.000 C41.866,40.000 30.904,40.000 30.904,40.000 C30.904,40.000 30.904,38.000 30.904,38.000 C30.904,38.000 41.866,38.000 41.866,38.000 C41.866,38.000 41.866,40.000 41.866,40.000 ZM36.883,32.000 C36.883,32.000 41.866,32.000 41.866,32.000 C41.866,32.000 41.866,34.000 41.866,34.000 C41.866,34.000 36.883,34.000 36.883,34.000 C36.883,34.000 36.883,32.000 36.883,32.000 ZM31.900,22.000 C31.900,22.000 41.866,22.000 41.866,22.000 C41.866,22.000 41.866,24.000 41.866,24.000 C41.866,24.000 31.900,24.000 31.900,24.000 C31.900,24.000 31.900,22.000 31.900,22.000 ZM31.900,16.000 C31.900,16.000 41.866,16.000 41.866,16.000 C41.866,16.000 41.866,18.000 41.866,18.000 C41.866,18.000 31.900,18.000 31.900,18.000 C31.900,18.000 31.900,16.000 31.900,16.000 ZM7.982,37.000 C7.982,37.000 5.989,37.000 5.989,37.000 C5.989,37.000 5.989,35.000 5.989,35.000 C5.989,35.000 7.982,35.000 7.982,35.000 C7.982,35.000 7.982,37.000 7.982,37.000 ZM7.982,40.000 C7.982,46.065 12.900,51.000 18.945,51.000 C18.945,51.000 18.945,53.000 18.945,53.000 C11.801,53.000 5.989,47.168 5.989,40.000 C5.989,40.000 5.989,39.000 5.989,39.000 C5.989,39.000 7.982,39.000 7.982,39.000 C7.982,39.000 7.982,40.000 7.982,40.000 Z" id="path-1" class="cls-2" fill-rule="evenodd" fill="#ffffff" fill-opacity="0.9" type="solidColor"></path>
</svg>