<svg width="647" height="683" viewBox="0 0 647 683" fill="none" xmlns="http://www.w3.org/2000/svg">
<path d="M219.135 23.8667C216.356 25.2 212.315 28.4 210.041 30.8C201.453 40.4 202.084 20.9333 202.084 278.667V512H148.153C96.4952 512 93.9692 512.133 89.9275 514.667C82.0967 519.733 80.8337 523.867 80.8337 543.733C80.8337 561.333 80.8337 561.467 70.7295 604C65.1721 627.467 60.6252 648.667 60.6252 651.333C60.6252 654.267 61.6357 657.067 63.1513 658.667C65.6774 661.333 67.3193 661.333 308.178 661.333C549.038 661.333 550.68 661.333 553.206 658.667C555.479 656.267 555.732 654.133 555.732 634.933C555.732 618.8 557.5 596.933 563.184 540.267L570.635 466.533L575.688 461.867C578.466 459.333 582.003 454.8 583.392 451.6C585.918 446.133 586.044 443.733 586.044 397.733V349.733L582.129 341.6C577.708 332.267 571.898 326.667 562.426 322.4L555.732 319.467V306.133C555.732 254.267 519.735 206.933 471.109 194.667C456.332 190.933 432.839 190.933 418.062 194.667C386.486 202.667 358.573 226.533 344.175 257.733C335.081 277.6 333.439 287.467 333.439 322.267V352H310.705C280.518 352 282.918 349.333 282.918 384C282.918 408.933 283.044 410.8 285.444 413.333C286.833 414.8 289.107 416 290.496 416C293.654 416 293.401 414.533 298.074 462.667C300.221 485.067 302.242 505.333 302.621 507.6L303.253 512H282.918H262.71V278.267C262.71 53.6 262.583 44.4 260.31 39.3333C257.405 32.8 250.963 26.1333 244.775 23.4667C238.207 20.5333 225.45 20.8 219.135 23.8667ZM237.449 45.3333C238.712 46 240.354 48.5333 241.112 50.8C242.122 53.8667 242.501 120.133 242.501 283.467V512H232.397H222.293V283.467C222.293 127.733 222.672 53.6 223.556 51.0667C225.955 44.5333 231.765 42.1333 237.449 45.3333ZM457.468 215.333C480.834 217.6 508.495 237.067 521.883 260.667C529.966 274.8 535.271 296.667 535.523 316.933V320H483.992H432.334L424.63 324.133C415.788 328.8 410.484 334.933 406.442 344.933L403.663 352H378.655H353.647V332.933C353.774 306.533 355.416 290.4 359.457 278.533C368.677 251.067 389.517 229.2 415.536 219.333C424.63 216 440.417 213.333 447.111 214.133C448.88 214.4 453.553 214.933 457.468 215.333ZM556.49 344.8C558.384 346.267 561.163 349.2 562.552 351.2C565.078 354.667 565.204 356.933 565.583 394.4C566.089 438.267 565.331 443.6 559.395 445.867C557.626 446.533 554.595 446.667 552.7 446.133C546.891 444.667 545.628 438.933 545.628 415.333V394.667H535.523H525.419V415.333C525.419 438.667 524.03 444.667 518.599 446.133C516.831 446.533 513.799 446.533 512.031 446.133C506.6 444.667 505.211 438.667 505.211 415.333V394.667H495.106H485.002V415.333C485.002 438.667 483.613 444.667 478.182 446.133C476.414 446.533 473.382 446.533 471.614 446.133C466.183 444.667 464.794 438.667 464.794 415.333V394.667H454.69H444.585V415.2C444.585 436.4 443.449 443.067 439.533 445.333C435.744 447.467 430.945 446.933 428.166 444C425.766 441.467 425.64 439.6 425.64 397.333V353.333L429.808 348.533C432.081 345.867 435.87 343.333 438.27 342.667C440.67 342 467.572 341.6 497.885 341.733C551.437 342 553.079 342.133 556.49 344.8ZM404.169 384V394.667H353.647H303.126V384V373.333H353.647H404.169V384ZM404.169 430.667C404.169 447.2 405.305 451.333 411.873 459.333C417.683 466.267 424.377 469.333 434.607 469.333C440.796 469.333 444.333 468.533 448.753 466.133L454.69 463.067L460.626 466.133C468.835 470.533 480.961 470.533 489.17 466.133L495.106 463.067L501.043 466.133C509.252 470.533 521.377 470.533 529.587 466.133L535.523 463.067L541.838 466.4C545.501 468.267 548.154 470.533 548.154 471.867C548.154 475.2 536.786 590.933 536.029 594.4L535.523 597.333L463.91 597.067L392.296 596.667L388.128 579.333C384.465 564 383.96 559.867 383.96 544C383.96 523.867 382.697 519.733 374.866 514.667C371.077 512.267 368.425 512 347.711 512C334.955 512 324.598 511.6 324.598 510.933C324.472 510.4 322.324 488.8 319.798 462.933L314.999 416H359.584H404.169V430.667ZM363.752 544V554.667H232.397H101.042V544V533.333H232.397H363.752V544ZM117.461 576.933C117.461 577.6 114.051 591.733 110.136 608.667L102.81 639.333L93.7165 639.733C88.6644 640 84.6228 639.733 84.6228 639.333C84.6228 638.4 98.3897 580 99.1476 577.6C99.7791 575.867 117.461 575.2 117.461 576.933ZM157.878 576.933C157.878 577.6 154.468 591.733 150.553 608.667L143.227 639.333L134.133 639.733C129.081 640 125.04 639.733 125.04 639.333C125.04 638.4 138.807 580 139.564 577.6C140.196 575.867 157.878 575.2 157.878 576.933ZM199.558 578.933C199.432 580.667 197.916 594.933 196.022 610.667L192.612 639.333L178.971 639.733C171.519 639.867 165.456 639.733 165.456 639.333C165.456 638.4 179.223 580 179.981 577.6C180.36 576.533 183.518 576 190.085 576C199.053 576 199.558 576.133 199.558 578.933ZM246.543 605.333C248.437 621.067 249.953 635.333 250.079 636.933C250.079 640 249.953 640 232.397 640C219.135 640 214.715 639.6 214.715 638.267C214.715 635.733 221.156 579.467 221.787 577.6C222.166 576.4 225.071 576 232.649 576.267L243.133 576.667L246.543 605.333ZM292.012 607.333C295.927 624.133 299.337 638.533 299.337 639.067C299.337 639.6 293.275 639.867 285.823 639.733L272.182 639.333L268.772 610.667C264.099 571.6 263.341 575.867 274.961 576.267L284.686 576.667L292.012 607.333ZM332.429 607.333C336.344 624.133 339.754 638.533 339.754 639.067C339.754 639.6 335.712 640 330.66 639.733L321.567 639.333L314.241 608.667C310.326 591.733 306.915 577.467 306.915 576.933C306.915 576.4 310.957 576 316.009 576.267L325.103 576.667L332.429 607.333ZM372.845 607.333C376.761 624.133 380.171 638.533 380.171 639.067C380.171 639.6 376.129 640 371.077 639.733L361.983 639.333L354.658 608.667C350.742 591.733 347.332 577.467 347.332 576.933C347.332 576.4 351.374 576 356.426 576.267L365.52 576.667L372.845 607.333ZM535.523 629.333V640L468.962 639.733L402.4 639.333L400.127 630C398.99 624.8 397.853 620.267 397.853 619.6C397.853 619.067 428.798 618.667 466.688 618.667H535.523V629.333Z" fill="url(#paint0_linear_2_191)"/>
<path d="M495.106 490.667V501.333H505.211H515.315V490.667V480H505.211H495.106V490.667Z" fill="url(#paint1_linear_2_191)"/>
<path d="M495.106 549.333V576H505.211H515.315V549.333V522.667H505.211H495.106V549.333Z" fill="url(#paint2_linear_2_191)"/>
<path d="M569.878 139.6C568.994 140 566.215 144.667 563.815 150.133C557.879 163.333 548.785 172.933 536.408 179.2C526.682 184 525.419 185.6 525.419 192C525.419 198.4 526.682 200 536.408 204.8C548.785 211.067 557.879 220.667 563.815 233.733C568.362 244 569.878 245.333 575.94 245.333C582.003 245.333 583.518 244 588.065 233.733C594.002 220.667 603.095 211.067 615.473 204.8C625.198 200 626.461 198.4 626.461 192C626.461 185.6 625.198 184 615.473 179.2C603.095 172.933 594.002 163.333 588.065 150.267C585.666 144.8 582.761 140 581.624 139.467C579.224 138.533 572.277 138.533 569.878 139.6ZM583.771 183.333L591.981 192L583.897 200.4L575.94 208.933L567.983 200.4L559.9 192L567.604 183.467C571.899 178.933 575.309 174.933 575.435 174.8C575.435 174.8 579.224 178.533 583.771 183.333Z" fill="url(#paint3_linear_2_191)"/>
<path d="M125.292 267.6C124.408 268 121.63 272.667 119.23 278.133C113.294 291.333 104.2 300.933 91.8221 307.2C82.0968 312 80.8337 313.6 80.8337 320C80.8337 326.4 82.0968 328 91.8221 332.8C104.2 339.067 113.294 348.667 119.23 361.733C123.777 372 125.292 373.333 131.355 373.333C137.417 373.333 138.933 372 143.48 361.733C149.416 348.667 158.51 339.067 170.888 332.8C180.613 328 181.876 326.4 181.876 320C181.876 313.6 180.613 312 170.888 307.2C158.51 300.933 149.416 291.333 143.48 278.267C141.08 272.8 138.175 268 137.038 267.467C134.639 266.533 127.692 266.533 125.292 267.6ZM139.186 311.333L147.395 320L139.312 328.4L131.355 336.933L123.398 328.4L115.314 320L123.019 311.467C127.313 306.933 130.723 302.933 130.85 302.8C130.85 302.8 134.639 306.533 139.186 311.333Z" fill="url(#paint4_linear_2_191)"/>
<path d="M64.667 395.6C63.7829 396 61.0043 400.667 58.6045 406.133C52.6683 419.333 43.5745 428.933 31.1968 435.2C21.4715 440 20.2085 441.6 20.2085 448C20.2085 454.4 21.4715 456 31.1968 460.8C43.5745 467.067 52.6683 476.667 58.6045 489.733C63.1514 500 64.667 501.333 70.7296 501.333C76.7921 501.333 78.3077 500 82.8546 489.733C88.7908 476.667 97.8846 467.067 110.262 460.8C119.988 456 121.251 454.4 121.251 448C121.251 441.6 119.988 440 110.262 435.2C97.8846 428.933 88.7908 419.333 82.8546 406.267C80.4549 400.8 77.5499 396 76.4132 395.467C74.0134 394.533 67.0668 394.533 64.667 395.6ZM78.5603 439.333L86.77 448L78.6866 456.4L70.7296 464.933L62.7725 456.4L54.6891 448L62.3936 439.467C66.6879 434.933 70.0981 430.933 70.2244 430.8C70.2244 430.8 74.0134 434.533 78.5603 439.333Z" fill="url(#paint5_linear_2_191)"/>
<defs>
<linearGradient id="paint0_linear_2_191" x1="323.335" y1="661.333" x2="323.335" y2="21.4097" gradientUnits="userSpaceOnUse">
<stop stop-color="#05828A"/>
<stop offset="1" stop-color="#39BFB7"/>
</linearGradient>
<linearGradient id="paint1_linear_2_191" x1="505.211" y1="501.333" x2="505.211" y2="480" gradientUnits="userSpaceOnUse">
<stop stop-color="#05828A"/>
<stop offset="1" stop-color="#39BFB7"/>
</linearGradient>
<linearGradient id="paint2_linear_2_191" x1="505.211" y1="576" x2="505.211" y2="522.667" gradientUnits="userSpaceOnUse">
<stop stop-color="#05828A"/>
<stop offset="1" stop-color="#39BFB7"/>
</linearGradient>
<linearGradient id="paint3_linear_2_191" x1="575.94" y1="245.333" x2="575.94" y2="138.783" gradientUnits="userSpaceOnUse">
<stop stop-color="#05828A"/>
<stop offset="1" stop-color="#39BFB7"/>
</linearGradient>
<linearGradient id="paint4_linear_2_191" x1="131.355" y1="373.333" x2="131.355" y2="266.783" gradientUnits="userSpaceOnUse">
<stop stop-color="#05828A"/>
<stop offset="1" stop-color="#39BFB7"/>
</linearGradient>
<linearGradient id="paint5_linear_2_191" x1="70.7296" y1="501.333" x2="70.7296" y2="394.783" gradientUnits="userSpaceOnUse">
<stop stop-color="#05828A"/>
<stop offset="1" stop-color="#39BFB7"/>
</linearGradient>
</defs>
</svg>
