<svg width="668" height="668" viewBox="0 0 668 668" fill="none" xmlns="http://www.w3.org/2000/svg">
<path d="M634 334C634 499.687 499.687 634 334 634C168.315 634 34 499.687 34 334C34 168.315 168.315 34 334 34C499.687 34 634 168.315 634 334Z" stroke="#0DBABA" stroke-width="66.6667"/>
<path d="M200.667 300.667C182.257 300.667 167.333 315.591 167.333 334C167.333 352.409 182.257 367.333 200.667 367.333V300.667ZM467.333 300.667H200.667V367.333H467.333V300.667Z" fill="#0DBABA"/>
<path d="M367.333 434L464.433 336.9C466.033 335.3 466.033 332.7 464.433 331.1L367.333 234" stroke="#0DBABA" stroke-width="66.6667" stroke-linecap="round" stroke-linejoin="round"/>
</svg>
