<svg width="42" height="32" viewBox="0 0 42 32" fill="none" xmlns="http://www.w3.org/2000/svg">
<path d="M41.0767 8.01604L41.0988 8.01093C41.1417 8.31074 41.1749 8.61186 41.1984 8.91383L41.1983 8.91384L41.1993 8.92338C41.2841 9.79617 41.3256 11.0148 41.2559 12.4885C41.172 13.9545 40.9554 15.6632 40.4733 17.4585C40.2184 18.3553 39.9079 19.274 39.5244 20.1694C39.4792 20.2647 39.4346 20.3595 39.3902 20.4536C38.9984 21.2852 38.629 22.0691 38.1116 22.7896L38.0986 22.8077L38.0873 22.8268C37.5886 23.6705 36.9399 24.4216 36.2564 25.1632L36.2435 25.1771L36.2318 25.192C35.9497 25.5488 35.611 25.8574 35.2407 26.1632C35.116 26.2663 34.9823 26.3731 34.8457 26.4821C34.5981 26.6799 34.3411 26.8852 34.1105 27.0896C33.7786 27.3657 33.4188 27.595 33.0421 27.8163C32.9192 27.8885 32.7905 27.9619 32.66 28.0365C32.4031 28.1832 32.1387 28.3342 31.8959 28.4881L31.8959 28.488L31.8854 28.495C31.571 28.7055 31.2372 28.8591 30.8866 29.0002C30.7732 29.0458 30.6514 29.0925 30.5267 29.1403C30.2928 29.2299 30.0485 29.3235 29.8287 29.422C29.6466 29.4928 29.4774 29.5617 29.3181 29.6265C28.8495 29.8171 28.4669 29.9728 28.0937 30.0416L28.0777 30.0446L28.0619 30.0486C27.742 30.1295 27.456 30.1998 27.1924 30.2647C26.9936 30.3136 26.8076 30.3593 26.6294 30.4041C26.6287 30.4043 26.6279 30.4045 26.6271 30.4047L25.8702 30.5872L25.0863 27.4465L25.6748 27.2019L25.6763 27.2013L26.7809 26.7464C27.0495 26.657 27.2972 26.5258 27.5238 26.3936C27.6289 26.3323 27.7345 26.2677 27.8368 26.2052L27.87 26.1849C27.9844 26.1149 28.096 26.0471 28.2102 25.9817L28.2248 25.9733L28.2388 25.9639C28.3807 25.8694 28.5247 25.7901 28.6909 25.6986C28.7744 25.6527 28.8634 25.6036 28.9605 25.5481C29.2289 25.3946 29.5272 25.2067 29.794 24.9453C29.9471 24.8041 30.1109 24.6765 30.295 24.533C30.3584 24.4837 30.4242 24.4325 30.4927 24.3782C30.7503 24.1742 31.0314 23.9381 31.2753 23.6445L31.2811 23.6375L31.2866 23.6303C31.4177 23.4603 31.56 23.3099 31.7214 23.1393C31.7841 23.0731 31.8496 23.0039 31.9185 22.9292C32.1454 22.6834 32.3902 22.3964 32.575 22.0423C32.5827 22.0306 32.5905 22.0188 32.5982 22.007C32.9449 21.4805 33.3246 20.9038 33.5766 20.2372C33.8324 19.7517 33.9895 19.2235 34.1281 18.7578L34.1282 18.7571L34.3513 18.0071L33.577 18.1198C33.5458 18.1243 33.5149 18.1289 33.4842 18.1334C33.0658 18.1945 32.6867 18.25 32.2948 18.25H32.2947C30.6188 18.2506 28.977 17.7766 27.5592 16.883C26.1415 15.9893 25.0057 14.7125 24.2834 13.2003C23.561 11.688 23.2816 10.0022 23.4775 8.33776C23.6734 6.67335 24.3365 5.09841 25.3901 3.79517C26.4438 2.49193 27.8449 1.51366 29.4314 0.973546C31.0179 0.43343 32.7249 0.353548 34.3548 0.743142C35.9848 1.13274 37.4712 1.97588 38.6419 3.17502C39.8127 4.37417 40.62 5.88029 40.9705 7.51914L41.0767 8.01604ZM2.95564 30.583L2.17176 27.4427C2.326 27.379 2.52261 27.2982 2.75688 27.2024L2.75816 27.2019L3.86416 26.7464C4.13281 26.657 4.38054 26.5258 4.60718 26.3936C4.71206 26.3324 4.81756 26.2679 4.91971 26.2054L4.95337 26.1849C5.06775 26.1149 5.17936 26.0471 5.2935 25.9817L5.30814 25.9733L5.32218 25.9639C5.46399 25.8694 5.60805 25.7901 5.77422 25.6986C5.85769 25.6527 5.94673 25.6036 6.04387 25.5481C6.3122 25.3946 6.61057 25.2067 6.87734 24.9453C7.03042 24.8041 7.19421 24.6765 7.37841 24.533C7.44175 24.4837 7.50751 24.4325 7.57607 24.3782C7.8336 24.1742 8.11472 23.9381 8.35862 23.6445L8.36442 23.6375L8.36995 23.6303C8.50106 23.4603 8.64333 23.3099 8.80475 23.1393C8.8674 23.0731 8.93295 23.0039 9.00184 22.9292C9.22873 22.6834 9.47357 22.3964 9.65833 22.0423C9.66606 22.0306 9.67381 22.0188 9.68157 22.007C10.0283 21.4805 10.408 20.9038 10.66 20.2372C10.9158 19.7518 11.0729 19.2235 11.2114 18.7578L11.2116 18.7571L11.4346 18.0071L10.6603 18.1198C10.6292 18.1243 10.5982 18.1289 10.5675 18.1334C10.1492 18.1945 9.77 18.25 9.37816 18.25H9.37799C7.7021 18.2506 6.06029 17.7766 4.64254 16.883C3.22479 15.9893 2.08903 14.7125 1.3667 13.2003C0.644361 11.688 0.364961 10.0022 0.560826 8.33776C0.756691 6.67335 1.41982 5.09841 2.47347 3.79517C3.52713 2.49193 4.92826 1.51366 6.51473 0.973546C8.1012 0.43343 9.80819 0.353548 11.4382 0.743142C13.0682 1.13274 14.5545 1.97588 15.7253 3.17502C16.896 4.37417 17.7034 5.88029 18.0538 7.51914L18.1601 8.01603L18.1821 8.01094C18.225 8.31028 18.259 8.61085 18.284 8.91224L18.284 8.91224L18.2847 8.91922C18.3695 9.792 18.411 11.0106 18.3413 12.4843C18.2574 13.9503 18.0408 15.659 17.5587 17.4543C17.3038 18.3511 16.9933 19.2698 16.6098 20.1652C16.5646 20.2605 16.52 20.3553 16.4756 20.4494C16.0838 21.281 15.7144 22.0649 15.197 22.7854L15.1841 22.8035L15.1727 22.8227C14.674 23.6663 14.0253 24.4175 13.3418 25.159L13.3289 25.173L13.3172 25.1878C13.0351 25.5446 12.6964 25.8532 12.3262 26.159C12.2014 26.2621 12.0677 26.3689 11.9311 26.478C11.6836 26.6757 11.4266 26.881 11.1959 27.0854C10.864 27.3615 10.5042 27.5909 10.1275 27.8121C10.0046 27.8843 9.876 27.9578 9.74544 28.0323C9.48853 28.1791 9.22416 28.33 8.98135 28.4839L8.98126 28.4838L8.9708 28.4908C8.65639 28.7013 8.32263 28.855 7.97202 28.996C7.85856 29.0417 7.7368 29.0883 7.61205 29.1361C7.37821 29.2257 7.13388 29.3193 6.9141 29.4178C6.73199 29.4887 6.5628 29.5575 6.40354 29.6223C5.93498 29.8129 5.5523 29.9686 5.17911 30.0375L5.16307 30.0404L5.14727 30.0444C4.82749 30.1253 4.5415 30.1956 4.27793 30.2605C4.0791 30.3094 3.89302 30.3552 3.71483 30.3999C3.71407 30.4001 3.71331 30.4003 3.71254 30.4005L2.95564 30.583Z" fill="#F5DA29" stroke="black"/>
</svg>
