<svg xmlns="http://www.w3.org/2000/svg" xmlns:xlink="http://www.w3.org/1999/xlink" preserveAspectRatio="xMidYMid" width="56" height="60" viewBox="0 0 56 60" id="svg-1">
  <defs id="defs-2">
    
  </defs>
  <path d="M48.000,16.000 C48.000,16.000 48.000,14.000 48.000,14.000 C48.000,14.000 56.000,14.000 56.000,14.000 C56.000,14.000 56.000,16.000 56.000,16.000 C56.000,16.000 48.000,16.000 48.000,16.000 ZM44.707,7.879 C44.707,7.879 50.894,1.691 50.894,1.691 C50.894,1.691 52.308,3.105 52.308,3.105 C52.308,3.105 46.121,9.293 46.121,9.293 C46.121,9.293 44.707,7.879 44.707,7.879 ZM47.000,29.500 C47.000,30.039 46.867,30.543 46.649,31.000 C46.649,31.000 47.000,31.000 47.000,31.000 C48.654,31.000 50.000,32.346 50.000,34.000 C50.000,34.000 50.000,35.000 50.000,35.000 C51.654,35.000 53.000,36.346 53.000,38.000 C53.000,38.000 53.000,44.000 53.000,44.000 C53.000,45.654 51.654,47.000 50.000,47.000 C50.000,47.000 40.000,47.000 40.000,47.000 C38.346,47.000 37.000,45.654 37.000,44.000 C37.000,44.000 37.000,38.000 37.000,38.000 C37.000,36.346 38.346,35.000 40.000,35.000 C40.000,35.000 40.000,34.000 40.000,34.000 C40.000,33.157 40.352,32.397 40.913,31.852 C40.904,31.842 40.892,31.835 40.883,31.824 C40.883,31.824 33.854,23.916 33.854,23.916 C33.854,23.916 35.348,22.588 35.348,22.588 C35.348,22.588 42.378,30.496 42.378,30.496 C42.663,30.816 43.071,31.000 43.500,31.000 C44.327,31.000 45.000,30.327 45.000,29.500 C45.000,29.132 44.866,28.778 44.623,28.505 C44.623,28.505 36.776,19.678 36.776,19.678 C35.828,18.611 34.466,18.000 33.039,18.000 C33.039,18.000 22.122,18.000 22.122,18.000 C20.493,18.000 18.962,18.797 18.027,20.131 C18.027,20.131 14.438,25.252 14.438,25.252 C14.147,25.666 14.000,26.086 14.000,26.500 C14.000,26.817 14.072,27.121 14.214,27.401 C14.214,27.401 18.161,35.178 18.161,35.178 C18.419,35.684 18.931,36.000 19.500,36.000 C20.327,36.000 21.000,35.327 21.000,34.500 C21.000,34.500 21.000,34.298 21.000,34.298 C18.644,33.170 17.000,30.782 17.000,28.000 C17.000,24.140 20.140,21.000 24.000,21.000 C27.859,21.000 31.000,24.140 31.000,28.000 C31.000,31.859 27.859,35.000 24.000,35.000 C23.657,35.000 23.329,34.946 23.000,34.899 C23.000,34.899 23.000,54.618 23.000,54.618 C23.000,54.618 20.236,56.000 20.236,56.000 C19.473,56.381 19.000,57.147 19.000,58.000 C19.000,58.000 27.000,58.000 27.000,58.000 C27.000,58.000 27.000,38.000 27.000,38.000 C27.000,38.000 29.000,38.000 29.000,38.000 C29.000,38.000 29.000,58.000 29.000,58.000 C29.000,58.000 37.000,58.000 37.000,58.000 C37.000,57.147 36.526,56.381 35.763,56.000 C35.763,56.000 33.000,54.618 33.000,54.618 C33.000,54.618 33.000,27.000 33.000,27.000 C33.000,27.000 35.000,27.000 35.000,27.000 C35.000,27.000 35.000,53.382 35.000,53.382 C35.000,53.382 36.658,54.211 36.658,54.211 C38.102,54.932 39.000,56.385 39.000,58.000 C39.000,59.102 38.102,60.000 37.000,60.000 C37.000,60.000 19.000,60.000 19.000,60.000 C17.897,60.000 17.000,59.102 17.000,58.000 C17.000,56.385 17.897,54.932 19.342,54.211 C19.342,54.211 21.000,53.382 21.000,53.382 C21.000,53.382 21.000,37.649 21.000,37.649 C20.543,37.867 20.039,38.000 19.500,38.000 C18.174,38.000 16.977,37.265 16.378,36.082 C16.378,36.082 12.431,28.306 12.431,28.306 C12.148,27.751 12.000,27.126 12.000,26.500 C12.000,25.666 12.269,24.859 12.801,24.103 C12.801,24.103 16.389,18.982 16.389,18.982 C17.698,17.115 19.841,16.000 22.122,16.000 C22.122,16.000 33.039,16.000 33.039,16.000 C35.037,16.000 36.944,16.856 38.270,18.349 C38.270,18.349 46.116,27.176 46.116,27.176 C46.685,27.814 47.000,28.639 47.000,29.500 ZM24.000,33.000 C26.757,33.000 29.000,30.757 29.000,28.000 C29.000,25.243 26.757,23.000 24.000,23.000 C21.243,23.000 19.000,25.243 19.000,28.000 C19.000,30.757 21.243,33.000 24.000,33.000 ZM40.000,37.000 C39.448,37.000 39.000,37.448 39.000,38.000 C39.000,38.000 39.000,44.000 39.000,44.000 C39.000,44.552 39.448,45.000 40.000,45.000 C40.000,45.000 50.000,45.000 50.000,45.000 C50.552,45.000 51.000,44.552 51.000,44.000 C51.000,44.000 51.000,38.000 51.000,38.000 C51.000,37.448 50.552,37.000 50.000,37.000 C50.000,37.000 40.000,37.000 40.000,37.000 ZM43.000,33.000 C42.448,33.000 42.000,33.448 42.000,34.000 C42.000,34.000 42.000,35.000 42.000,35.000 C42.000,35.000 48.000,35.000 48.000,35.000 C48.000,35.000 48.000,34.000 48.000,34.000 C48.000,33.448 47.552,33.000 47.000,33.000 C47.000,33.000 43.000,33.000 43.000,33.000 ZM23.000,25.000 C23.000,25.000 25.000,25.000 25.000,25.000 C25.000,25.000 25.000,28.414 25.000,28.414 C25.000,28.414 22.113,31.301 22.113,31.301 C22.113,31.301 20.699,29.886 20.699,29.886 C20.699,29.886 23.000,27.586 23.000,27.586 C23.000,27.586 23.000,25.000 23.000,25.000 ZM28.000,14.000 C24.691,14.000 22.000,11.308 22.000,8.000 C22.000,8.000 22.000,6.000 22.000,6.000 C22.000,2.691 24.691,-0.000 28.000,-0.000 C31.309,-0.000 34.000,2.691 34.000,6.000 C34.000,6.000 34.000,8.000 34.000,8.000 C34.000,11.308 31.309,14.000 28.000,14.000 ZM32.000,6.000 C32.000,3.794 30.206,2.000 28.000,2.000 C25.794,2.000 24.000,3.794 24.000,6.000 C24.000,6.000 24.000,8.000 24.000,8.000 C24.000,10.206 25.794,12.000 28.000,12.000 C30.206,12.000 32.000,10.206 32.000,8.000 C32.000,8.000 32.000,6.000 32.000,6.000 ZM3.691,3.105 C3.691,3.105 5.105,1.691 5.105,1.691 C5.105,1.691 11.293,7.879 11.293,7.879 C11.293,7.879 9.879,9.293 9.879,9.293 C9.879,9.293 3.691,3.105 3.691,3.105 ZM8.000,16.000 C8.000,16.000 -0.000,16.000 -0.000,16.000 C-0.000,16.000 -0.000,14.000 -0.000,14.000 C-0.000,14.000 8.000,14.000 8.000,14.000 C8.000,14.000 8.000,16.000 8.000,16.000 Z" id="path-1" class="cls-2" fill-rule="evenodd" fill="#ffffff" fill-opacity="0.9" type="solidColor"></path>
</svg>