<svg xmlns="http://www.w3.org/2000/svg" xmlns:xlink="http://www.w3.org/1999/xlink" preserveAspectRatio="xMidYMid" width="56" height="55" viewBox="0 0 56 55" id="svg-1">
  <defs id="defs-2">
    
  </defs>
  <path d="M54.000,33.000 C54.000,33.000 54.000,31.000 54.000,31.000 C54.000,31.000 56.000,31.000 56.000,31.000 C56.000,31.000 56.000,33.000 56.000,33.000 C56.000,33.000 54.000,33.000 54.000,33.000 ZM54.000,27.000 C54.000,24.096 52.636,18.920 48.881,16.566 C48.881,16.566 49.943,14.871 49.943,14.871 C54.104,17.479 56.000,22.986 56.000,27.000 C56.000,27.000 56.000,29.000 56.000,29.000 C56.000,29.000 54.000,29.000 54.000,29.000 C54.000,29.000 54.000,27.000 54.000,27.000 ZM49.000,6.000 C49.000,6.000 54.000,6.000 54.000,6.000 C54.000,6.000 54.000,8.000 54.000,8.000 C54.000,8.000 49.000,8.000 49.000,8.000 C49.000,8.000 49.000,6.000 49.000,6.000 ZM46.000,9.000 C46.000,9.000 48.000,9.000 48.000,9.000 C48.000,9.000 48.000,14.000 48.000,14.000 C48.000,14.000 46.000,14.000 46.000,14.000 C46.000,14.000 46.000,9.000 46.000,9.000 ZM46.000,-0.000 C46.000,-0.000 48.000,-0.000 48.000,-0.000 C48.000,-0.000 48.000,5.000 48.000,5.000 C48.000,5.000 46.000,5.000 46.000,5.000 C46.000,5.000 46.000,-0.000 46.000,-0.000 ZM40.000,6.000 C40.000,6.000 45.000,6.000 45.000,6.000 C45.000,6.000 45.000,8.000 45.000,8.000 C45.000,8.000 40.000,8.000 40.000,8.000 C40.000,8.000 40.000,6.000 40.000,6.000 ZM41.000,44.000 C41.000,44.000 41.000,42.000 41.000,42.000 C41.000,42.000 45.000,42.000 45.000,42.000 C45.000,42.000 45.000,48.000 45.000,48.000 C45.000,48.000 47.000,48.000 47.000,48.000 C47.000,48.000 47.000,50.000 47.000,50.000 C47.000,50.000 41.000,50.000 41.000,50.000 C41.000,50.000 41.000,48.000 41.000,48.000 C41.000,48.000 43.000,48.000 43.000,48.000 C43.000,48.000 43.000,44.000 43.000,44.000 C43.000,44.000 41.000,44.000 41.000,44.000 ZM2.000,48.000 C2.000,48.000 2.000,46.000 2.000,46.000 C2.000,46.000 4.000,46.000 4.000,46.000 C4.000,46.000 4.000,48.000 4.000,48.000 C4.000,48.000 2.000,48.000 2.000,48.000 ZM42.000,16.000 C47.893,16.000 52.000,22.851 52.000,29.000 C52.000,33.835 51.307,35.903 49.662,39.013 C51.696,40.665 53.000,43.182 53.000,46.000 C53.000,46.310 52.984,46.616 52.954,46.919 C52.954,46.919 50.964,46.718 50.964,46.718 C50.988,46.481 51.000,46.242 51.000,46.000 C51.000,42.140 47.859,39.000 44.000,39.000 C40.140,39.000 37.000,42.140 37.000,46.000 C37.000,49.859 40.140,53.000 44.000,53.000 C44.802,53.000 45.587,52.866 46.336,52.601 C46.336,52.601 47.002,54.486 47.002,54.486 C46.039,54.827 45.029,55.000 44.000,55.000 C39.981,55.000 36.571,52.352 35.418,48.709 C34.623,48.881 33.817,49.000 33.000,49.000 C33.000,49.000 8.000,49.000 8.000,49.000 C8.000,50.654 6.654,52.000 5.000,52.000 C5.000,52.000 -0.000,52.000 -0.000,52.000 C-0.000,52.000 -0.000,50.000 -0.000,50.000 C-0.000,50.000 5.000,50.000 5.000,50.000 C5.552,50.000 6.000,49.552 6.000,49.000 C6.000,49.000 6.000,25.000 6.000,25.000 C6.000,24.448 5.552,24.000 5.000,24.000 C5.000,24.000 -0.000,24.000 -0.000,24.000 C-0.000,24.000 -0.000,22.000 -0.000,22.000 C-0.000,22.000 5.000,22.000 5.000,22.000 C6.654,22.000 8.000,23.346 8.000,25.000 C8.000,25.000 9.000,25.000 9.000,25.000 C11.945,25.000 14.667,23.280 15.935,20.619 C15.935,20.619 21.036,8.032 21.036,8.032 C21.922,6.169 23.772,5.000 25.775,5.000 C28.656,5.000 31.000,7.347 31.000,10.231 C31.000,10.231 31.000,20.000 31.000,20.000 C31.000,20.000 35.128,20.000 35.128,20.000 C35.602,17.981 37.569,16.000 42.000,16.000 ZM44.000,37.000 C45.426,37.000 46.771,37.342 47.971,37.936 C49.455,35.113 50.000,33.364 50.000,29.000 C50.000,23.243 46.186,18.000 42.000,18.000 C39.426,18.000 37.684,18.809 37.172,20.150 C40.550,20.936 44.000,24.956 44.000,30.000 C44.000,31.653 43.983,34.207 42.955,37.066 C43.298,37.026 43.646,37.000 44.000,37.000 ZM29.000,22.000 C29.000,22.000 29.000,10.231 29.000,10.231 C29.000,8.449 27.553,7.000 25.775,7.000 C24.540,7.000 23.397,7.721 22.865,8.838 C22.865,8.838 17.764,21.425 17.764,21.425 C16.142,24.833 12.712,27.000 9.000,27.000 C9.000,27.000 8.000,27.000 8.000,27.000 C8.000,27.000 8.000,47.000 8.000,47.000 C8.000,47.000 33.000,47.000 33.000,47.000 C33.688,47.000 34.368,46.898 35.038,46.750 C35.017,46.502 35.000,46.253 35.000,46.000 C35.000,42.267 37.284,39.060 40.527,37.698 C41.985,34.656 42.000,31.878 42.000,30.020 C42.000,25.190 38.388,22.000 36.000,22.000 C36.000,22.000 36.000,21.000 36.000,21.000 C36.000,21.000 35.996,21.000 35.996,21.000 C35.996,21.000 35.996,22.000 35.996,22.000 C35.996,22.000 29.000,22.000 29.000,22.000 ZM11.000,10.000 C11.000,10.000 16.000,10.000 16.000,10.000 C16.000,10.000 16.000,12.000 16.000,12.000 C16.000,12.000 11.000,12.000 11.000,12.000 C11.000,12.000 11.000,10.000 11.000,10.000 ZM8.000,13.000 C8.000,13.000 10.000,13.000 10.000,13.000 C10.000,13.000 10.000,18.000 10.000,18.000 C10.000,18.000 8.000,18.000 8.000,18.000 C8.000,18.000 8.000,13.000 8.000,13.000 ZM8.000,4.000 C8.000,4.000 10.000,4.000 10.000,4.000 C10.000,4.000 10.000,9.000 10.000,9.000 C10.000,9.000 8.000,9.000 8.000,9.000 C8.000,9.000 8.000,4.000 8.000,4.000 ZM2.000,10.000 C2.000,10.000 7.000,10.000 7.000,10.000 C7.000,10.000 7.000,12.000 7.000,12.000 C7.000,12.000 2.000,12.000 2.000,12.000 C2.000,12.000 2.000,10.000 2.000,10.000 ZM28.000,53.000 C28.000,53.000 19.000,53.000 19.000,53.000 C19.000,53.000 19.000,51.000 19.000,51.000 C19.000,51.000 28.000,51.000 28.000,51.000 C28.000,51.000 28.000,53.000 28.000,53.000 ZM32.000,53.000 C32.000,53.000 30.000,53.000 30.000,53.000 C30.000,53.000 30.000,51.000 30.000,51.000 C30.000,51.000 32.000,51.000 32.000,51.000 C32.000,51.000 32.000,53.000 32.000,53.000 ZM52.175,49.771 C51.714,50.766 51.081,51.663 50.293,52.434 C50.293,52.434 48.894,51.005 48.894,51.005 C49.507,50.404 50.001,49.707 50.358,48.932 C50.358,48.932 52.175,49.771 52.175,49.771 Z" id="path-1" class="cls-2" fill-rule="evenodd" fill="#ffffff" fill-opacity="0.9" type="solidColor"></path>
</svg>