<svg xmlns="http://www.w3.org/2000/svg" xmlns:xlink="http://www.w3.org/1999/xlink" preserveAspectRatio="xMidYMid" width="47" height="59" viewBox="0 0 47 59" id="svg-1">
  <defs id="defs-2">
    
  </defs>
  <path d="M42.831,33.032 C45.487,35.655 47.000,39.254 47.000,43.000 C47.000,50.185 41.618,56.169 34.481,56.920 C34.481,56.920 15.481,58.920 15.481,58.920 C14.980,58.973 14.482,59.000 14.000,59.000 C6.280,59.000 -0.000,52.720 -0.000,45.000 C-0.000,40.804 3.332,35.925 5.504,32.841 C5.504,32.841 4.080,26.672 4.080,26.672 C4.026,26.436 4.000,26.217 4.000,26.000 C4.000,24.602 4.953,23.402 6.316,23.083 C6.316,23.083 13.766,21.364 13.766,21.364 C13.766,21.364 14.215,23.313 14.215,23.313 C14.215,23.313 6.769,25.031 6.769,25.031 C6.317,25.137 6.000,25.536 6.000,26.000 C6.000,26.064 6.010,26.138 6.029,26.223 C6.029,26.223 9.030,39.227 9.030,39.227 C9.136,39.681 9.535,40.000 10.000,40.000 C10.407,40.000 10.769,39.756 10.924,39.378 C10.924,39.378 15.223,28.865 15.223,28.865 C15.234,28.839 15.337,28.612 15.400,28.502 C15.809,27.799 16.489,27.286 17.270,27.090 C17.270,27.090 34.239,22.848 34.239,22.848 C34.239,22.848 33.986,19.910 33.986,19.910 C33.940,19.392 33.516,19.000 33.000,19.000 C32.935,19.000 32.862,19.010 32.776,19.029 C32.776,19.029 30.233,19.616 30.233,19.616 C30.233,19.616 29.784,17.667 29.784,17.667 C29.784,17.667 32.328,17.080 32.328,17.080 C32.563,17.026 32.783,17.000 33.000,17.000 C34.559,17.000 35.840,18.176 35.978,19.735 C35.978,19.735 36.204,22.357 36.204,22.357 C36.204,22.357 41.276,21.094 41.276,21.094 C41.536,21.030 41.771,21.000 42.000,21.000 C43.654,21.000 45.000,22.346 45.000,24.000 C45.000,24.228 44.970,24.464 44.907,24.720 C44.907,24.720 42.831,33.032 42.831,33.032 ZM42.000,23.000 C41.933,23.000 41.856,23.012 41.757,23.036 C41.757,23.036 35.551,24.582 35.551,24.582 C35.551,24.582 35.551,24.582 35.551,24.582 C35.551,24.582 17.756,29.029 17.756,29.029 C17.496,29.095 17.269,29.266 17.133,29.501 C17.105,29.550 17.062,29.649 17.062,29.649 C17.062,29.649 12.775,40.135 12.775,40.135 C12.312,41.267 11.223,42.000 10.000,42.000 C8.599,42.000 7.399,41.046 7.082,39.679 C7.082,39.679 6.112,35.476 6.112,35.476 C4.201,38.293 2.000,41.990 2.000,45.000 C2.000,51.617 7.383,57.000 14.000,57.000 C14.412,57.000 14.840,56.977 15.271,56.931 C15.271,56.931 34.272,54.931 34.272,54.931 C40.388,54.288 45.000,49.158 45.000,43.000 C45.000,39.798 43.698,36.733 41.433,34.486 C41.433,34.486 36.202,36.042 36.202,36.042 C36.202,36.042 35.632,34.124 35.632,34.124 C35.632,34.124 40.887,32.561 40.887,32.561 C40.887,32.561 42.966,24.239 42.966,24.239 C42.988,24.143 43.000,24.066 43.000,24.000 C43.000,23.448 42.552,23.000 42.000,23.000 ZM40.119,48.332 C39.856,49.078 39.534,49.802 39.162,50.481 C39.162,50.481 37.408,49.518 37.408,49.518 C37.728,48.935 38.006,48.312 38.232,47.668 C38.232,47.668 40.119,48.332 40.119,48.332 ZM39.000,43.000 C39.000,41.110 38.831,39.558 38.482,38.258 C38.482,38.258 40.414,37.740 40.414,37.740 C40.808,39.213 41.000,40.932 41.000,43.000 C41.000,44.086 40.898,45.160 40.697,46.191 C40.697,46.191 38.734,45.808 38.734,45.808 C38.910,44.903 39.000,43.958 39.000,43.000 ZM36.000,4.000 C36.000,4.000 38.000,4.000 38.000,4.000 C38.000,4.000 38.000,12.000 38.000,12.000 C38.000,12.000 36.000,12.000 36.000,12.000 C36.000,12.000 36.000,4.000 36.000,4.000 ZM32.000,13.000 C32.000,13.000 34.000,13.000 34.000,13.000 C34.000,13.000 34.000,15.000 34.000,15.000 C34.000,15.000 32.000,15.000 32.000,15.000 C32.000,15.000 32.000,13.000 32.000,13.000 ZM32.000,7.000 C32.000,7.000 34.000,7.000 34.000,7.000 C34.000,7.000 34.000,11.000 34.000,11.000 C34.000,11.000 32.000,11.000 32.000,11.000 C32.000,11.000 32.000,7.000 32.000,7.000 ZM25.000,11.000 C22.243,11.000 20.000,8.757 20.000,6.000 C20.000,3.243 22.243,1.000 25.000,1.000 C27.757,1.000 30.000,3.243 30.000,6.000 C30.000,8.757 27.757,11.000 25.000,11.000 ZM25.000,3.000 C23.346,3.000 22.000,4.346 22.000,6.000 C22.000,7.654 23.346,9.000 25.000,9.000 C26.654,9.000 28.000,7.654 28.000,6.000 C28.000,4.346 26.654,3.000 25.000,3.000 ZM28.000,19.000 C28.000,21.757 25.757,24.000 23.000,24.000 C20.243,24.000 18.000,21.757 18.000,19.000 C18.000,16.243 20.243,14.000 23.000,14.000 C25.757,14.000 28.000,16.243 28.000,19.000 ZM20.000,19.000 C20.000,20.654 21.346,22.000 23.000,22.000 C24.654,22.000 26.000,20.654 26.000,19.000 C26.000,17.346 24.654,16.000 23.000,16.000 C21.346,16.000 20.000,17.346 20.000,19.000 ZM15.000,7.000 C15.000,7.000 17.000,7.000 17.000,7.000 C17.000,7.000 17.000,9.000 17.000,9.000 C17.000,9.000 15.000,9.000 15.000,9.000 C15.000,9.000 15.000,7.000 15.000,7.000 ZM15.000,-0.000 C15.000,-0.000 17.000,-0.000 17.000,-0.000 C17.000,-0.000 17.000,5.000 17.000,5.000 C17.000,5.000 15.000,5.000 15.000,5.000 C15.000,5.000 15.000,-0.000 15.000,-0.000 ZM16.000,14.000 C16.000,16.757 13.757,19.000 11.000,19.000 C8.243,19.000 6.000,16.757 6.000,14.000 C6.000,11.243 8.243,9.000 11.000,9.000 C13.757,9.000 16.000,11.243 16.000,14.000 ZM11.000,11.000 C9.346,11.000 8.000,12.346 8.000,14.000 C8.000,15.654 9.346,17.000 11.000,17.000 C12.654,17.000 14.000,15.654 14.000,14.000 C14.000,12.346 12.654,11.000 11.000,11.000 ZM7.000,-0.000 C7.000,-0.000 9.000,-0.000 9.000,-0.000 C9.000,-0.000 9.000,6.000 9.000,6.000 C9.000,6.000 7.000,6.000 7.000,6.000 C7.000,6.000 7.000,-0.000 7.000,-0.000 ZM2.000,20.000 C2.000,20.000 4.000,20.000 4.000,20.000 C4.000,20.000 4.000,22.000 4.000,22.000 C4.000,22.000 2.000,22.000 2.000,22.000 C2.000,22.000 2.000,20.000 2.000,20.000 ZM2.000,16.000 C2.000,16.000 4.000,16.000 4.000,16.000 C4.000,16.000 4.000,18.000 4.000,18.000 C4.000,18.000 2.000,18.000 2.000,18.000 C2.000,18.000 2.000,16.000 2.000,16.000 Z" id="path-1" class="cls-2" fill-rule="evenodd" fill="#ffffff" fill-opacity="0.9" type="solidColor"></path>
</svg>