<svg xmlns="http://www.w3.org/2000/svg" xmlns:xlink="http://www.w3.org/1999/xlink" preserveAspectRatio="xMidYMid" width="34" height="33" viewBox="0 0 34 33">
  <defs>
    <style>

      .cls-2 {
        fill: #ffffff;
      }
    </style>
  </defs>
  <path d="M29.553,0.553 C30.337,-0.221 31.608,-0.221 32.392,0.553 C33.176,1.328 33.176,2.585 32.392,3.359 C32.392,3.359 19.611,15.994 19.611,15.994 C19.611,15.994 32.984,29.213 32.984,29.213 C33.768,29.988 33.768,31.244 32.984,32.019 C32.200,32.794 30.929,32.794 30.145,32.019 C30.145,32.019 16.772,18.800 16.772,18.800 C16.772,18.800 3.398,32.019 3.398,32.019 C2.614,32.794 1.343,32.794 0.559,32.019 C-0.225,31.244 -0.225,29.988 0.559,29.213 C0.559,29.213 13.933,15.994 13.933,15.994 C13.933,15.994 1.151,3.359 1.151,3.359 C0.367,2.585 0.367,1.328 1.151,0.553 C1.934,-0.221 3.206,-0.221 3.990,0.553 C3.990,0.553 16.772,13.188 16.772,13.188 C16.772,13.188 29.553,0.553 29.553,0.553 Z" id="path-1" class="cls-2" fill-rule="evenodd"/>
</svg>
